<?xml version="1.0" encoding="utf-8"?>
<!-- Generator: Adobe Illustrator 24.3.0, SVG Export Plug-In . SVG Version: 6.00 Build 0)  -->
<svg version="1.1" id="Layer_1" xmlns="http://www.w3.org/2000/svg" xmlns:xlink="http://www.w3.org/1999/xlink" x="0px" y="0px"
	 viewBox="0 0 1101 1073" style="enable-background:new 0 0 1101 1073;" xml:space="preserve">
<style type="text/css">
	.st0{fill:#FFFFFF;}
</style>
<g>
	<path d="M491.3,847.8c-37-9.4-74.8-16.1-110.9-28.9c-42.2-15-70.7-49.3-88.8-93.7c-19.9-48.7-10.8-85.2,29.7-115.2
		c58-43,108.6-94.8,144.5-161.1c19.4-35.8,33.5-75.6,46.5-115c12-36.2,17.9-43.4,51.9-40.7c36.1,2.8,52.9-11.6,67.5-51.1
		C644,208.4,656.8,174,675,144c14.1-23.3,35.5-42.2,56.2-59.3c20.6-17.1,45.8-20.2,68.9-5.7c36.6,22.8,74.5,44.7,89.2,93.8
		c1.6,5.4,9.9,10.6,15.8,12c30.1,6.9,47.3,27.8,57.3,58.8c17,52.9,15.2,104.5-11.3,152.5c-16.2,29.3-36.4,56-55.2,83.5
		c-3.3,4.8-8.3,9.5-13.5,11.4c-40.6,15.1-60,51.2-78.5,90.3c-21.7,46-42.7,93.7-71.5,134.1C672.3,799.9,590.8,841.9,493,842.6
		C492.4,844.3,491.9,846.1,491.3,847.8z M359,747.7c6,8.7,11.7,16.2,16.6,24.2c18.3,29.7,45.7,31.8,66.7,5
		c18.4-23.6,43.5-24.4,62.8-2c12.5,14.5,60.5,10.8,70.3-5.6c1.7-2.8,2.7-6.6,2.7-9.9c-0.3-26.4,17-36.1,35.4-39.6
		c8.6-1.6,19,8.7,28.6,13.5c1.4,4.3,4.3,3.3,7.1,1.8c3.4-1.9,6.8-3.9,9.9-6.4c41.4-34.7,78.6-72.9,102.1-126.1
		c28.3-64.2,59.7-126.8,87.7-185.7c-6.3-5.4-18.8-11.1-23.4-21.2c-5.9-13.1-3.7-29.1,9.1-39.8c16.3-13.7,24.1,4.2,35.2,13.5
		c4.3-25.3,8.3-48.4,12.1-70.6c-7.6,1.9-16.3,6.8-19.4,4.1c-4.9-4.3-7.7-13.6-8.2-21.1c-0.6-10.4,1.7-21,2.9-31.4
		c5-43.6,3.3-86-18.5-124.6c-17.5-30.9-42.8-45.5-75.8-42.8c-22.3,1.8-41.4,15.6-47.5,34.7c3.7-2.1,6.9-3,9-5.1
		c34.5-34.4,110.7-2.7,116.4,56.7c6,62.3,4.2,122.3-22.3,179.2c-9.1,19.5-14.4,39.9-4.8,60.7c6.3,13.7,2.8,23.4-4.6,34.7
		c-19.5,29.7-37.4,60.6-57.1,90.1c-25.9,38.9-45.8,81.4-77.2,117.1c-50.2,57-110.8,85.8-178.9,95.4
		C451.4,752.8,405.7,747.7,359,747.7z M675.1,332.6c-0.1,2.6-0.1,5.3-0.2,7.9c29.7,0,59.5,1.5,89.1-0.3c57-3.6,58.8-6.2,68.7-68.9
		c0.9-5.5,2.5-11.1,2.2-16.6c-0.5-10.8-2.1-21.5-3.2-32.2c-9.4,2.7-19.3,4.3-28.2,8.4c-46,21.1-83.5,65.3-137.1,60.5
		C669.6,306.2,672.3,319.4,675.1,332.6z M682.6,272.9c13.5-5.3,23.1-8,31.8-12.8c37-20.5,73.8-41.3,110.3-62.7
		c4.2-2.5,8.4-9.1,8.9-14.3c2.6-29-17.6-51.1-43.9-46.5c-14.1,2.5-29,7.6-40.7,16.2C712.1,180,696.5,222.8,682.6,272.9z
		 M535.8,308.6c-9.3,12.7-2.3,19.1,8.2,22c27.2,7.6,54.3,15.8,82,20.8c52.4,9.5,105.2,16.3,158.3,6.2c9.2-1.8,17.9-7,26.8-10.6
		c-0.6-2.2-1.1-4.3-1.7-6.5C715.6,358.9,625.2,342.7,535.8,308.6z M862.1,474.6c1.9,1.6,3.7,3.2,5.6,4.8
		c42.9-14.1,97.3-106.5,88-159.2C924.6,371.7,893.4,423.1,862.1,474.6z M894.6,290.7c23.3-4.8,45.7-47.5,34.7-67.1
		c-4.4-7.9-16-11.4-24.9-15.3c-2-0.9-9.2,4.7-9.3,7.5C894.3,240.7,894.6,265.6,894.6,290.7z M683.2,574.6
		c-9.8-9.2-15.3-18.5-21-18.7c-6-0.2-12.3,8.4-18.4,13.1c5,6.8,9,17.2,15.3,19.3C664,590,671.8,581.5,683.2,574.6z M554.2,603.8
		c7.5-11.4,15.3-18.2,14.5-23.4c-1.1-6.9-8.8-12.6-13.7-18.8c-4.7,5.7-12.5,10.9-13.2,17.1C541.1,584.6,547.7,591.6,554.2,603.8z
		 M623.1,634.9c-11.2-7.1-17.7-14.8-22.7-13.7c-5.9,1.3-10.4,10.1-15.6,15.7c5.4,4.6,10.6,12.5,16.2,12.8
		C606.5,650,612.3,642.6,623.1,634.9z M487,597.5c-5.9,9.8-11.8,15.4-11.8,20.9c0.1,4.5,8,13.1,11.2,12.4c5.3-1,12.8-7.5,13.5-12.7
		C500.5,613.4,493.5,607.3,487,597.5z M555.2,482.5c-5.7,8.8-11.5,13.8-11.3,18.6c0.2,5.3,5.8,10.4,9.1,15.6
		c4.4-4.7,11.2-8.8,12.6-14.5C566.6,498.1,560.5,491.9,555.2,482.5z M533.5,675.4c-7.1-6.7-11.4-13.9-15.6-13.9
		c-4.4,0.1-8.7,7.1-13.1,11.2c3.9,5.1,7.1,12.7,12.1,14.5C520.2,688.3,525.9,681.1,533.5,675.4z M450.7,683.2
		c-7.3-6.1-12-13.2-16.1-12.7c-4.3,0.5-10.9,8.1-10.9,12.6c0,4.6,6.6,12.3,10.9,12.8C438.6,696.4,443.4,689.3,450.7,683.2z
		 M448,611.4c-8.1-5.7-13.1-12.1-17.5-11.6c-4.5,0.5-8.4,7.7-12.5,12c4.2,4.3,8.2,11.5,12.7,11.9C435,624.2,439.9,617.5,448,611.4z
		 M368.7,676.3c5.2-6.9,11.1-11.3,10.9-15.4c-0.2-4.3-6.9-12.2-9.5-11.6c-4.8,1.1-10.4,6.4-12.2,11.5
		C357,663.4,363.5,669.3,368.7,676.3z"/>
	<path class="st0" d="M359,747.7c46.7,0,92.4,5.1,136.8-1.2c68.1-9.6,128.7-38.4,178.9-95.4c31.4-35.7,51.4-78.3,77.2-117.1
		c19.6-29.5,37.6-60.4,57.1-90.1c7.4-11.3,10.9-21,4.6-34.7c-9.6-20.8-4.3-41.3,4.8-60.7c26.5-56.9,28.2-116.8,22.3-179.2
		c-5.7-59.4-81.9-91-116.4-56.7c-2.1,2.1-5.2,3-9,5.1c6-19.1,25.2-32.9,47.5-34.7c33-2.7,58.4,12,75.8,42.8
		c21.8,38.6,23.5,81.1,18.5,124.6c-1.2,10.5-3.5,21.1-2.9,31.4c0.4,7.4,3.3,16.8,8.2,21.1c3.1,2.7,11.8-2.2,19.4-4.1
		c-3.8,22.2-7.8,45.3-12.1,70.6c-11.1-9.3-18.9-27.2-35.2-13.5c-12.8,10.7-15,26.6-9.1,39.8c4.6,10.1,17.1,15.9,23.4,21.2
		c-28,59-59.4,121.5-87.7,185.7C737.6,655.9,700.4,694,659,728.7c-3,2.5-6.5,4.5-9.9,6.4c-2.7,1.5-5.7,2.6-7.1-1.8
		c-9.6-4.9-20-15.2-28.6-13.5c-18.4,3.5-35.7,13.1-35.4,39.6c0,3.3-1,7.1-2.7,9.9c-9.8,16.4-57.8,20.1-70.3,5.6
		c-19.3-22.4-44.3-21.6-62.8,2c-21,26.8-48.4,24.7-66.7-5C370.7,763.9,365,756.4,359,747.7z"/>
	<path class="st0" d="M675.1,332.6c-2.8-13.2-5.5-26.4-8.6-41.2c53.6,4.8,91-39.4,137.1-60.5c8.9-4.1,18.8-5.6,28.2-8.4
		c1.1,10.7,2.7,21.4,3.2,32.2c0.3,5.5-1.4,11.1-2.2,16.6c-10,62.7-11.7,65.3-68.7,68.9c-29.6,1.9-59.4,0.3-89.1,0.3
		C675,337.9,675,335.2,675.1,332.6z"/>
	<path class="st0" d="M682.6,272.9c13.9-50.1,29.5-92.8,66.5-120.1c11.7-8.6,26.6-13.8,40.7-16.2c26.4-4.6,46.5,17.6,43.9,46.5
		c-0.5,5.1-4.7,11.8-8.9,14.3c-36.5,21.4-73.3,42.3-110.3,62.7C705.7,264.9,696.1,267.5,682.6,272.9z"/>
	<path class="st0" d="M535.8,308.6c89.4,34.1,179.7,50.3,273.5,31.9c0.6,2.2,1.1,4.3,1.7,6.5c-8.9,3.6-17.6,8.8-26.8,10.6
		c-53.1,10.1-105.9,3.3-158.3-6.2c-27.6-5-54.8-13.2-82-20.8C533.6,327.7,526.5,321.3,535.8,308.6z"/>
	<path class="st0" d="M862.1,474.6c31.2-51.4,62.4-102.9,93.6-154.3c9.3,52.7-45.1,145.1-88,159.2
		C865.9,477.8,864,476.2,862.1,474.6z"/>
	<path class="st0" d="M894.6,290.7c0-25.2-0.3-50.1,0.4-74.9c0.1-2.8,7.3-8.4,9.3-7.5c8.9,3.9,20.5,7.5,24.9,15.3
		C940.3,243.3,917.9,285.9,894.6,290.7z"/>
	<path class="st0" d="M683.2,574.6c-11.4,6.9-19.2,15.4-24.2,13.7c-6.3-2.1-10.3-12.5-15.3-19.3c6.2-4.7,12.4-13.3,18.4-13.1
		C667.9,556.1,673.4,565.4,683.2,574.6z"/>
	<path class="st0" d="M554.2,603.8c-6.5-12.3-13.1-19.2-12.4-25.1c0.8-6.3,8.5-11.4,13.2-17.1c4.9,6.2,12.6,11.9,13.7,18.8
		C569.5,585.6,561.7,592.4,554.2,603.8z"/>
	<path class="st0" d="M623.1,634.9c-10.8,7.7-16.6,15.1-22.1,14.8c-5.6-0.3-10.8-8.2-16.2-12.8c5.1-5.6,9.7-14.4,15.6-15.7
		C605.4,620.1,612,627.7,623.1,634.9z"/>
	<path class="st0" d="M487,597.5c6.5,9.8,13.6,15.8,12.9,20.6c-0.7,5.2-8.2,11.7-13.5,12.7c-3.2,0.6-11.1-7.9-11.2-12.4
		C475.1,612.9,481.1,607.3,487,597.5z"/>
	<path class="st0" d="M555.2,482.5c5.2,9.4,11.3,15.7,10.3,19.8c-1.4,5.6-8.1,9.7-12.6,14.5c-3.3-5.2-8.9-10.3-9.1-15.6
		C543.7,496.3,549.6,491.2,555.2,482.5z"/>
	<path class="st0" d="M533.5,675.4c-7.6,5.7-13.3,12.9-16.6,11.8c-4.9-1.8-8.1-9.4-12.1-14.5c4.4-4,8.7-11.1,13.1-11.2
		C522.2,661.5,526.5,668.7,533.5,675.4z"/>
	<path class="st0" d="M450.7,683.2c-7.3,6.1-12.1,13.2-16.2,12.7c-4.3-0.5-10.9-8.2-10.9-12.8c0-4.5,6.7-12.2,10.9-12.6
		C438.7,670.1,443.5,677.1,450.7,683.2z"/>
	<path class="st0" d="M448,611.4c-8,6.1-12.9,12.7-17.3,12.3c-4.5-0.4-8.5-7.7-12.7-11.9c4.1-4.3,8-11.4,12.5-12
		C434.8,599.4,439.9,605.7,448,611.4z"/>
	<path class="st0" d="M545.4,862.3c-5.1-7.1-11.7-12.9-10.7-15.5c1.8-5.1,7.4-10.4,12.2-11.5c2.6-0.6,9.3,7.3,9.5,11.6
		C556.5,851,550.6,855.4,545.4,862.3z"/>
</g>
</svg>
