<svg id="Layer_1" data-name="Layer 1" xmlns="http://www.w3.org/2000/svg" viewBox="0 0 605.2 416.12"><defs><style>.cls-1{fill:#272727;}.cls-2{fill:#4c4c4c;}.cls-3{fill:#cfcfcf;}.cls-4{fill:#baf280;}.cls-5{fill:#fcaa58;}.cls-6{fill:#7e7e7e;}.cls-7{fill:#7d7d7d;}.cls-8{fill:#262626;}.cls-9{fill:#777;}.cls-10{fill:#d6d6d6;}.cls-11{fill:#d5d5d5;}.cls-12{fill:#0b0b0b;}.cls-13{fill:#eee;}.cls-14{fill:#818181;}.cls-15{fill:#545454;}.cls-16{fill:#c7c7c7;}.cls-17{fill:#a6a6a6;}.cls-18{fill:#0d0d0d;}.cls-19{fill:#838383;}.cls-20{fill:#6e6e6e;}.cls-21{fill:#2b2b2b;}.cls-22{fill:#101010;}.cls-23{fill:#2a2a2a;}.cls-24{fill:#dbdbdb;}.cls-25{fill:#323232;}.cls-26{fill:#010101;}.cls-27{fill:#020202;}.cls-28{fill:#030303;}.cls-29{fill:#b8b8b7;}.cls-30{fill:#b4b4b3;}.cls-31{fill:#363636;}.cls-32{fill:#9c9c9c;}.cls-33{fill:#a1a1a0;}.cls-34{fill:#454545;}.cls-35{fill:#999998;}.cls-36{fill:#5a5a5a;}.cls-37{fill:#3f3f3e;}.cls-38{fill:#030202;}.cls-39{fill:#030302;}.cls-40{fill:#959594;}.cls-41{fill:#adacac;}.cls-42{fill:#5b5a5a;}.cls-43{fill:#c0c0bf;}.cls-44{fill:#f1f1f1;}.cls-45{fill:#9e9e9d;}.cls-46{fill:#a4a4a4;}.cls-47{fill:#8c8c8c;}.cls-48{fill:#d2d2d2;}.cls-49{fill:#cbcbcb;}.cls-50{fill:#5d5d5d;}.cls-51{fill:#797979;}.cls-52{fill:#707070;}.cls-53{fill:#626262;}.cls-54{fill:#686968;}.cls-55{fill:#191919;}.cls-56{fill:#7c7c7c;}.cls-57{fill:#333;}.cls-58{fill:#7b7b7b;}.cls-59{fill:#1d1d1d;}.cls-60{fill:#6a6a6a;}.cls-61{fill:#7a7a7a;}.cls-62{fill:#676767;}.cls-63{fill:#5c5c5c;}.cls-64{fill:#6b6b6b;}.cls-65{fill:#3f3f3f;}.cls-66{fill:#373737;}.cls-67{fill:#616161;}.cls-68{fill:#747474;}.cls-69{fill:#5b5b5b;}.cls-70{fill:#717171;}.cls-71{fill:#2d2d2d;}.cls-72{fill:#adadad;}.cls-73{fill:#d0d0d0;}.cls-74{fill:#222;}.cls-75{fill:#414141;}.cls-76{fill:#303030;}.cls-77{fill:#636363;}.cls-78{fill:#282828;}.cls-79{fill:#737373;}.cls-80{fill:#4d4d4d;}.cls-81{fill:#757575;}.cls-82{fill:#767676;}.cls-83{fill:#0a0a0a;}.cls-84{fill:#666667;}.cls-85{fill:#0f0f0f;}.cls-86{fill:#696969;}.cls-87{fill:#232323;}.cls-88{fill:#1c1c1c;}.cls-89{fill:#787878;}.cls-90{fill:#d3d3d3;}.cls-91{fill:#ccc;}.cls-92{fill:#acacac;}.cls-93{fill:#898989;}.cls-94{fill:#929292;}</style></defs><path d="M496,504.4c-.53,5.43-3.43,10-5.46,14.86s-6.3,8-8.46,12.62a2.2,2.2,0,0,1-1.38,1.1c-4,.69-5.92,3.6-7.72,7.28,4.49-.32,5.45,2,5.43,5.86,0,3.56.87,7,.34,10.76-.76,5.33-3.35,9.29-7.16,12.74-1.13,1-2.76,1.72-1.84,3.84.37.85-.3,1.53-1.2,2-6,3.27-11.28,7.73-17.08,11.12-6.66,3.88-14,6.8-21.36,9.54a166.14,166.14,0,0,1-20.41,6.12c-6.14,1.42-12.5,1.34-18.59,2.63-11.5,2.43-23.21,2.86-34.8,4.33-6.58.84-13.38,0-20.08-.19a272.67,272.67,0,0,1-29.36-2.88c-7.21-1-14.5-1.3-21.74-2.06-1.91-.2-3.92-.21-5.55-1.83s-4.06-.56-6-.65c-7.66-.35-14.74-2.91-21.84-5.23-5.56-1.82-11.56-1.49-16.92-4.55-6.32-3.62-13.18-6.28-19.77-9.42-4.09-1.94-8.56-2.64-12.78-4.25a84,84,0,0,1-15.41-8.39C181.47,566.31,175.23,564,171,559c-3.44-4-6.91-7.88-11.38-10.64-9.15-5.67-15.8-13.82-22.93-21.63-3.16-3.46-6.81-6.59-10-10.12a339.42,339.42,0,0,0-26.16-25.29c-10.78-9.45-21.49-18.9-33.64-26.75-7.46-4.83-14.17-11-21.18-16.59a22.64,22.64,0,0,0-4.47-3c-3.89-1.63-5.59-5.32-8.23-7.93-1.83-1.81-3.2-4.39-5.45-6.11a2.15,2.15,0,0,1-.74-2.37c.59-1.49,2.12-.93,3.93-1.13-5.74-3.86-8.82-9.28-12.44-14.28-.72-1-1.41-2.3-1.26-3,.93-4.45-2.5-7.37-3.58-11.09a22.55,22.55,0,0,1-1.09-6.83c.08-6.47-.62-12.95-.67-19.42-.06-8.29.72-16.62.17-24.87-.37-5.54-.39-11.15-.63-16.65-.31-7.42,1.17-15.06,6.12-21.49,2.42-3.16,5.15-6,7.71-9,2-2.38,5-3.19,7.42-4.75a6.7,6.7,0,0,0,3-3.76c2.63-7.48,5.22-15,9.65-21.65,2.56-3.82,5-7.68,9.6-10,2.94-1.5,5-4.53,8.63-5.56,4.67-1.34,9.14-3.18,14.09-3.63,3.62-.34,7.72-.87,10.75-.15,7.19,1.72,14.58,0,21.64,2.39,5,1.65,10.42,1.45,15.46,3.19s9.94,3.15,14.92,4.71c.61-.28.3-.71.17-1.1a18.36,18.36,0,0,1-1.93-15.63c2.84-9.59,4.83-19.42,8.54-28.76,1.14-2.87,3-5.1,4.64-7.61,5-7.72,13.12-9,20.87-11.1a54.46,54.46,0,0,1,23.92-1c8.28,1.45,16.67,1.59,25,2.57,7.85.93,15.7,2.11,23.12,5,2,.78,4.05.23,6,1,7.25,2.91,14.49,5.88,21.88,8.39,4.18,1.43,9,2.4,12.31,4.67,4.77,3.23,10.79,3.51,15,7.87,2.36,2.44,6.24,1.25,8.92-1,5-4.15,10.38-7.74,15.63-11.53a191.17,191.17,0,0,1,18.37-12.07c.4-.23.61-.78.92-1.18,1.11-.79,2.51-.88,3.67-1.56,2.69-1.45,5.14-3.21,8-4.47,2.34-1,3.65-.9,5.32.26,5.21,3.58,10.88,6.72,15.4,11,3.87,3.7,8,7.21,12,10.6,5.24,4.43,10.16,9.26,15.64,13.46,6.86,5.27,14.3,9.73,20.87,15.46,3.52,3.06,8.22,5.22,12.9,6.91,3.36,1.21,6.34,3.28,9.77,4.59a136.25,136.25,0,0,0,29.6,7.22c5.8.81,11.57,1.23,17.2,3.07,1.9.62,4.17.06,6.26.19,11.27.68,22.29,3,33.41,4.78,8.25,1.3,15.82,4.77,24.12,6,8,1.14,14.72,6.44,22.06,9.79a137.08,137.08,0,0,1,14.44,7.73,106.12,106.12,0,0,1,10.11,7.5c.47.37.44,1.36.64,2.06-.32,2.59-2.46,2-4.09,2.36a3.89,3.89,0,0,1-2.77-.9c-6.5-5.3-13.83-9.16-21.49-12.49-3.92-1.71-8-3.22-11-6.5a9.63,9.63,0,0,0-4.69-2.35c-8.5-2.4-17.2-4-25.73-6.29-8-2.16-16-4.45-24.19-5.75-3-.48-6-.94-9-1.13a68.89,68.89,0,0,1-14.95-2.16c-4.76-1.38-9.78-1.1-14.68-1.45A60.31,60.31,0,0,1,461,266a172.69,172.69,0,0,1-24-8,86.69,86.69,0,0,1-17.8-10.73,85.42,85.42,0,0,0-9.45-6.21,120.32,120.32,0,0,1-23-17c-6.35-5.9-12.88-11.64-18.8-18a38.19,38.19,0,0,0-7.87-5.88c-2.44-1.53-4.87-1-7.07.62-7.37,5.53-15.36,10.16-23,15.22-4.41,2.91-8.85,5.71-13.08,8.92-10.66,8.1-21.17,16.36-30.34,26.16-3.31,3.54-7,6.94-8.45,11.87a7.28,7.28,0,0,1-2.61,3.19,78.23,78.23,0,0,1-8.32,6.18,25.61,25.61,0,0,1,14.73,7.93,28,28,0,0,1,7.4,19c.09,3.28.91,6.52.53,9.8-.22,1.84,0,3.9-2.12,4.92-5.08,1.16-5.84.37-6-6.19a42.78,42.78,0,0,0-2.39-15.88,22.22,22.22,0,0,0-9.06-12.49c-3.68-2.44-8-2.3-12-.92-5.5,1.87-11.4,1.61-16.86,3.63-2.27.83-4.62,0-6.91-1.08-13.47-6.3-26.91-12.67-40.55-18.59-8.8-3.82-17-8.55-23.19-16.46-2.32-3-5.38-5.58-8.07-8.41-5.51-5.82-6.39-12.93-5.93-20.37.2-3.13,2.14-4.14,5.63-3.71a4.48,4.48,0,0,1,1.18,3.5c-.58,5.09,1.58,9.65,2.62,14.42.78,3.59,2.93,4.58,6.27,3.25a17.16,17.16,0,0,1,10-.92c2.86.61,5.74,1.05,8.41-.79a3.69,3.69,0,0,1,2.19-.46c12.45.13,25-.43,37.32,1.38,9.85,1.44,19.68,3,29.47,4.85a114.25,114.25,0,0,1,19.47,5.9c2.63,1,5,1.5,6.57-1.95.92-2,3.11-3.26,4.65-4.92a24.77,24.77,0,0,0,2.42-2.15c1.28-1.73,4.76-2.2,4.48-4.12-.32-2.28-3.63-1.14-5.53-2C278.64,223.24,264.54,219,251.64,212a4.31,4.31,0,0,0-2.12-.77c-7.63.31-14.13-3.44-21-5.8-1.65-.16-3.07-2-4.93-.65a3.12,3.12,0,0,1-2.41.74c-12.55-4-25.53-4.25-38.49-4.19a52.49,52.49,0,0,0-21,4.5c-2.9,1.29-5.33,4.9-6.57,8.32-4.34,12-9,24-11,36.7-.69,4.35,2.8,13.13,7.14,15.25,7,3.44,13.06,8.61,20.33,11.54,15.92,6.41,29.45,16.8,43.81,25.84,6.27,3.95,12,8.82,18.82,11.87a12.77,12.77,0,0,0,4.7,1.28c1.54.23,3.18.54,3.28,2.46.08,1.68-1.38,2.18-2.69,2.72s-2.44,1.74-3.93,2.16c-1.65.47-3,.22-3.87-1.35-.18-.6-.15-1.38-.75-1.68-3.87-1.89-7.05-5-11-6.66a15.12,15.12,0,0,1-5.88-3.93c-2.14-2.59-5.48-3.07-8-4.9-7.89-5.7-16.84-9.82-24.41-15.87s-16.84-8.57-24.82-13.66c-3.28-2.09-6.67-4.11-10.16-5.88-8.56-4.33-17.24-8.11-27-9.38a94.31,94.31,0,0,1-14-3.07c-3.77-1.09-7.79-.51-11.64-1.17a54.66,54.66,0,0,0-21.76,1.1c-9.72,2.28-17.77,7.75-22.19,17.28-1.07,2.31-2,4.62-3.9,6.43a2.88,2.88,0,0,0-1,1.59c-.6,4.74-3.58,8.67-4.73,13.07-1.68,6.44-4.89,12.17-7,18.39-1.29,3.9-.83,7.58.24,11.48C35.34,331.4,38.4,336.39,40,342A15.25,15.25,0,0,0,44.25,349c3.81,3.56,5.52,8.75,9.37,12.3,9.88,9.11,17.12,20.52,26.29,30.21a163,163,0,0,0,17.54,16.6,10.84,10.84,0,0,1,4,9c-.46,1.46-.6,3.16-2.53,3.58a3.61,3.61,0,0,1-4.11-3.13c-.68-4-3.44-6.08-6.15-8.64-6-5.71-12.2-11.27-17.2-18.06a109.16,109.16,0,0,0-14.16-15.19c-4.36-4-9.78-7-13.41-11.48-5.81-7.15-13.9-12.18-18.59-20.14a35.58,35.58,0,0,1-4.81-16.54c-.09-2.17.7-4.36,3.7-4.19a3.31,3.31,0,0,1,2,3c-.09,7.41,3.91,13.05,7.93,18.69a25.92,25.92,0,0,0,2.3,2.68s0,.15.15,0c-.17-.16-.34-.32-.54-.49-.78-.72-1.25-1.68-2-2.42-6.41-7.51-7.41-16.84-8.66-26.07-.24-1.77.48-3.48,1-5.16a36.06,36.06,0,0,1,2.52-5.56c1-.88.68-2.05.69-3.15s-.35-2.3-1.28-1c-4.2,6.09-9.55,11.84-9.8,19.7-.46,14.61-1.25,29.22-.38,43.84a72.51,72.51,0,0,1-.19,9.45c-.49,7,1.39,13.75,2.27,20.56a30.46,30.46,0,0,0,6.6,15.77,163.21,163.21,0,0,0,27.88,26.53,32.72,32.72,0,0,1,4.88,4.74c5.1,5.87,12.3,7.37,19.22,9.72-3-5.68-8.25-9.16-12.77-13.26-2.54-2.3-4.69-4.93-7-7.39-1.38-1.44-2.52-3.14-1-5s3.7-1.75,5.49-.54c3.77,2.54,7.64,5.14,10.36,8.76,4.25,5.66,8.94,10.92,13.6,16.21,8.35,9.49,15.45,19.94,23.38,29.76a8.06,8.06,0,0,0,1.24,1.43c7.09,5.63,11.41,13.77,18,19.89,4.24,3.94,8.14,8.23,12.25,12.31a26.7,26.7,0,0,1,3.87,4.65c4.76,7.63,11.46,13.44,18.47,18.72,9.65,7.26,18.89,15.18,29.68,20.82a99.08,99.08,0,0,0,13.82,6c13.14,4.45,25.87,10.19,39.51,13.17,10.44,2.28,20.67,5.45,31.46,6.18,7.79.52,15.62.9,23.37,2a68.9,68.9,0,0,0,12.1.2c7.56-.23,15.17.8,22.66-.23,7-1,14-.28,21-1.88,11.42-2.62,23.38-2.73,34.46-6.93,7.52-2.85,15.34-5,22.3-9.21,2.41-1.44,5.24-1.36,7.8-2.64,3.59-1.79,6.94-4.09,10.73-5.48a6.5,6.5,0,0,0,2-1c8.1-6.86,18-11.5,25.31-19.19,4.21-4.4,9.86-6.92,13.61-11.85,2.53-3.31,5.29-6.4,7-10.26,1.28-2.87,3.74-4.9,5.2-7.79,1.84-3.65,2.41-7.36,2.93-11.2.27-2,.27-4.06,2-5.53,2.71-1.2,4.22,0,4.41,2.63C496.11,499.89,496.72,502.15,496,504.4Z" transform="translate(-11.13 -193.46)"/><path d="M608.19,374.68c-4,5.07-8.87,9.3-13.19,14-3.17,3.49-7.22,5.71-10.5,9-2,2-1.28,2.79.34,3.94.92.65,1.94,1.15,2.9,1.74,6.4,3.92,6.76,7,1.76,12.75a21.64,21.64,0,0,0-3.63,5c-1.41,2.93-4.85,4.43-7.73,5.36-7.28,2.33-13.86,6.57-21.48,7.82-10.44,1.71-20.33,5.68-31,6.63-8,.71-16,1.83-24.08,2.45-3.57.27-7.2-.27-10.8-.45-2.66,1-4.25-.69-4.18-2.72.23-5.76-4.37-6.19-7.9-7.72-1.52-.66-3-1.12-4.07-2.5a3.65,3.65,0,0,1-.46-1,2.76,2.76,0,0,1,1.88-3.17c19.33,2.05,37.66-2.86,55.91-8.18a142.21,142.21,0,0,0,23.72-8.78c8.09-4,16.08-8.41,23.27-14,7.43-5.8,13.59-13,21-18.82,1.39-1.09,2.48-2.54,4.15-3.27C607.71,371.33,608,371.48,608.19,374.68Z" transform="translate(-11.13 -193.46)"/><path class="cls-1" d="M608.19,374.68c-.53-3.58-2.3-1.84-3.89-.91-1-1.2-.51-2.42.09-3.52,5-9.26,4.42-19.3,4.78-29.39.29-8.1-2.47-15.63-2.73-23.56-.08-2.68-1.63-5.24-3.35-7.49-.8-1.05-2.16-1.86-1.79-3.52,1.16-.7,3,.24,3.72-1.52a27.55,27.55,0,0,1,8.06,14,92,92,0,0,1,2.78,17.6C616.32,349.7,618.33,363.44,608.19,374.68Z" transform="translate(-11.13 -193.46)"/><path class="cls-1" d="M474.48,429.32c3.31,1.46,6.64,2.86,9.91,4.41,1.62.76,3.6,1,2.73,4.09a3.89,3.89,0,0,0,3.64,5.06c1.45,4.93,3.9,9.57,4.69,14.68a142.06,142.06,0,0,1,1.91,26.88c-.24,6.68.47,13.39-1.37,20-.29-2.21-.66-4.42-.84-6.63-.23-2.86-1.67-3-3.81-1.9-1.74-3.17-1-6.66-.83-9.9.45-7.78.63-15.5-.75-23.2a9.37,9.37,0,0,1-.08-3c.11-1.43,1.29-3-.55-4.18-1.54-2.13-1.3-4.79-2.16-7.15-2.23-6.12-7.38-10.07-10.85-15.25C475.31,432,473.78,431.14,474.48,429.32Z" transform="translate(-11.13 -193.46)"/><path class="cls-2" d="M347.25,198.63a3.94,3.94,0,0,1-3.67,1.56C344.62,199.25,345.71,198.41,347.25,198.63Z" transform="translate(-11.13 -193.46)"/><path class="cls-3" d="M140.37,260.52c.92.48,2,.8,2.18,2.6l-2.35-1.5Z" transform="translate(-11.13 -193.46)"/><path class="cls-4" d="M490.35,458.78c2.51,12.3,1.47,24.7,1,37.09A47.93,47.93,0,0,0,489.85,508c0,.36.06.92-.14,1.06-3.18,2.28-3.16,6.55-6.13,9.22-2.79,2.51-3.71,6.73-6.36,9.75a74.73,74.73,0,0,1-11.48,10.57c-3.87,2.9-7.17,6.56-11,9.55-6,4.69-12.52,8.81-18.74,13.25-3.32,2.36-7.59,3.92-11.15,6.06-4.49,2.69-10.1,2.41-14.11,6.29-1.38,1.33-4.39.84-6.53,1.93-11.08,5.64-23.16,7.86-35.27,9.73-5.2.8-10.41,1.29-15.5,2.8a9.24,9.24,0,0,1-6.63,0,4.52,4.52,0,0,0-2.57-.28c-8.09,1.64-16.21,1.11-24.39,1-6.73,0-13.47.34-20.19-.32-10.23-1-20.47-1.89-30.7-2.87-5.26-.51-9.81-2.75-14.85-3.51-8.45-1.27-16.4-4.48-24.57-6.81-6.57-1.87-12.78-4.82-19.21-7.11-9.18-3.26-18.23-7-26.2-12.86-7.25-5.32-14.85-10.2-21.73-16a94.72,94.72,0,0,1-16.68-17.35c-5.39-7.5-12.8-13.54-19.08-20.44-7.08-7.8-14-15.73-20.76-23.85-4.92-6-9-12.63-14.12-18.4-4.59-5.17-9.3-10.28-13.51-15.72-3.75-4.84-7.6-9.39-12.54-13a29,29,0,0,0-3.28-2.53,3.63,3.63,0,0,0-4.11.6c-1.09,1.16-.11,2.63.91,3.66,4.84,4.88,9.73,9.68,14.93,14.22,2.75,2.39,5.73,5.39,7.32,9.86-5.78-1.95-10.85-3.91-15.93-5.76-2.68-1-5.24-3.56-7-5.82-4.58-5.76-11-9.12-16.25-14.07-5.82-5.54-11.16-11.43-16.47-17.44-4.52-5.11-6-11.18-6.71-17.48S16.6,383.62,17,377.11c.67-12.71-.74-25.44.35-38.21.38-4.42.11-9.06.11-13.6,0-6,2.39-11.11,5.81-15.79A20.29,20.29,0,0,0,26,305.07a4.7,4.7,0,0,1,5.29-3.27c.79,1.62-1.69,2.19-1.1,3.66-.49.94.44,2.32-.91,3l-1.88,4.82c-2.07,1.57-1.53,4-1.91,6.08-.29,1.56,0,3.26-1.31,4.51-2.65-.53-2.65,1.71-2.74,3.09-.29,4.08,1.47,7.77,2.57,11.62,2.16,7.54,7.92,12.43,13.21,17.18s9.69,10.08,15.42,14.44a103.91,103.91,0,0,1,22.66,24.07c3,4.39,7.47,7.77,11.36,11.52a46.26,46.26,0,0,0,6.17,5.4,6.94,6.94,0,0,1,2.65,5.52c.09,1.78.62,3.23,2.72,3.43a36.78,36.78,0,0,1,5,11.52c.71,2.72,1.93,4.38,4.73,5.16,3.25.91,6.35,2.27,9.63,3.2a13.19,13.19,0,0,0,10.14-1,5,5,0,0,0,3.24-1.5,31,31,0,0,0,11.17-18.16,54.34,54.34,0,0,0-.16-18.29,12.44,12.44,0,0,1-.23-3.75,8.77,8.77,0,0,0-2.18-7.32c-2.12-2.39-2.76-5.62-4.34-8.33-1-1.79-.15-2.93,1.57-3.41,4.23-1.15,8.11-3.44,12.56-3.84A4.53,4.53,0,0,0,152,373.1c2-1.89,5.56-1.76,6.47-5,1.45-2.19,4.12-2.43,6.09-3.8.39-.34.79-.66,1.19-1,1.66-1.26,3.67-1.86,5.45-2.89a8.47,8.47,0,0,0,2.78-1.28c13.34-8.55,26.76-17,41-23.91,11.39-6,22.21-13.07,34.4-17.44a5.57,5.57,0,0,1,1,0A2.53,2.53,0,0,0,253,317a9.34,9.34,0,0,1,2.06-1.53A62.69,62.69,0,0,0,266,310.33c4.44-2.53,8-.91,12,1.07,5.7,2.81,9.47,7.79,14.17,11.71,9.77,8.16,19.35,16.53,28.85,25,2,1.77,3.65,3.84,5.58,5.66.92.85,1.8,1.85,1.14,3.3-1.69.92-3.15-.17-4.69-.54-2.88-.7-4,.44-3.33,3.29a7.08,7.08,0,0,0,2,3.1c3.17,3.31,7.31,4.82,11.45,6.33,1.44.52,2.71-.08,3.93-.81a5.15,5.15,0,0,1,5-.2,14.88,14.88,0,0,1,5,3.61c5.17,4.9,11.22,8.53,17.31,12.1,1.83,1.08,4,1.69,5.22,3.61a1.5,1.5,0,0,1-.84,1.83c-2.44.53-4.4-1.94-6.92-1.08-1,.35-2.47-.08-2.83,1.34s.77,2.07,1.63,2.76a26.94,26.94,0,0,0,12.74,5.26,2.42,2.42,0,0,0,2.47-.52c.8-1.08-.14-1.86-.74-2.63s-1.29-1.59-.66-2.71a2.62,2.62,0,0,1,1.51-.61c5.81,2.44,11.79,4.46,17.6,6.92A96.77,96.77,0,0,1,409,404.54c.51.6.92,1.22.47,2-1.24,1-2.87.88-4.27,1.43-2.19.85-2.15,2.32-.42,3.22a24.71,24.71,0,0,0,14.32,2.35,2.57,2.57,0,0,0,2.13-2c.67-2.9,2.55-2.44,4.69-2,15,2.9,29,8.56,42.66,15.26,1.46,2.17,4.68,2,5.92,4.47h0c2.54,3.3,4.8,6.88,7.69,9.84a24.43,24.43,0,0,1,6.92,14.46,9,9,0,0,0,.78,2.05A4.73,4.73,0,0,1,490.35,458.78Z" transform="translate(-11.13 -193.46)"/><path class="cls-5" d="M601.3,306.29c5.64,5,6.91,11.68,7,18.84,0,2.06,1.05,4.09,1.35,6.17,1.19,8.22-.26,16.5.39,24.73.43,5.39-3.54,9.31-4.58,14.2a32.58,32.58,0,0,1-1.17,3.54c-3.45,3.45-7.32,6.51-11,9.6-7.42,6.21-13.71,13.83-22.86,18.11-3.57,1.67-7.62,3.43-10.51,5.94-4.08,3.52-9.14,4.28-13.58,6.45-4.83,2.37-10.55,3.26-15.7,5.33-7,2.81-14.6,3-21.68,5.58-2.5.91-5.56.89-8.37,1.23-4.48.54-9,1-13.49,1.2-1,.05-1.88-.23-2.61.76-.48.66-1.7.94-2,.54-1.74-2.13-4.53-1-6.48-2.32a17,17,0,0,1-2.77-1.75,5.23,5.23,0,0,1-.69-.64c-.76-1.24-2.07-1.29-3.3-1.53-8.86-3.86-17.62-7.94-26.95-10.62-5.42-1.56-10.83-3.17-16.33-4.44-1.2-.27-2.57-.24-3.09-1.73.42-1.7,2.05-1.53,3.22-2.07,2.49-.54,5-.27,7.54-.36,2.11-.08,4.28.3,6.26-.93,2.6-1.62,0-3.67.47-5.3,1.5-5.27-1.74-8.24-4.93-11.37a5.82,5.82,0,0,0-4.77-1.71c-6.17.39-12.36.25-18.53.11a10,10,0,0,0-10.61,9.46c-.15,2.08-.5,3.51-3,3.19-1.26-.3-2.53-.53-3.81-.71a7.78,7.78,0,0,1-1.08-.28c-5.16-1.27-9.92-3.64-14.88-5.42-3.95-1.42-7.23-4.06-10.4-6.78-1.22-8.11-8-10-14.15-12.6-1.21-1.08-2.67-.84-4.11-.74a4.37,4.37,0,0,1-1-.24c-5.38-4.51-11-8.88-15.7-14-6.57-7.26-14.54-12.81-21.54-19.5s-15.15-12.14-21.73-19.33c-1-1.05-2.49-1.87-2-3.73,1.21-8.75.64-17.41-2.69-25.57a23,23,0,0,0-9-10.43c-3.69-2.48-7.45-3.19-12-3.92,3.76-3.4,8.24-5.06,11.15-8.67.38-.47,1.24-.7,1.38-1.18,2.49-8.73,9.89-13.53,15.65-19.6,6.6-7,14.51-12.37,21.89-18.4,8.26-6.76,17.67-11.77,26.48-17.66,4.14-2.76,8.48-5.25,12.38-8.38,3-2.43,5.74-1,8.43.71,6.63,4.19,11.39,10.44,17.13,15.62,4.1,3.7,8.79,6.89,12.33,11.06,4.09,4.82,10.39,6.37,14.51,11.1,1.39,1.59,4.26,2.33,6.38,3.61,8.09,4.86,15.25,11.26,24,15a129.27,129.27,0,0,0,22.59,7.83,3,3,0,0,1,.75.1c8,4.07,17,1.75,25.24,3.83,10.67,2.69,21.77,1.89,32.39,4.63,8.8,2.27,17.6,4.56,26.42,6.77,6.07,1.52,12.2,2.84,18.24,4.46,1.86.5,4.09,1.24,5.17,2.64,2.81,3.62,6.93,4.68,10.71,6.38,7.37,3.32,14.63,6.84,20.73,12.19C599.55,306.24,600.37,306,601.3,306.29Z" transform="translate(-11.13 -193.46)"/><path class="cls-4" d="M100.74,417c-1-3.33-1-6.9-5.32-8.77-3-1.32-5.07-4.74-7.43-7.28-3.59-3.86-8.28-6.59-11.16-11.16-3.78-6-9.43-10.47-13.4-16.3a61.72,61.72,0,0,0-7.58-8.56c-2.93-2.94-6.29-5.41-7.83-9.62-.72-2-2.53-3.68-4.17-5.16-3.37-3.07-4.71-6.84-5.68-11.22-.48-2.18-2.72-4.36-3.32-6.8-1-3.93-3.1-7.49-3.18-11.71-.09-5.09,2.09-9.39,4-13.8a63.32,63.32,0,0,0,3.41-10.52c.8-3.26,3-6.16,4.07-9.38A62.4,62.4,0,0,1,54,267.34c6.11-7.43,14.42-10.82,24-11.9,7.83-.88,15.52-.08,23.28.51a46.83,46.83,0,0,1,7.57,1.55c7.14,1.73,14.5,2.35,21.59,4.63A97.76,97.76,0,0,1,151,271.18c5,3,9.89,6.37,15.3,8.49,7.57,3,13.81,8,20.62,12.12,5.94,3.6,11.89,7.25,17.6,11.15,4.1,2.79,8.46,5.28,12.47,8.31,4.46,3.35,9.38,6.72,14.82,8.73,2.18.8,1.52,1.42.25,2.35a2.59,2.59,0,0,1-2.41,1.42c-4.8-1.78-10-2.76-13.66-6.83a2.49,2.49,0,0,0-.6-.47c-13.44-7.8-25.24-18.28-39.73-24.42a31.75,31.75,0,0,1-7.59-4.95c-4.54-3.74-10.37-5-15.4-7.91-9.79-5.61-20.64-8.67-31.28-12.22-3.36-1.12-6.92-1.32-10.38-1.94s-6.74-1.11-9.86-2.54-6.24-.5-9.33-1a38.19,38.19,0,0,0-15,.4c-3.51.88-6.68,2.22-9.12,5a13.13,13.13,0,0,1-4.35,3c-9.25,4.35-12.14,9.26-11.45,19.49,0,.37.2.79.09,1.12-2.85,8.83,2.61,15.09,6.81,21.66,3.19,5,6.62,9.85,9.75,14.88,4.71,7.58,11.46,13.41,17.18,20.13a25.69,25.69,0,0,1,3.71,4.77c2.47,4.92,6,9.08,9.74,13,4.24,4.5,8.13,9.25,12,14,1.6,2,3.69,2,5.87,1.59a48.77,48.77,0,0,1,7.9-.91,8.61,8.61,0,0,1,8.79,5.38c4.57,10.35,7.06,21,4.18,32.36a9.72,9.72,0,0,0-.27,2.63c.15,7-3,11.83-9.38,14.59-3.67,1.59-7,4.06-11.37,3.74-2-.14-3.86-.51-5.23-1.87-3.39-3.37-7.23-6.55-8.3-11.49C102.75,422.19,100.11,420.14,100.74,417Z" transform="translate(-11.13 -193.46)"/><path class="cls-5" d="M238.71,317.61c-5.48-.5-9.69-3.83-14.06-6.59-7.36-4.64-14.19-10.09-21.72-14.5-5.18-3-10-6.64-15.25-9.61-4.73-2.69-9.35-5.52-14.64-7.3a43.25,43.25,0,0,1-11.72-6.46,38.79,38.79,0,0,0-8.68-4.87c-4.15-1.67-5.56-5.47-8-8.61-3.82-5-1.09-9.93-.42-14.81.55-4,2.53-7.86,3-11.88.7-5.5,4.49-9.69,5.42-15.1a16.73,16.73,0,0,1,6.53-10.58c3.55-2.79,4-3.49,9.49-4.86,9.61-2.37,19.25-2.39,29-1.66,8,.59,16,.93,23.51,3.93a10,10,0,0,0,6-.22,1.35,1.35,0,0,1,1,0c2.82,1,5.66,1.86,8.43,3,3.48,1.38,6.94,2.85,10.78,2.5s6.49,2.37,9.61,3.73c7.37,3.22,14.71,6.48,22.29,9.21,4.68,1.69,9.15,3.93,13.73,5.89.79.34,1.77.92,2.44.7,2-.64,3.5.05,3.9,1.8.34,1.45-1.7,1.75-2.59,2.65a28.28,28.28,0,0,1-3.43,2.59,9.41,9.41,0,0,0-2-1.57c-7.85-2.54-14.57-7.67-22.46-10-13.19-3.92-25.78-9.5-38.85-13.77-7.62-2.48-15.18-3.28-22.94-4-4.9-.46-9.75-1.4-14.65-1.91a62.9,62.9,0,0,0-19.22.65c-4.9,1-9,3.15-11.06,8-3.31-.51-4.68,1.31-4.81,4.26A31.83,31.83,0,0,0,160.71,234a21.47,21.47,0,0,0,7,7.69c3.92,2.56,5.57,6.89,9.23,9.57a113.54,113.54,0,0,0,19.49,11.33c7.83,3.63,16,6.59,23.6,10.69,3.95,2.11,8.31,3.67,12.45,5.55,2.69,1.22,5,3.47,8.37,2.49.23-.07.55.11.75,0,4.79-2.23,10.28-1.58,15-3.3,7-2.54,12.58-1.66,17.92,3.46,3,2.83,4.3,6.13,5.53,9.92,1.64,5.09,3.28,10,2.63,15.46-.76,1,.48,3-1,3.16a4.25,4.25,0,0,1-4.5-2.53c.93-6.7.33-13.05-4.09-18.58a10.86,10.86,0,0,0-9.45-4.4c-14.13.46-22.89,14.1-17.19,26.94a15.91,15.91,0,0,1,.8,2.12,4.49,4.49,0,0,1-5.65,4.07C240.59,317.45,239.69,317.05,238.71,317.61Z" transform="translate(-11.13 -193.46)"/><path class="cls-6" d="M162.19,213.93c.8-5.05,4.91-8.33,11-9.31,10.54-1.69,20.93-.3,31.35,1.09,4.62.61,9.28,1,13.93,1.21,3.65.2,6.88,1.47,10.21,2.81a105.48,105.48,0,0,0,13.86,4.56c6.61,1.65,12.38,5.4,19,7.14,5.18,1.37,10.55,2.62,15.12,5.46,5.08,3.15,10.71,4.92,16,7.42,1.27,1.95-1.91,2.27-1.43,3.92-1.6,2.9-5.1,4.18-6.07,7.9-.41,1.56-3.66.47-5.46-.12-3.52-1.14-6.94-2.55-10.37-3.94-5-2-10.34-2.37-15.5-3.39-9.72-1.93-19.59-3.13-29.43-4.29a147.24,147.24,0,0,0-17.69-.95c-4.71,0-10.15-1.22-13.95.34-5.22,2.15-9.7.44-14.48.63a14.24,14.24,0,0,0-7.09,2.16c-1.54,1-2.57,1.43-4-1C163.05,228.8,162.67,221.4,162.19,213.93Z" transform="translate(-11.13 -193.46)"/><path class="cls-7" d="M197.58,238c12.88-.06,25.11,0,37.19,1.66,9,1.26,18.09,2.26,26.94,4.69a27.61,27.61,0,0,0,7.24,1.12c4.39,0,6.49,3.12,9.15,5.6.32.31.89.84.41,1.28-2.91,2.64-3.42,7.61-7.45,8.88-4.72,1.48-7.67,5.11-11.24,7.94-2.62,2.08-5,4.14-8.56,4s-6.14,2-9.07,3.4c-1.05.49-1.65.88-3,.12-6.21-3.56-13.17-5.58-19.54-8.74-12.31-6.11-26.41-8.82-36.69-18.91-.76-.75-2.07-.93-2.9-1.63-2.83-2.37-2.48-3.91.83-5.37A50.84,50.84,0,0,1,197.58,238Z" transform="translate(-11.13 -193.46)"/><path d="M100.74,417c1.93,4.22,3.64,8.56,5.88,12.61,1,1.86,2.86,3.27,4.19,5.08a7,7,0,0,0,7.62,2.65c5.75-1.42,11.1-3.59,15.29-8A10.43,10.43,0,0,0,136.4,423c.68-6.82,2.34-13.56,1.55-20.47a49.41,49.41,0,0,0-6.11-18.59c-1.79-3.2-4.8-3.81-8.13-3.37-2.45.33-4.86.92-7.31,1.2-3,.34-4.9-.78-7.11-3.32-3.1-3.56-5.42-7.73-9.08-10.93A44.54,44.54,0,0,1,90,354.71c-3.47-6.64-9.31-11.3-14.09-16.84a114.88,114.88,0,0,1-11.25-15.45,145.93,145.93,0,0,0-8.54-12.22c-3.34-4.39-7.24-10-6.27-14.66,1.31-6.26-.87-13.1,2.91-18.77a19.41,19.41,0,0,1,10.07-7.72c2.46.62,3,2.31.8,3.79-3.7,2.44-5,6.09-6.38,9.82-.13.54.16.5.55.33a20.35,20.35,0,0,1,8-3.29,9.68,9.68,0,0,1,1.61-.18c8.26.52,16.8-.65,24.7,1.93,5.11,1.66,10.79,1.26,15.47,4.75,2.92,2.18,7,2.08,10.54,2.74,4.62.85,9.15,1.85,13,4.53,4.08,2.8,9,3,13.43,4.64a138.66,138.66,0,0,1,23.91,11c6.9,4.1,14.11,7.83,21.91,10.07,2.57.74,4.9,2,7.39,2.9a75.31,75.31,0,0,0,15.69,4,4.49,4.49,0,0,1,3.19,1.82c1.86,2.89,1.08,5.34-1.25,7.53a6.55,6.55,0,0,1-6.58-.47c-10.39-4.83-20.79-9.63-31.39-14-8.72-3.61-16.62-9.16-25.33-12.67-10.62-4.28-21-9.75-32.86-10.29-12.88-1.9-25.47-5.95-38.71-5-7.88.55-15.83.25-23.59,2-2.66,1.49-1,3.39-.21,4.84,5.15,9.66,11.29,18.69,17.53,27.69,4.62,6.68,10.41,12.27,15.7,18.32,1.78,2,4.32,3.41,5.36,6.12a157.26,157.26,0,0,1,11.39,14.58,18.09,18.09,0,0,0,5.62,5.5c.44.25,1,.48,1.17.93,1.16,4.58,4.49,3.44,7.57,2.87,1.23-.22,2.53-1,3.69-.6,6.55,2.27,11.33-1.65,16.32-4.59a17,17,0,0,1,8.57-2.57c1.84-.19,3.42-1.38,5.3-1.37,1.58,0,3.26-.17,4,1.74-.46,2.31-1.48,4-4.2,3.92-1.15-.06-1.65,1-2.52,1.38a23.41,23.41,0,0,1-2.52,1.35c-4.21,1.32-8.36,2.85-12.64,3.88-2.59.62-1.94,1.5-.86,2.89,2.44,3.12,2.68,7.55,6.17,10.12,1.12.82.16,2.36.17,3.56.09,6.41.3,12.88.62,19.21.33,6.83-3.24,10.92-5.78,16.17-1.61,3.34-3.26,5.73-6.38,7.34-.8.88-2.21.54-3,1.46-5.89,4.12-11.42.78-17.17-.58s-8.86-4.35-9.67-10.36c-.39-2.95-2.87-5.48-3.08-8.69C100.43,420.2,99.61,417.83,100.74,417Z" transform="translate(-11.13 -193.46)"/><path class="cls-8" d="M277.52,307.08c2.75,2.73,4.18,2.68,5.16-.2,0,.49.12,1,.13,1.47.11,5.46.1,5.46,5.33,4.79a114.58,114.58,0,0,0,18.36,16.92,60.59,60.59,0,0,1,7.6,6.6c5.55,5.68,12.55,9.72,17.61,15.86,3.77,4.57,8.82,7.65,13,11.69,1.58,1.55,3.76,2.92,4.87,5.07a3.57,3.57,0,0,1-1.24,3.45,2.73,2.73,0,0,1-2-.41,14.43,14.43,0,0,0-4.35-3.11c-1.5-1.81-4.16-1.08-5.79-2.62-3.36-2.74-5.8-6.32-8.68-9.5-1.11-4-4.83-5.91-7.47-8.48-6.67-6.5-13.89-12.47-21.13-18.36-3.6-2.93-6.61-6.6-10.84-8.77a5.41,5.41,0,0,1-1.65-1.93c-3.6-5.4-9.36-7.75-15-9.8-2.51-.91-5.37,1.54-7.85,2.9a33.18,33.18,0,0,1-8.57,3.58c-2-.14-1.75-1.2-1.06-2.47,5.15-1.3,7.87-6.45,12.82-8.12,1.15-.38,2-1.42,3.22-1.83.94-.19,1.59.59,2.43.74a10.2,10.2,0,0,1,1.4.51C274.93,305.94,276.8,305.47,277.52,307.08Z" transform="translate(-11.13 -193.46)"/><path class="cls-1" d="M215.29,335.12c1-2.19,2.43-4.32.74-6.8.72-.62,1.55-.28,2.35-.3a3.5,3.5,0,0,0,3-1.06c2.8-1.32,5.14-3.68,8.48-3.78l2.19-.85c1.79,2.22,3.55.57,5.17-.2.69-.33,1.09-1.29,2.06-1.4,1.14-.12,2.48-.32,2.23-1.82s-1.73-1.09-2.78-1.3c2.48-.73,5.21-.29,7.54-2,1-.75.41-1.18.31-1.8,3,.12,4.09,1.71,3.63,4.56-4.94,2.27-9.84,4.75-14.81,6.8-7.12,2.95-12.78,8.35-20,10.88a.63.63,0,0,1-.24-.62C215.17,335.23,215.23,335.12,215.29,335.12Z" transform="translate(-11.13 -193.46)"/><path class="cls-9" d="M24.19,323.87c-.63-2.89,1.55-5.45.95-8.43-.21-1,1.08-1.87,2.27-2.16-1.84,9.61.12,18.54,4.86,27,.86,1.51,1.79,3,2.69,4.47.23,1-.28,1.28-1.17,1.16-4.41-5.61-9-11.14-8.37-19A5.2,5.2,0,0,0,24.19,323.87Z" transform="translate(-11.13 -193.46)"/><path class="cls-3" d="M363.18,605.1a6.49,6.49,0,0,1-6.84,0c-.41-.28-.41-.57,0-.85,2.22-.43,4.43-.93,6.7-.31A.83.83,0,0,1,363.18,605.1Z" transform="translate(-11.13 -193.46)"/><path class="cls-10" d="M366.08,603.92c.58-1.15,1.76-.62,2.64-.91a1.31,1.31,0,0,1,1.84,1.26c0,1.09-1,.81-1.69.85-.89,0-1.78,0-2.67,0A.79.79,0,0,1,366.08,603.92Z" transform="translate(-11.13 -193.46)"/><path class="cls-11" d="M383.8,602.13c-.76-.37-2.24.53-2.08-.72.13-.93,1.55-1.52,2.79-1.29.77.14,2.18-.31,2,.9C386.33,602.52,384.73,601.84,383.8,602.13Z" transform="translate(-11.13 -193.46)"/><path class="cls-12" d="M227.49,204.69c-2.06,3-4.14,0-6.21,0,.81-.09,1.7.08,2.33-.65C225,203.56,226.23,204.24,227.49,204.69Z" transform="translate(-11.13 -193.46)"/><path class="cls-13" d="M74.11,461.05c1.87-.25,3-.1,4.17,1.09A3.38,3.38,0,0,1,74.11,461.05Z" transform="translate(-11.13 -193.46)"/><path class="cls-14" d="M291.21,238.23c-1.25-1.93,1.89-2.27,1.43-3.92,1,.49.67,1.42.77,2.21C292.7,237.12,292.29,238.11,291.21,238.23Z" transform="translate(-11.13 -193.46)"/><path class="cls-15" d="M227.49,204.69a8.45,8.45,0,0,1-3.88-.63c1.78-2.36,3.09.33,4.64.43Z" transform="translate(-11.13 -193.46)"/><path class="cls-16" d="M356.34,604.23v.85c-1.17.78-2.38,1.16-3.67.3a.71.71,0,0,1-.08-.67C353.72,603.75,355.08,604.35,356.34,604.23Z" transform="translate(-11.13 -193.46)"/><path class="cls-17" d="M415.7,576.43a2.42,2.42,0,0,1,2.53-1.83,1.31,1.31,0,0,1,.22.94C417.87,576.82,416.59,576,415.7,576.43Z" transform="translate(-11.13 -193.46)"/><path class="cls-18" d="M476.11,546.54c0,.51-.05,1.06-.6,1.18-.71.15-.81-.51-.77-1s.28-1,.58-1.14C476,545.41,476,546.1,476.11,546.54Z" transform="translate(-11.13 -193.46)"/><path class="cls-11" d="M366.08,603.92l.12,1.16a4.54,4.54,0,0,1-3,0l-.14-1.18A3.82,3.82,0,0,1,366.08,603.92Z" transform="translate(-11.13 -193.46)"/><path class="cls-19" d="M457,552.89c.34-1.63,1-2.19,2.31-2.21C459.18,552.17,458,552.08,457,552.89Z" transform="translate(-11.13 -193.46)"/><path class="cls-1" d="M178.33,559.11A2.24,2.24,0,0,1,176,557C177.36,557.21,177.77,558.26,178.33,559.11Z" transform="translate(-11.13 -193.46)"/><path class="cls-20" d="M33.79,345.88,35,344.72l1.41,2.51c.21.17.28.32.18.46a.33.33,0,0,1-.26.19C35.11,347.65,34.5,346.7,33.79,345.88Z" transform="translate(-11.13 -193.46)"/><path class="cls-8" d="M29.29,308.46c.45-1-.19-2.25.91-3C31,306.78,31.25,308,29.29,308.46Z" transform="translate(-11.13 -193.46)"/><path class="cls-15" d="M82.05,462.69c.5,0,1.06.1,1,.76,0,.2-.53.51-.8.49a1.1,1.1,0,0,1-.81-.55C81.26,463,81.65,462.77,82.05,462.69Z" transform="translate(-11.13 -193.46)"/><path class="cls-21" d="M306.48,601.7c.69,0,1,.35,1.1.84,0,.23-.49.74-.55.71a3.13,3.13,0,0,1-1.06-.81C305.91,602.37,306.32,601.92,306.48,601.7Z" transform="translate(-11.13 -193.46)"/><path class="cls-8" d="M36.29,347.88a1.79,1.79,0,0,1,.08-.65A3.49,3.49,0,0,1,38.14,350C36.78,349.72,36.82,348.56,36.29,347.88Z" transform="translate(-11.13 -193.46)"/><path class="cls-7" d="M468.92,542.42c.44,1.12.6,2.32-.47,2.34-1.36,0-.42-.9-.16-1.43A7.63,7.63,0,0,1,468.92,542.42Z" transform="translate(-11.13 -193.46)"/><path class="cls-22" d="M400.8,581.8a2.71,2.71,0,0,1-.94.37c-.42,0-.69-.35-.36-.71a1.81,1.81,0,0,1,1-.35C400.54,581.1,400.66,581.49,400.8,581.8Z" transform="translate(-11.13 -193.46)"/><path class="cls-23" d="M473.19,423.77a3.31,3.31,0,0,1,2.81,2.42,6.34,6.34,0,0,0-1.54,3.12c-2.12-1.11-4.85-1.28-6-3.88C469.75,424.1,471.81,424.9,473.19,423.77Z" transform="translate(-11.13 -193.46)"/><path class="cls-24" d="M535.46,422.27c1.52.32,2.81-1.63,4.41-.15.18.17,0,.71,0,1.08h-4.5Z" transform="translate(-11.13 -193.46)"/><path class="cls-25" d="M490.35,458.78c-1.06-.9-.44-2-.48-3.11C491.66,456.46,491.6,457.53,490.35,458.78Z" transform="translate(-11.13 -193.46)"/><path d="M473.19,423.77c-.48,3.71-3.18,1.07-4.75,1.66-3.86-.56-7-2.93-10.52-4.39a204.06,204.06,0,0,0-24.91-8.9c-3.31-.91-6.85-1.08-10.37-2.62-.16,1.89,0,4-1.87,4.9a7.77,7.77,0,0,1-5.08.47c-3.17-.65-6.38-1-9.57-1.59a6.23,6.23,0,0,1-2.11-.73,4.15,4.15,0,0,1-2.18-4.06c.17-1.28,1.83-1.43,3.09-1.58,1.49-.19,3-.42,4.47-.64,1.32.77,2.79.21,4.17.48a4.23,4.23,0,0,1,2.55.6,3.28,3.28,0,0,0-2.24-.61c-1.95-.07-4,0-5.3-1.82-5.37-1.17-9.81-4.66-15.06-6.14-1.72-2.76-1.59-3.47.68-3.74l.05,0c1.26.72,2.73,0,4,.56,1.45.28,2.45.65,2.13-1.8-.69-5.45,5.34-11.27,10.9-11.14,5.91.13,11.83.11,17.74.05s10.62,3.33,12.42,9.36c.54,1.8,2.1,3.82-.87,4.85-.17,1.91,3.27.3,2.35,2.52-.77,1.84-1.12,4.26-4.05,4.3-4.26,0-8.51.25-12.76.39a8.48,8.48,0,0,1-4.86.17c.49.51,1.36.53,1.92,1.08,4.8,1.19,9.67,2.2,14.41,3.63,6.51,2,13,4.06,19.37,6.48,4.5,1.7,8.76,4,13.13,6.08a5.16,5.16,0,0,1,3.11,2.17Z" transform="translate(-11.13 -193.46)"/><path d="M318.58,438.93c-1.83,5.08-3.71,10-8.82,13-5.43,3.24-9.84,8-15.8,10.58-1.19.51-1.89.8-3,0-5.76-3.94-10.78-8.31-10.41-16.18,0-.5.08-1.11-.5-1.26-5.6-1.47-10.46-6.3-17.09-3.42-1.68.74-3.47,2.94-5.79,1.23-3.8-2.8-9.17-4.72-10.52-9.07-.79-2.56-2.47-4.59-3-7.14-.36-1.56.71-2,1.62-2.59,8.6-5.93,17.16-11.9,25.81-17.75,5.18-3.5,9.48-8.22,15.31-10.88,1.88-.86,2.91-1.12,4.48.54,3.92,4.12,7.83,8.23,11.5,12.58,1,1.2,1.14,1.69-.32,2.83-4.36,3.39-4.84,9.19-1.44,13.59,1.78,2.3,2.19,2.71,5.68,2.68C309.9,427.7,319.3,435.8,318.58,438.93Z" transform="translate(-11.13 -193.46)"/><path d="M420.11,505.4c-.24-5.89-.13-11.11,4.07-15.25a19.94,19.94,0,0,1,4.62-3.8,91.47,91.47,0,0,0,9.39-5.5c4.95-3.43,10.2-2.72,15.51-1.53,3,.67,4.26,3.73,5.4,5.81,3.56,6.55,5.5,14.28-3.39,19.25-4.08,2.27-7.8,5.44-12,7.66-5.16,2.72-10.78,4.41-15.95,7.17-1.47.79-3.69.16-5.57.2-.58,0-.85-.19-1-.81C420.4,514,418.62,509.58,420.11,505.4Z" transform="translate(-11.13 -193.46)"/><path d="M326.46,538.59a29.16,29.16,0,0,1,6.13-16.12c4-4.88,10.1-5.45,16-6.48,4.63-.82,9,.37,13.46.83,4.23.44,10.05,8.56,9.8,13.18a1,1,0,0,1-.1.36c-1,2.18,1.55,4.89-.77,6.75a20.08,20.08,0,0,1-11.36,4.2c-4.79.27-9,2.37-13.71,3a61.41,61.41,0,0,1-15.9.26C327,544.12,326.49,543.05,326.46,538.59Z" transform="translate(-11.13 -193.46)"/><path class="cls-26" d="M141.66,440.22c-1-.24-2.41.11-2.69-1.35s.93-1.92,2-2.28c3.52-1.19,7.21-2,10.56-3.56,4.32-2,8.28-4.77,12.56-6.9,3.3-1.64,6.16-4.46,10.25-4.24a.86.86,0,0,0,.6-.32c6.05-6.8,14.23-10.88,21.37-16.26,6.67-5,13.53-9.93,20.57-14.51,5.61-3.66,11.06-7.59,16.78-11.06,7.64-4.64,14.7-10.15,22.27-14.84,13.31-8.24,26.92-15.92,42.83-18.15,1.39-.2,2.78-.89,4.27-1.07a1.75,1.75,0,0,1,2.12,1.15c.38,1.46-1.05,1.11-1.73,1.31-5.79,1.72-11.76,3-17.38,5.14a120.26,120.26,0,0,0-26.64,13.61c-6.57,4.61-13,9.41-19.66,13.91-8.13,5.5-16.47,10.76-24.27,16.71-10,7.61-21.08,13.59-30.57,21.81-6,5.19-13.29,7.78-20.12,11.39-4.1,2.16-7.84,5.06-12.26,6.75A61.61,61.61,0,0,1,141.66,440.22Z" transform="translate(-11.13 -193.46)"/><path d="M235.76,531.06c-.16-7.12,4.67-12.73,13-12.72,5.81,0,10.94,1.78,16.05,3.82,1.31.52,2.56.3,3.82.86,6,2.68,11.95,12.29,11.34,18.79-.25,2.77-2.21,3.6-4.59,4.12-7.43,1.62-14.6.46-21.53-2.17-3.52-1.34-7.16-2.14-10.76-3.12C237.73,539.17,235.62,536.7,235.76,531.06Z" transform="translate(-11.13 -193.46)"/><path class="cls-26" d="M201.65,510c0,1.36,0,2.72,0,4.08,0,3.25-2.7,5-5.7,4-7.94-2.58-14-8-20.45-12.94-2.8-2.13-3.63-4.36-3.64-7.93a10,10,0,0,1,3.33-8c1.86-1.68,4.67-1.19,7.11-1.17,4.52,0,7.33,3.57,11,5.46,2.19,1.15,3.59,3.29,5.89,4.55,2,1.08,1.91,4.36,2.37,6.75a28.28,28.28,0,0,1,.06,5.21Z" transform="translate(-11.13 -193.46)"/><path class="cls-26" d="M248.76,464.54c.1-7.13,7.73-13.61,14.71-12.53,3.61.56,7.29.57,9.5,4.48,2.56,4.52-.13,13.37-4.92,15.3-5.48,2.2-10.66,2.49-16-.86C249.4,469.26,248.33,467.47,248.76,464.54Z" transform="translate(-11.13 -193.46)"/><path class="cls-26" d="M228.13,437.85c.81,10.66-7.2,14-14.57,13.89-4-.05-8.4-5.2-8.09-9.71.53-7.77,3.89-12.8,9.34-12.77C222.6,429.31,228.19,433.07,228.13,437.85Z" transform="translate(-11.13 -193.46)"/><path class="cls-26" d="M312.69,478.59c-3.13.6-5.95-1.16-8.94-2-2.06-.55-2.39-5.38-.83-8.39,2.38-4.62,10.6-10.31,16.56-8.25,1.45.51,3-.12,4.57,1,5.17,3.53,5.63,9.57.58,13.57A16.79,16.79,0,0,1,312.69,478.59Z" transform="translate(-11.13 -193.46)"/><path class="cls-26" d="M250.19,318.39a7.31,7.31,0,0,0-3.63-4.56c-4.67-9.56-3.81-18.39,3.39-25,5.46-5,13.55-7.81,20.58-3.63,4.58,2.73,7.16,7.52,7.66,13,.27,2.95,1.66,6.1-.67,8.9-1.27-.74-3.4.43-4-1.8-.83-.89-.64-2.14-1.09-3.16-.13-.31-.23-.63-.33-.94a22.14,22.14,0,0,1-.88-3.5c-1.14-5.39-5-8.72-9.87-8.53-5.94.23-10.42,4.15-10.87,10-.23,3-.64,6,.49,9-.15.45.65.15.14.14-.09,0,0-.12,0-.37,0-.94.18-1.79,1.44-1.7a5,5,0,0,1,1,3.93c.23.17-.48.53.1.58.09,0,.31-.53.67-.66,1.73,1.1,1.43,2.41.43,3.8-1,.93-.94,1.73.28,2.4l-1.74,1.49a5.72,5.72,0,0,1-2.35.8A1.4,1.4,0,0,1,250.19,318.39Z" transform="translate(-11.13 -193.46)"/><path class="cls-26" d="M386.35,454.07c-.09,3.87-5.69,9.13-10,9-3.75-.15-7.43-.33-11.09-2.06-3-1.39-3.45-4-2.82-5.59,1.06-2.75,1.9-6.22,5.87-7s7.49-2.6,11.77-1.63C384.05,447.64,386.44,449.9,386.35,454.07Z" transform="translate(-11.13 -193.46)"/><path class="cls-26" d="M166,363.86l-.79.79c-2.52,1.21-4.74-.19-7-.83-11.76-1.4-23.37-3.23-34.53-7.62-6.77-2.67-14.17-1.84-21.35-1.58-2.9.11-5.59,0-7.19-2.94-.07-2.4,1.51-3.78,3.48-3.64,6.79.49,13.68-.92,20.37.64,7.09,1.65,14,4.07,21,6.14,3.75,1.11,7.7,1.29,11.53,2,4,.78,8.33.73,11.95,3.13C164.54,361.08,167.06,361.28,166,363.86Z" transform="translate(-11.13 -193.46)"/><path class="cls-26" d="M335.72,442.6a17.42,17.42,0,0,1-7.41-1.39c-4.56-1.73-5-6.76-1.76-10.44,4.91-5.55,10.78-5.55,17.06-3.87,3.8,1,4.92,6.09,2.8,9.26C343.74,440.15,340.65,442.89,335.72,442.6Z" transform="translate(-11.13 -193.46)"/><path class="cls-27" d="M277.94,395.35c-3.05,1.78-5.35-1-8-2.39-3.78-2-5.56-5.12-4.63-9.33.76-3.42,2.45-6.33,6.47-7.45a22.89,22.89,0,0,1,9.41-.6,7.45,7.45,0,0,1,6.32,5.15c1.2,3.9-.11,11.51-3.73,13.43C282.05,395.08,280.45,395.9,277.94,395.35Z" transform="translate(-11.13 -193.46)"/><path class="cls-1" d="M166,363.86c.11-2.12-2.07-1.91-3-3,.75-1.58,2.23-2.32,3.63-3.15,9.2-5.41,18.57-10.52,27.57-16.27,3.47-2.22,7.18-4.12,10.82-6.09a7.93,7.93,0,0,1,4.33-1.07c1.93.71,3.87,1.39,6,.8l.07.95c-14.21,7.14-27.69,15.55-41.17,23.94-.88.49-2.09.07-2.79,1C170.19,363.14,167.58,362.54,166,363.86Z" transform="translate(-11.13 -193.46)"/><path class="cls-27" d="M332.57,404.53c-5.95-.42-11.23,0-15.8-3.2a6.67,6.67,0,0,1-2.82-7.51c.67-3,2.94-3.83,5.9-3.95,4.77-.18,9.5-1,14,1.54a7.88,7.88,0,0,1,3.92,9.1C337,403.46,334.52,404.34,332.57,404.53Z" transform="translate(-11.13 -193.46)"/><path class="cls-27" d="M412.37,436c-2.48-5-1.47-6.16,3.07-9.4,5.67-4.05,11.17-2.29,16.87-1.25a3.18,3.18,0,0,1,2.87,3.3c-.05,1.86,1,4-1.45,5.38a29.82,29.82,0,0,1-17.86,4.35c-.42,0-.8-.54-1.2-.83C414.08,436.8,413,436.7,412.37,436Z" transform="translate(-11.13 -193.46)"/><path class="cls-28" d="M380.43,426.77c-5.17.16-9.31-2.23-13.8-3-1.8-.34-2.47-4.16-.89-5.33,2-1.45,3.86-3.71,6.78-3.08,4.52,1,8.92-.85,13.49-.28,3.12.39,4.95,2.16,5.51,4.49.64,2.67-1,5.08-3.94,5.8C385.09,425.94,382.72,427.41,380.43,426.77Z" transform="translate(-11.13 -193.46)"/><path class="cls-1" d="M394.19,395.06c-2.39.85-.45,2.5-.68,3.74A114.66,114.66,0,0,1,376.05,392c-1.54-.59-3.37-.37-4.64-1.7-1.11-.61-1.44-1.85-2.22-2.74-8.3-4-16.2-8.69-22.85-15.22l2.33-.05c4.18,1.18,8.64,1.49,12.3,4.3,1.41,1.08,2.89,2,3.71,3.63a4.58,4.58,0,0,0,4,2.49c2.87.92,4.59,3.5,7.24,4.87C381.79,390.6,388.2,392.3,394.19,395.06Z" transform="translate(-11.13 -193.46)"/><path class="cls-27" d="M327.52,357.09c4.16,1.91,6,6.1,9.05,9.12,1.53.62,1.54,1.72.94,3a3.58,3.58,0,0,1-4.34,1.23c-5-1.7-9.68-4-13.31-7.86a5.32,5.32,0,0,1-1.68-4c.22-3.41,1.11-4.2,4.49-3.28C324.32,355.77,325.9,356.49,327.52,357.09Z" transform="translate(-11.13 -193.46)"/><path class="cls-28" d="M374.39,392c0,.24,0,.57.15.71,1.51,1.49,4.35,2.69,2.79,5.25-1.29,2.14-3.91.89-5.89.44A28.93,28.93,0,0,1,358.61,392c-.9-.78-1.91-1.57-1.19-3.16s1.84-1.17,3.06-1.4a10.34,10.34,0,0,1,7.93,1.58,7.08,7.08,0,0,1,3.17,1.16A29.25,29.25,0,0,1,374.39,392Z" transform="translate(-11.13 -193.46)"/><path class="cls-21" d="M158.26,362.56c2.1,1.37,4.6,1.45,6.92,2.09-1.4,2.3-4.73,1.51-6.11,3.84a6.85,6.85,0,0,0-6.36-.18c-1.14.45-2.2,1.16-3.51.8.41-2.23,2.41-2.68,4-3.52S157,364.27,158.26,362.56Z" transform="translate(-11.13 -193.46)"/><path class="cls-29" d="M337.51,369.22c-.32-1,0-2.2-.94-3,.88,0,4.73,2.09,5.42,3A4,4,0,0,0,337.51,369.22Z" transform="translate(-11.13 -193.46)"/><path class="cls-30" d="M374.39,392a2.15,2.15,0,0,1-2.9-1.54.68.68,0,0,1,.06-1l4.5,2.49Z" transform="translate(-11.13 -193.46)"/><path class="cls-31" d="M408.57,404.94a17.63,17.63,0,0,0,5.36,1.5c.29.14.39.29.29.43s-.19.22-.29.22c-1.53-.13-3.23.64-4.54-.8C409.12,405.84,408.85,405.39,408.57,404.94Z" transform="translate(-11.13 -193.46)"/><path class="cls-32" d="M371.55,389.49l-.06,1a4.32,4.32,0,0,1-3.08-1.5,1.59,1.59,0,0,0,.78-1.46C370.29,387.82,370.82,388.77,371.55,389.49Z" transform="translate(-11.13 -193.46)"/><path class="cls-33" d="M128.13,439.77c.57-1.36,1.45-2.11,3-1.46C130.82,440.21,129.31,439.66,128.13,439.77Z" transform="translate(-11.13 -193.46)"/><path class="cls-34" d="M412.37,436c1.09,0,2,.3,2.3,1.55C413.51,437.65,412.57,437.39,412.37,436Z" transform="translate(-11.13 -193.46)"/><path class="cls-35" d="M149.83,375.14c.23-1.58,1.31-1.58,2.52-1.35A2.1,2.1,0,0,1,149.83,375.14Z" transform="translate(-11.13 -193.46)"/><path class="cls-36" d="M171.4,361a2,2,0,0,1,2.79-1C173.57,361.2,172.34,360.74,171.4,361Z" transform="translate(-11.13 -193.46)"/><path class="cls-37" d="M250.92,318.52c.57-.89,1.45-.88,2.35-.8C252.61,318.33,252.2,319.69,250.92,318.52Z" transform="translate(-11.13 -193.46)"/><path d="M491.11,397.4a9.78,9.78,0,0,1-10-7.83c-1.55-8.3,2.18-13,10.43-17.23,4.29-2.2,9.17-3.32,13.84-4.7,5.83-1.72,15,4,16,10,.42,2.39,2,4.49,1.48,7.15-.3,1.63-.82,3-2.31,3.54-7.48,2.75-14.49,6.89-22.7,7.57C495.45,396.12,493.31,398.12,491.11,397.4Z" transform="translate(-11.13 -193.46)"/><path d="M585.17,352.48a62.92,62.92,0,0,1-22.5,17.2c-4.44,2-5.8,1.43-7.16-3.18a27.3,27.3,0,0,1,0-16.18c1.47-5,5.26-7.09,8.71-9.81,3.16-2.48,6.5-4.75,9.84-7,5.39-3.61,10.09-1.19,12.09,5.51a20.72,20.72,0,0,1,.7,8.19c-1.06,1-2.29.45-3.47.36a2.18,2.18,0,0,1-1.55-1.61c.13-2.28,1.41-4.65-.59-6.74-.61-.73-.8-1.78-2.1-2.6.46,1.62,1.58,2.17,2.29,3,1.3,1.75,1.08,3.56.22,5.39-4.22,6.7-9.14,12.66-16.83,15.65a4.77,4.77,0,0,0-3.22.91c-1.85.65-2.21,1.85-1.35,3.53,7.43-4.12,14.64-8.47,19.67-15.59a3.8,3.8,0,0,1,3.86-1.89C586.52,348.62,586,350.49,585.17,352.48Z" transform="translate(-11.13 -193.46)"/><path class="cls-26" d="M540.62,317c1.8,1.37,4.52,1.41,4.92,4.7a7,7,0,0,1-3.53,7.18c-2.61,1.36-6.22,2.81-9.25.59-1.76-1.29-3.26-.82-4.14.28-2.2,2.76-5.25,3.9-8.34,4.56-3.7.78-6.6,4-10.9,3.09-1.66-.34-2.39,1.83-3.1,3.32-2.78,5.84-8.77,6.88-13.16,2.17a6.68,6.68,0,0,1-1.08-7.93c1.45-2.71.25-3.52-2-4-2.79-.59-4.36-2.36-5.42-4.9a5.39,5.39,0,0,1,2.52-7.39c2.39-1.31,5.26-3.22,8-.26a2.22,2.22,0,0,1-.27,3.18c-1.07,1.22-4,.45-3.83,2.4.16,2.24,2.54,2.68,4.58,3.18,3,.72,4.13,3.86,3,7.42-.59,1.82-2.43,4.18.23,5.22,2.24.88,2.88-2,3.61-3.53a10.59,10.59,0,0,1,4.34-4.48c4.38-2.77,9-5,13.4-7.83,5.41-3.45,11-2.86,16.21,1,1.26.26,2.6.51,3-1.15.36-1.38-.73-1.94-1.77-2.47-1.6-.82-2.73-1.87-1.4-3.8C537.51,315.81,539.12,316.86,540.62,317Z" transform="translate(-11.13 -193.46)"/><path class="cls-27" d="M389,229c-1.88,2.6-3.9.87-5.64,1.15-6.13,1-11.33,4.06-16.61,6.9a97,97,0,0,0-23.52,17.75c-6.16,6.31-11.94,13-17.6,19.87-5.19,6.26-10.14,12.77-15.56,18.86a26.33,26.33,0,0,0-4,6.51c-1.33,2.88-3.61,2-5.33,1s-.6-2.61.45-3.93c8.33-10.44,17.35-20.24,26.42-30,4.73-5.12,9.06-10.67,14.26-15.32,7.68-6.86,15.47-13.63,25.19-17.73,2.42-1,4.69-2.58,7.11-3.74A20.19,20.19,0,0,1,389,229Z" transform="translate(-11.13 -193.46)"/><path class="cls-38" d="M494.36,321.44a5.2,5.2,0,0,0,.77-3.05c2.63.09,5.3-1.23,7.87,1,1,.91,3.1.14,4.51-.76,4.52-2.88,9.64-4.5,14.45-6.74,1.56-.73,2.62-1.21,2.54-3.07-.18-3.79,1.57-6.29,5.29-7.06,3.1-.64,7.25,2.17,9.16,5.14,2,3.18-.17,5.64-.73,8.4-.17,1-1.22,1.46-1.39,2.44-1.05,1.52-.22,2.37,1.17,2.67,2.38.51,3.12,2.12,2.51,4.1-.72,2.33-2.75,1.87-4.57,1.4,2.07-2.51,2.07-2.51-.74-4.81-3-2.46-3.55-4.33-2.1-8.05a3.6,3.6,0,0,0-1-4.42c-1.64-1.47-3.32-.92-3.08,1,.75,5.84-3.78,6.95-7.41,8.41a85.26,85.26,0,0,0-10.3,4.62C505.23,326.14,499.71,326,494.36,321.44Z" transform="translate(-11.13 -193.46)"/><path class="cls-26" d="M457.21,337.69c0-4.11,5.09-8,8.35-8.26,4.15-.38,6.48,2.66,9.53,4.1,1.81.85,2.46,4.13.89,6.45-2.93,4.34-10.18,6.65-15,4.67C457.71,343.28,457.72,340,457.21,337.69Z" transform="translate(-11.13 -193.46)"/><path class="cls-27" d="M380,336.53c-3.67.87-6.1-1.44-8.05-3.47a5,5,0,0,1-.14-7.11c2.42-2.68,7.56-4.6,10.13-3.48,3.59,1.57,6.35,7.5,5.31,11.45a2.31,2.31,0,0,1-2.26,2A41.82,41.82,0,0,1,380,336.53Z" transform="translate(-11.13 -193.46)"/><path class="cls-26" d="M431.46,341.45c.24,6.15-3.25,7.9-10.53,8.64-3,.31-6.16-3.75-6.16-7.64,0-4.28,3.48-6.82,9.29-6.78C429.33,335.71,431.43,337.35,431.46,341.45Z" transform="translate(-11.13 -193.46)"/><path class="cls-27" d="M555.51,303.45c-1.11-.13-2.22-.22-3.32-.4-5.1-.84-7.12-4-6.3-9.15.64-4,4-1.39,5.88-2.46.59-.33,1.94-.16,3.05-.79,2.44-1.4,9.09.39,10.88,2.77s1,4.73-.27,6.93C564.24,302.4,560.58,303.38,555.51,303.45Z" transform="translate(-11.13 -193.46)"/><path class="cls-27" d="M436.89,316.37c-4.2.63-7-.7-8.4-3.83-1.68-3.72-.72-8.14,1.66-10s10-1.75,12.19,0,2.85,8.35,1,11.33C441.64,316.58,438.77,316.15,436.89,316.37Z" transform="translate(-11.13 -193.46)"/><path class="cls-39" d="M482.39,314.35c-4.53.29-8.22-2.4-8.46-6.18-.27-4.31,3.85-8.38,8.82-8.71,4.27-.28,9.09,3.8,9.29,7.87C492.22,310.93,488,314,482.39,314.35Z" transform="translate(-11.13 -193.46)"/><path class="cls-27" d="M427.53,276.32c-6,1.09-9.92-1.4-12.37-6.69-1-2.23-.13-5.23,2.17-5.09,4.75.3,10-.42,13.38,4.42a5,5,0,0,1,.82,4.75A4,4,0,0,1,427.53,276.32Z" transform="translate(-11.13 -193.46)"/><path class="cls-28" d="M511.4,297.2c-4.67.11-8.45-2.76-8.61-6.45-.06-1.3.07-2.81,1.54-2.87,4.09-.19,8-1.74,12.16-1.32,2.44.24,4.68,1.06,4.68,3.86,0,2.52-.75,4.81-3.91,5.55A40.13,40.13,0,0,1,511.4,297.2Z" transform="translate(-11.13 -193.46)"/><path class="cls-28" d="M469.43,277.77c-4.56.55-8.34-.1-11.27-3.48-2-2.26-1.78-4.18,1-5a19,19,0,0,1,12.07-.07,34.86,34.86,0,0,1,5.14,2.2c1.9,1,1.88,3.35.16,4.65A9.86,9.86,0,0,1,469.43,277.77Z" transform="translate(-11.13 -193.46)"/><path class="cls-28" d="M368.65,382.69c-1.82,1.69-3.14,1-4.16-.9-2.34-4.31-6.19-6.39-10.81-7.21a10.6,10.6,0,0,1-5-2.31c-.76-1.3.4-2,.86-3l.75.06c1.2.63,2.7-.5,3.82.63a34.25,34.25,0,0,1,10.35,4.76C367.42,376.68,368.86,379.19,368.65,382.69Z" transform="translate(-11.13 -193.46)"/><path class="cls-40" d="M423.18,405.42c-1.81-.41-3.82.08-6.29-1.33,3.64-1.33,6.44.44,9.23.08C425.5,405.43,423.88,404.35,423.18,405.42Z" transform="translate(-11.13 -193.46)"/><path class="cls-41" d="M585.17,352.48c.33-2,1-4.09-2-4.57-.18-.14-.25-.28-.2-.43s.1-.23.16-.23l3.78,0C585.5,348.71,587.14,351.18,585.17,352.48Z" transform="translate(-11.13 -193.46)"/><path class="cls-42" d="M536.83,317.77c-.72-1.49.71-1.75,1.39-2.44l2.4,1.64C539.57,318.22,537.85,316.34,536.83,317.77Z" transform="translate(-11.13 -193.46)"/><path class="cls-8" d="M354.1,370c-1.31,0-2.7.49-3.82-.63C351.58,369.38,353.15,367.81,354.1,370Z" transform="translate(-11.13 -193.46)"/><path class="cls-23" d="M473.2,423.78l-3.11-2.17C471.93,421.19,472.77,422.19,473.2,423.78Z" transform="translate(-11.13 -193.46)"/><path class="cls-1" d="M398.26,395.64c-1.39.16-2.84.73-4-.56C395.55,395.42,397,394.74,398.26,395.64Z" transform="translate(-11.13 -193.46)"/><path class="cls-6" d="M218.3,329l-2.27-.65a6,6,0,0,0-3.32-1.31,66.29,66.29,0,0,1-18.44-5.33c-5.53-2.51-11.66-3.55-16.85-6.91-3.76-2.44-8.29-3.33-11.76-6.67-1.51-1.44-4.31-2.42-6.6-3.39-6.21-2.63-12.42-5.83-18.95-7-5.68-1-9.83-4.43-14.82-6.28-3.46-1.28-7.35-1.52-11-2.3-3.38-.71-6.8-1-9.48-3.54a5.77,5.77,0,0,0-2-.9c-2.94-1-6.13.78-9.31-2.23-1.67-1.6-6.64-.92-10.06-1.45-5.34-.83-10.71.74-16-.59-.51-.26-1-.7-1.48.06-2.74,1.38-6.07,1.42-8.41,3.7-.54-.22-1.28,0-1.6-.71.59-1.79,1.11-3.6,1.79-5.35.81-2.09,1.62-4,4.18-4.91,2.88-1,3.06-2.66,1-4.15a8.86,8.86,0,0,0,2.59-1.44c6.82-7.9,15.78-7.65,25.16-7.44,8.77.2,16.7,3.81,25.22,4.73,8.7.93,16.59,4.77,24.82,7.31,5.65,1.75,10.89,5,16.09,8,3.06,1.75,6.57,2.21,9.5,4.41,12.12,9.09,27.16,13.68,38.44,23.87,4.63,4.18,10.52,5.88,15,10.18,2.52,2.43,6.75,3.08,10.21,4.52l-8.37,4.45C220.57,328.43,219.34,328.48,218.3,329Z" transform="translate(-11.13 -193.46)"/><path class="cls-26" d="M134,404.22c.83,8.27-1.43,15.95-4.77,23.28-2.44,5.38-10.36,7.12-15.39,3.94-2.32-1.46-4.33-3.31-6.94-4.43s-1.61-4.23-2-6.38c-1.63-8.85.63-17.43,3-25.8,2.11-7.38,12.87-10.95,19.34-7.21,1.55.9,1.79,2.29,2.49,3.5C131.87,394.79,134,401.35,134,404.22Z" transform="translate(-11.13 -193.46)"/><path class="cls-7" d="M209.31,334.32c-12.12,6.17-23.45,13.7-35.27,20.37-3.69,2.08-7.39,4.14-11.08,6.21-3.2-2.62-7.31-2-11-2.91-3.45-.9-7.32-.43-10.62-1.63-5.63-2-11.6-2.85-17.11-5.2-4.44-1.9-9.07-2.13-13.84-2-3.44.08-6.94.71-10.36-.25-2.57-.72-3.64.88-4.54,2.8.14.82-.16,1.17-1,.94-3-5.12-7.75-8.73-11.68-13s-7.39-9.08-10.9-13.75a183.84,183.84,0,0,1-15.32-24A21.23,21.23,0,0,1,54.68,297c-.27-1.06-.71-2.68,1.38-2.78.27,3.14,1.7,3.68,4.4,2.19s5.65-1.39,8.5-1.56c10.9-.65,21.84-1.79,32.48,2.07,2,.73,4.25.32,6.37.57,4.73.55,9.56.52,13.91,2.8a.91.91,0,0,1,.58.24c-.17-.39-.57-.29-.9-.39-1.36-.53-2.15-1.37-1.67-2.93,7.62-.24,14.39,2.69,21.1,5.73,2.07.93,4,1.93,6.38,1.93,3.89,0,6.69,2.79,9.75,4.5a298.86,298.86,0,0,0,36.77,17.17C199.11,328.66,204.12,331.7,209.31,334.32Z" transform="translate(-11.13 -193.46)"/><path class="cls-7" d="M94.52,352.64l1-.94c3.11,3.21,7,1.82,10.62,1.65a62.9,62.9,0,0,1,26.49,4.72c8.2,3.27,17,3.54,25.63,4.49.27,2.2-1.52,2.64-2.93,3.23a20.94,20.94,0,0,0-6.13,3.32c-5.06,0-8.84,3.21-12.91,5.46-2.43,1.35-4.38,3.34-7.4,2.14-3.37-1.33-6.58,0-9.84.51-4.12.6-4.62.32-6-3.42-.43-1.16-1.75-.25-2.48-1.17-2-2.48-4.68-4.51-6.16-7.23C101.75,360.57,97.9,356.82,94.52,352.64Z" transform="translate(-11.13 -193.46)"/><path class="cls-43" d="M119.73,297.21c.46,1,.86,2.14,2.24,2.29a.87.87,0,0,1,0,1.39c-6.57-1.91-13.37-2-20.1-2.84-4.17-.51-8.33-1.91-12.61-2.56-5.16-.78-10.22.16-15.32,0-5.55-.13-11.27.2-16.34,3.17-.48.28-1.18.72-1.53-.23-.52-1.41-1.28-2.83,0-4.25,5.46-.66,10.73-2.51,16.42-1.9,3.81.42,7.74-.08,11.59-.45,8.45-.81,16.41,1.78,24.52,3.33a12.4,12.4,0,0,0,5,0C115.45,294.83,117.68,296.45,119.73,297.21Z" transform="translate(-11.13 -193.46)"/><path class="cls-44" d="M97.1,287.38c-4.23,2-8.33.86-12.4.46a75.17,75.17,0,0,0-23.52,1c-1.43.31-2.87.63-4.28,1.05-.71.22-1.44.82-1.81-.3a1.26,1.26,0,0,1,.83-1.78c1.95-.74,3.43-2.45,5.61-2.72C73.47,283.54,85.37,282.64,97.1,287.38Z" transform="translate(-11.13 -193.46)"/><path class="cls-45" d="M55.89,283.46l1.6.71c-.55.44-1.11,1.1-1.86.61S55.28,283.8,55.89,283.46Z" transform="translate(-11.13 -193.46)"/><path class="cls-46" d="M98.69,288.81c-.37-.26-.81-.38-.89-.63-.18-.55.15-.9.73-.91.43,0,1.07-.16,1.07.44C99.6,288.06,99.05,288.4,98.69,288.81Z" transform="translate(-11.13 -193.46)"/><path class="cls-47" d="M65.9,280.47c-.17-.54-.81-1.31-.05-1.58,1.2-.44,1,1,1.53,1.52Z" transform="translate(-11.13 -193.46)"/><path class="cls-26" d="M254.73,313.83c0-2.41,0-2.41-.82-2.85a.48.48,0,0,1-.7-.31c-1.05-1.37-.65-3-.86-4.56-3.26-3.07-1.45-11.35,2.49-13.44,6.61-3.51,12.69-3.77,16.47,5.06a52,52,0,0,1,.59,5.28c-.15.62-.44,1.09-1.18,1-2.54,1.69-4.62,4-7.81,4.75-1,.22-2.44,1.19-2.55,2C259.84,314.56,257.17,313.89,254.73,313.83Z" transform="translate(-11.13 -193.46)"/><path class="cls-48" d="M270.72,304.05l.69-.79c.5-.53.1-2,1.54-1.54l0,0c.52,1.32.92,2.62-.72,3.5S270.65,305.14,270.72,304.05Z" transform="translate(-11.13 -193.46)"/><path class="cls-49" d="M272.2,305.26c.84-1.05.7-2.29.72-3.5.82,1.07.54,2.32.59,3.52Z" transform="translate(-11.13 -193.46)"/><path class="cls-50" d="M218.3,329a4.19,4.19,0,0,1,3.17-1.34C221,329.45,219.56,329,218.3,329Z" transform="translate(-11.13 -193.46)"/><path class="cls-51" d="M417,399.51c-2.33.31-4.66-.15-7.06.5-2.18.6-5.37-3-5.87-5.92s.16-5.23,3.51-6a25.36,25.36,0,0,0,3.21-1.2,42.65,42.65,0,0,1-1.28,4.14c-1.92,4.42-1.54,5.17,3.28,6.4a43.75,43.75,0,0,1,4.2,1.49c.27.12.36.24.28.37S417.09,399.51,417,399.51Z" transform="translate(-11.13 -193.46)"/><path class="cls-52" d="M421.61,399c4.88.71,9.4-.59,13.82-2.43.57-.24,1.06-.8,1.64-.24s-.11,1.08-.35,1.59a4.93,4.93,0,0,1-4.66,3.06,69.72,69.72,0,0,1-9.71-.43A1.12,1.12,0,0,1,421.61,399Z" transform="translate(-11.13 -193.46)"/><path class="cls-53" d="M418.15,411.35c-4.45,1.48-8.61.48-13.71-2C409.85,409.11,414,410.46,418.15,411.35Z" transform="translate(-11.13 -193.46)"/><path class="cls-54" d="M421.61,399c.25.52.49,1,.74,1.55-2.06,1.13-3.62-.4-5.35-1,0-.19,0-.38,0-.57A9,9,0,0,1,421.61,399Z" transform="translate(-11.13 -193.46)"/><path class="cls-55" d="M413.93,407.09a2.36,2.36,0,0,0,0-.65l4.78.6C416.52,408.55,415.28,407.05,413.93,407.09Z" transform="translate(-11.13 -193.46)"/><path class="cls-5" d="M273.69,435.22c-3.51.37-6.8-3.43-10.3-.89-5.23,3.78-8.19,0-11.48-3-.83-.76-1.6-1.6-2.44-2.37-1.62-1.51-1.33-2.85.38-4,6.37-4.27,12.73-8.56,19.16-12.74,6.23-4,12.8-7.59,18.47-12.45,1-.87,1-.58,1.82.18,3.37,3.36,6.9,6.56,11.09,10.5-3.63.44-4.35,3.31-6.8,3.6a1.3,1.3,0,0,1-2-.35c-.26-2.38,1-5.33-1.82-6.81s-5.26.56-7.61,2c-2.05,1.25-4,2.68-6,4a2.72,2.72,0,0,0-1.44,2.87c.26,1.21,1.36,1.27,2.33,1.58,3,.93,5.89,5.71,5.29,8.6a1.32,1.32,0,0,1-1.95,1.12c-3.74-1.39-8.55-1.26-9.36-6.82-.2-1.4-1.47-1.9-3-1.55-5,1.16-8.42,4.88-12.36,7.75a1.56,1.56,0,0,0-.2,2.36,3.87,3.87,0,0,0,3.11,1.9,7,7,0,0,0,2.91-.74c4.61-2.15,8.22-.06,11.71,2.65C273.78,433.43,274.25,434.25,273.69,435.22Z" transform="translate(-11.13 -193.46)"/><path class="cls-5" d="M273.69,435.22l-.77-2.22c5.68,1.17,11.67,1.39,16.08,6.07,1.77,1.88,2.71,3.64,1.07,6-1,1.47-1.1,2.72.4,3.94s2.71,1.47,4.38.23c3.75-2.77,7.25-5.88,11.18-8.38,2.23-1.42,1.71-3.38,1.46-5.36a1.47,1.47,0,0,1,1.1-1.11l6.08,3.92c-.87,1.82-2.78,2.39-4.16,3.52-5,4.14-10.16,8.18-15.13,12.39-2.29,1.95-4.07,2.05-5.89-.49a30.73,30.73,0,0,0-2.74-3.09c-3.58-3.81-4.29-3.11.42-7.51C283.48,439.07,277.5,438.94,273.69,435.22Z" transform="translate(-11.13 -193.46)"/><path class="cls-5" d="M291.89,413.24l1.7.8c-1.87,2.61-1.15,5.19,0,7.83,1.78,4.13,3.48,8.29,5.21,12.44.24.81-.25,1.1-.9,1.28-3.07-.49-4.81-2.35-5.59-5.29-1.1-4.11-2.65-8.07-3.88-12.13C287.47,415,288.43,413.85,291.89,413.24Z" transform="translate(-11.13 -193.46)"/><path class="cls-5" d="M308.59,434.36l-.88.86c-1.83.52-3.65.9-5.47,0a1.93,1.93,0,0,1-.64-.8,5.27,5.27,0,0,0,1.31-.69C306.25,430.57,306.25,430.56,308.59,434.36Z" transform="translate(-11.13 -193.46)"/><path class="cls-5" d="M301.6,434.38l1,.09c.7,1.83-.39,2.68-1.89,2.89s-2.83-.18-2.72-2.16l.83-.89C299.7,435.2,300.66,434.42,301.6,434.38Z" transform="translate(-11.13 -193.46)"/><path class="cls-56" d="M448.18,504.26c-6.07,4.18-13.1,6.48-19.61,9.8-.68.34-2.25,1.21-3.1.17-1.13-1.39,0-3.14-.26-4.75-.18-1.27,1.21-1.47,2.18-1.4,7.33.49,12.78-3.46,18.26-7.49,1.38-1,3.13-1.47,4.6-2.49,3.11-2.17,3.81-4.38,1.26-7-2.28-2.36-2.62-6.19-6.42-7.34a6.55,6.55,0,0,1,5.74-.13c1.94.9,3.83,1.33,2.85,4.55-.69,2.28.79,4.88,2.18,7s2.17,3.51-1.15,4.74a20.41,20.41,0,0,0-4.28,2.87C449.64,503.23,448.69,503.41,448.18,504.26Z" transform="translate(-11.13 -193.46)"/><path class="cls-57" d="M448.18,504.26c-.11-1.8,1.06-1.65,2.25-1.47A2.42,2.42,0,0,1,448.18,504.26Z" transform="translate(-11.13 -193.46)"/><path class="cls-56" d="M332.8,537.89c-.43-2.39.35-3.5,2.76-3.42a66.24,66.24,0,0,0,27.36-4.62c1.53-.62,2.75-.78,2.57.92-.16,1.42,3.09,3.61-.7,4.36-4.82,1-9.62,2.07-14.48,2.77a30.14,30.14,0,0,0-5.62,1.72c-3.52,1.22-6.84.19-10.23.29C332.83,540,331.84,539.61,332.8,537.89Z" transform="translate(-11.13 -193.46)"/><path class="cls-58" d="M244.94,524.05c-.26,7.27,2.6,10.91,10.59,13.51a28.31,28.31,0,0,0,13.25,1c.64-.1,1.21-.06,1.63-.6a3.14,3.14,0,0,1,2.71-1.55c-.31,1.52,1.22,2.59.89,4.19-.4,2-1.85,1.25-2.94,1.38-7.57.84-14.76-.26-21.42-4.15a4,4,0,0,0-2.09-.78c-2.8.24-5.5.08-6.29-3.18-1.27-5.17-.1-8.21,3.6-10.62a.49.49,0,0,1,.25.53C245.06,524,245,524.05,244.94,524.05Z" transform="translate(-11.13 -193.46)"/><path class="cls-59" d="M270.41,529.72c-1.53-.1-2.4-.42-2.66-1.53-.06-.24.31-.83.46-.82C269.41,527.44,269.55,528.59,270.41,529.72Z" transform="translate(-11.13 -193.46)"/><path class="cls-60" d="M244.94,524.05l-.07-.82a1.6,1.6,0,0,1,2.46-.58A2.94,2.94,0,0,1,244.94,524.05Z" transform="translate(-11.13 -193.46)"/><path class="cls-61" d="M180.43,492c2.09,0,2.51.67,1.82,2.39-1.2,3,.44,7.08,2.85,9.05,3.34,2.73,6.24,6,10.47,7.53,1.46.53,1,2,.54,2.95-.54,1.17-1.53.32-2.17-.14a65.52,65.52,0,0,1-6.33-4.73,84.53,84.53,0,0,0-9.94-7.86c-2.2-1.47-1.65-3.88-1.31-5.86A4.14,4.14,0,0,1,180.43,492Z" transform="translate(-11.13 -193.46)"/><path class="cls-62" d="M266.11,457.33c-2-.64-4.07-.16-6.95-.11,2.5-2.48,4.76-1.73,6.91-1.5A1.11,1.11,0,0,1,266.11,457.33Z" transform="translate(-11.13 -193.46)"/><path class="cls-63" d="M253.1,464.9c-1-2.47,0-4.32,2.07-6.23.43,2.27-1.31,3.65-1.33,5.41C253.62,464.38,253.58,464.84,253.1,464.9Z" transform="translate(-11.13 -193.46)"/><path class="cls-64" d="M265,468.29c.41-1,.49-2.21,2-2a1,1,0,0,1,.46.79A1.81,1.81,0,0,1,265,468.29Z" transform="translate(-11.13 -193.46)"/><path class="cls-65" d="M266.11,457.33c0-.54,0-1.08,0-1.61a5.35,5.35,0,0,1,2.66,2.63A2.78,2.78,0,0,1,266.11,457.33Z" transform="translate(-11.13 -193.46)"/><path class="cls-51" d="M253.1,464.9c.25-.27.5-.54.74-.82,0,1.16,1.33,2.18.39,3.58C252.63,467.15,253.33,465.83,253.1,464.9Z" transform="translate(-11.13 -193.46)"/><path class="cls-66" d="M263,469.82c-1.3,1.73-2.08.38-3.28.29C261,468.77,261.87,469.41,263,469.82Z" transform="translate(-11.13 -193.46)"/><path class="cls-67" d="M216.78,448.14c-1.26-.51-3.5,1.28-3.73-1.6l-.06.06a12.9,12.9,0,0,1,6.25.65C218.63,448.13,217.68,448.06,216.78,448.14Z" transform="translate(-11.13 -193.46)"/><path class="cls-68" d="M216.78,448.14c.6-.92,1.6-.72,2.46-.89C219.07,449.35,218,449,216.78,448.14Z" transform="translate(-11.13 -193.46)"/><path class="cls-69" d="M213.05,446.54c-1.14.17-1.83-.36-2.49-1.47,1.61-.35,2.34.12,2.43,1.53Z" transform="translate(-11.13 -193.46)"/><path class="cls-50" d="M315.09,464.75c-2.08.43-3.68,2.25-6.08,2.15C310.59,464.44,311.24,464.18,315.09,464.75Z" transform="translate(-11.13 -193.46)"/><path class="cls-70" d="M321.6,467.66l.15-2.51c1.58.44,1.38,1.53,1.2,2.62C322.46,468.24,322,468.26,321.6,467.66Z" transform="translate(-11.13 -193.46)"/><path class="cls-71" d="M321.6,467.66l1.35.11c-.05.71.17,1.87-.64,1.87C320.93,469.65,321.62,468.43,321.6,467.66Z" transform="translate(-11.13 -193.46)"/><path class="cls-4" d="M270.65,298a33,33,0,0,0-2.21-3.44c-2.29-2.76-7.18-3.76-10.78-2.32-4.11,1.64-5.77,4.24-5.76,8.82,0,1.72-.57,3.48.45,5.1-1.09,1,.13,2.49-.91,3.6-1.78-.67-2-2.43-2.23-3.88a19.81,19.81,0,0,1,4.14-15.37c2.43-3.08,12.06-3,14.7-.09,1.95,2.19,4.67,4,4,7.53A.87.87,0,0,1,270.65,298Z" transform="translate(-11.13 -193.46)"/><path class="cls-72" d="M270.65,298l1.4-.05.9,3.82-1.54,1.54C270.1,301.64,270.72,299.75,270.65,298Z" transform="translate(-11.13 -193.46)"/><path class="cls-73" d="M253.21,310.67l.7.31c-.09.59,0,1.34-.82,1.47a1,1,0,0,1-1.05-.86C251.81,310.57,252.68,310.8,253.21,310.67Z" transform="translate(-11.13 -193.46)"/><path class="cls-74" d="M380.33,456.87c.05.61-.23,1-.82,1a1.19,1.19,0,0,1-.9-.44c-.3-.55.1-1,.59-1.16S380.11,456.38,380.33,456.87Z" transform="translate(-11.13 -193.46)"/><path class="cls-25" d="M376.33,451.36c-.18.6-.7.54-1.14.52s-1.07,0-.77-.76a1.24,1.24,0,0,1,.88-.51A.84.84,0,0,1,376.33,451.36Z" transform="translate(-11.13 -193.46)"/><path class="cls-75" d="M379.08,452.31c1.42-.47,2.14-.58,2.61.23.06.11-.24.57-.28.56C380.84,453,380.28,452.74,379.08,452.31Z" transform="translate(-11.13 -193.46)"/><path class="cls-76" d="M368.71,459.1c-.3,0-.67,0-.9-.1a1.34,1.34,0,0,1-.63-.82c-.07-.45.28-.54.68-.36l1.39.59Z" transform="translate(-11.13 -193.46)"/><path class="cls-77" d="M332.08,432.93c-1,1-2.39,1.81-1.64,3.65.22.54.29,1.36-.48,1.52s-1.36-.61-1.5-1.32c-.35-1.82-.23-3.5,2.06-4A1.38,1.38,0,0,1,332.08,432.93Z" transform="translate(-11.13 -193.46)"/><path class="cls-60" d="M336,430.78c1.08-.25,2.15-.55,3.24-.73,2.36-.39,3.16.66,2.63,3.23-1.88-1.37-4.07-1-5.9-2l-.49-.28Z" transform="translate(-11.13 -193.46)"/><path class="cls-78" d="M336,430.78a2.19,2.19,0,0,0,0,.51c-1.23.71-2.22,2-3.9,1.64l-1.56-.18C332.39,432.2,333.78,430.32,336,430.78Z" transform="translate(-11.13 -193.46)"/><path class="cls-56" d="M282.45,385.2c.34,3.2-1.47,6.53-3.7,6.82-3.15.41-9.83-3.88-10-6.45-.24-3.2,2.6-5.88,6.68-6.31C279.16,378.87,282,381.3,282.45,385.2Z" transform="translate(-11.13 -193.46)"/><path class="cls-61" d="M328.56,400.91c-3.56-.38-6.23-2.33-9.22-3.42-1.07-.39-1.19-1.53-1-2.61a1.37,1.37,0,0,1,1.92-1.23c2.32.79,4.71.36,7.06.57a4.29,4.29,0,0,1,3.09,1.17c.94,1.16,2.68,2.09,1.77,4.06C331.38,401.2,329.73,400.82,328.56,400.91Z" transform="translate(-11.13 -193.46)"/><path class="cls-61" d="M415.2,431.05c3.43-4.51,8.31-2.18,12.6-2.55.52,0,1.32,1,1.7,1.72.65,1.22-.73,1.45-1.3,1.91C424.59,435,419.37,435.16,415.2,431.05Z" transform="translate(-11.13 -193.46)"/><path class="cls-51" d="M369.3,420c1.76-1.82,3.38-2.75,6.18-1.66s5.84,1.15,8.79,1.64c.73.12,1.62,0,1.66,1.05s-.82,1.14-1.53,1.37C380.57,423.68,373.21,422.53,369.3,420Z" transform="translate(-11.13 -193.46)"/><path class="cls-79" d="M321.71,357.34c3.84,2.34,7.34,4.43,9.38,8.38C326.65,364.91,322,360.92,321.71,357.34Z" transform="translate(-11.13 -193.46)"/><path class="cls-79" d="M367.75,392.71l2,1.73c-1.14.78-1.86-.17-2.69-.34C366.35,393.17,366.49,392.66,367.75,392.71Z" transform="translate(-11.13 -193.46)"/><path class="cls-80" d="M367.75,392.71a1.25,1.25,0,0,0-.71,1.39c-1.13-.45-1.32-1.59-2.18-2.49A2.72,2.72,0,0,1,367.75,392.71Z" transform="translate(-11.13 -193.46)"/><path class="cls-81" d="M504.49,389.84c-4.44,2.89-9.71,2.41-14.6,3.26-2.35.41-2.29-2.57-2.92-4.78,6.33,1.39,12.28,1.71,18-1C505.71,388.34,504.1,388.9,504.49,389.84Z" transform="translate(-11.13 -193.46)"/><path class="cls-82" d="M504.49,389.84c-1.48-1.15.62-1.61.48-2.5,4.42-1.7,7.74-5.19,11.85-7.45,1.64,4.37-.17,6.34-4.28,7.24A76.13,76.13,0,0,0,504.49,389.84Z" transform="translate(-11.13 -193.46)"/><path class="cls-83" d="M512.81,373.5a4,4,0,0,1-.68-1,.44.44,0,0,1,.56-.6,2.22,2.22,0,0,1,.84,1C513.74,373.37,513.44,373.54,512.81,373.5Z" transform="translate(-11.13 -193.46)"/><path class="cls-61" d="M583.09,347.25a1.15,1.15,0,0,1,0,.66c-3.55,2.8-5.71,6.92-9.32,9.69-2.8,2.15-5.22,4.67-8.93,5.62-1.79.46-3.17,2.55-4.75,3.92-2.75-5-2.6-5.56,1.73-6.32a2.75,2.75,0,0,1,2.34-.45c7.15-3.41,12.12-9.17,16.7-15.37a.84.84,0,0,1,1.18.72C582.41,346.23,582.75,346.74,583.09,347.25Z" transform="translate(-11.13 -193.46)"/><path class="cls-82" d="M580.74,339.7a2,2,0,0,1-.71-.17c-1.35-.87-2.49-2-2.41-3.69,0-.58,1-.82,1.55-.65a3.14,3.14,0,0,1,2.53,3.53C581.89,339.54,581.54,339.84,580.74,339.7Z" transform="translate(-11.13 -193.46)"/><path class="cls-84" d="M580.74,339.7l1-1c2,2.23,2,4.57.38,7L580.9,345A6,6,0,0,0,580.74,339.7Z" transform="translate(-11.13 -193.46)"/><path class="cls-85" d="M564.2,360.37c-.67.71-1.51.54-2.34.45C562.51,360,563.07,358.69,564.2,360.37Z" transform="translate(-11.13 -193.46)"/><path class="cls-4" d="M494.36,321.44a7.6,7.6,0,0,1,4.94,1.69,8.3,8.3,0,0,0,8.86.12c5.32-3.23,11.15-5.33,16.77-7.88,2.25-1,3.26-2.17,3.06-4.64-.16-1.93-.59-4.37,2.4-4.58,1.86-.14,4.55,3.66,4.25,5.69-.11.74-.39,1.45-.56,2.19-.24,1.05-2.41,2-1.34,2.64,1.87,1.14,1.62,3.83,3.91,4.43,1.45.37,3.56.22,3.21,2.74s-2.74,1.16-3.92,2.1c-5.76-4.53-11.35-3.88-17.23,0-4.33,2.88-9.05,5.19-13.64,7.67-1.56.84-1.07,2.62-2.06,3.75-1.38,1.58-1.58,5.16-4.69,3.74-2.68-1.21-2.49-3.65-1-6.3,2.09-3.72.94-6.13-3.15-6.82-1.54-.27-2.09-1.88-3.75-1.88-.51,0-1.37-1.66-1.27-2.89.11-1.56,1.56-.88,2.29-1.39C492.36,321.21,493.4,321.68,494.36,321.44Z" transform="translate(-11.13 -193.46)"/><path class="cls-86" d="M469.62,334.44c2.38-.07,2.71.75,1.76,2.59C470.75,336.1,470.26,335.37,469.62,334.44Z" transform="translate(-11.13 -193.46)"/><path class="cls-77" d="M464.48,335.83c-.26-.6-.51-.91-.48-1.17a.82.82,0,0,1,1-.75.62.62,0,0,1,.28.53A12.12,12.12,0,0,1,464.48,335.83Z" transform="translate(-11.13 -193.46)"/><path class="cls-87" d="M425.35,345.72a4.43,4.43,0,0,1-4.15.77c1-1.37,2.71-.23,3.41-1.51C425.3,344.79,425.57,345,425.35,345.72Z" transform="translate(-11.13 -193.46)"/><path class="cls-88" d="M425.35,345.72l-.74-.74c.42-.68.91-1.89,1.76-1S426,345.27,425.35,345.72Z" transform="translate(-11.13 -193.46)"/><path class="cls-9" d="M554.77,295.33c1.06-.31,2.72.68,3.65-.57,1.6-2.14,2.62-.37,3,.59.49,1.26,1.05,3.31-1,3.86a14.77,14.77,0,0,1-8.46.16c-1.55-.5-1.35-2-1.23-3.2.14-1.43,1.11-.82,2-.62A6.36,6.36,0,0,0,554.77,295.33Z" transform="translate(-11.13 -193.46)"/><path class="cls-58" d="M432.29,308.37c-.4-2.59,1.09-3.77,4-3.64,2.29.1,4.28,1,3.93,3.39-.33,2.23-.64,5.2-4.28,5.05C433.14,313.05,432.07,311.54,432.29,308.37Z" transform="translate(-11.13 -193.46)"/><path class="cls-89" d="M481.85,310.36c-3.74,1.27-2.61-2.05-3-3.53-.51-2.13,1.59-3.49,2.83-2.59,2,1.46,5.25-3.42,5.93,1.21C488.16,308.91,486.43,310.15,481.85,310.36Z" transform="translate(-11.13 -193.46)"/><path class="cls-79" d="M427,271.61c-2.56.87-4.8.89-6.6-.78-.58-.55-1.52-1.24-.82-2.17a1.68,1.68,0,0,1,2.11-.16C423.54,269.46,425.27,270.56,427,271.61Z" transform="translate(-11.13 -193.46)"/><path class="cls-68" d="M512.22,293c-.88.18-1.82.59-2.82,0-.75-.44-1.79-.8-1.7-1.77.11-1.15,1.28-1.09,2.09-1,1.37.19,2.58-.64,4-.31,1.11.25,2.65-.63,2.59,1.44,0,1.65-1.23,2-2.64,1.86C513.29,293.21,512.8,293.11,512.22,293Z" transform="translate(-11.13 -193.46)"/><path class="cls-89" d="M473,274c-3,1.23-5.35.62-7.62.46-1-.07-2.7-.35-2.44-1.67a2.61,2.61,0,0,1,3-1.72A17.09,17.09,0,0,1,473,274Z" transform="translate(-11.13 -193.46)"/><path d="M111.41,422.35c0-.51.72-.92.24-1.51-1.51-1-.26-2.49-.75-3.66.51-.93-1.31-2.13.33-2.94.47-1.76-.78-3.31-.66-5a8.35,8.35,0,0,0,.21-4.38c.8-1.89.52-4.07,1.5-5.92a40.51,40.51,0,0,1,3-3.94l-.08.09c2.64-3.73,5.24-4.35,9.49-2.27l.38,1.4a5.4,5.4,0,0,1,2.76,4.22c1.36,7,.59,13.85-1.2,20.6-1.32,5-5.59,7.85-10.74,7.88C113.34,426.39,112.82,423.93,111.41,422.35Z" transform="translate(-11.13 -193.46)"/><path class="cls-5" d="M115.26,426.07c6-.16,8.73-3,10.35-8.66,1.81-6.28,1.73-12.47,1.12-18.8a10,10,0,0,0-1.7-4.42c2.82.17,3.93,1.83,4.66,4.46,2.07,7.46,0,14.64-1,21.9a7.33,7.33,0,0,1-4,5.52c-1.31.73-2.59,1-3.41,2.87s-3.4.62-5.07.05c-1-.33-1.62-1.47-2.42-2.25C113.73,425.36,114.5,425.72,115.26,426.07Z" transform="translate(-11.13 -193.46)"/><path class="cls-5" d="M124.65,392.79c-3.38-.15-6.87-.78-9.49,2.27-.55-4.08,3.24-3.93,5.34-4.93C122.16,389.33,124.08,390.59,124.65,392.79Z" transform="translate(-11.13 -193.46)"/><path class="cls-5" d="M113.06,399.06c-.42,2-.62,4-1.69,5.8-1.47,0-1.08-.86-.82-1.68-.35-2-.4-3.87,1.47-5.22C112.86,397.86,113.4,398.05,113.06,399.06Z" transform="translate(-11.13 -193.46)"/><path class="cls-48" d="M115.26,426.07l-1.52.67a6.85,6.85,0,0,1-2.33-4.39C113.29,423,113.64,425.18,115.26,426.07Z" transform="translate(-11.13 -193.46)"/><path class="cls-90" d="M110.55,403.18l.82,1.68a7.22,7.22,0,0,1-.8,4.35C110.45,407.2,109.86,405.19,110.55,403.18Z" transform="translate(-11.13 -193.46)"/><path class="cls-91" d="M113.06,399.06l-1-1.1c1.29-.76,1.49-2.7,3.22-3Z" transform="translate(-11.13 -193.46)"/><path class="cls-92" d="M111.28,416.28c.12,1.52.25,3,.37,4.56-3-.76-.15-3.29-1.38-4.58A.65.65,0,0,1,111.28,416.28Z" transform="translate(-11.13 -193.46)"/><path class="cls-93" d="M111.28,416.28l-1,0c-.49-1.06-1.47-2.35,1-2C110.4,414.94,111.32,415.6,111.28,416.28Z" transform="translate(-11.13 -193.46)"/><path class="cls-94" d="M122,300.89c0-.46,0-.92,0-1.39,1,.14,2.62.19,2.31,1.52C124,302.1,122.73,301.93,122,300.89Z" transform="translate(-11.13 -193.46)"/><path d="M298,435.2c2.06,3.1,3.44,1.85,4.61-.73,1.56,1.33,3.65-1.06,5.14.75,1.81,2.72,1.48,4.77-1.41,6.74-4,2.71-7.62,5.87-11.46,8.77-3,2.28-4.53-.58-6.26-2.11s-1-2.58.69-3.84c1.82-1.4,1.4-3-.28-4.69a15.56,15.56,0,0,0-9.49-4.68c-2.26-.28-4.39-1.57-6.58-2.41-3.77-2.09-7.48-4.59-12-1.76-3.57,2.24-5.48-.43-6.95-2.79-1.65-2.63,1.93-3.91,2.82-4.32,3.81-1.8,6.35-5.43,10.77-6.5,3.27-.79,4.67.5,4.72,2.78.09,3.91,2.94,4.16,5.35,4.77,1.39.35,2.88.18,4,1.7a45.24,45.24,0,0,0-1.25-5.91c-.36-1.69-1.46-3.25-3.78-2.54-1.43.43-2.29-.41-3.1-1.46a2.52,2.52,0,0,1,.4-3.36c3.8-3,7.61-6.2,12.18-7.95,1.38-.53,3.39-1.65,5,.58s2.57,4.45.71,7c-3.79,2.29-4.17,3.11-1.42,8.4a18.42,18.42,0,0,1,2,5.83A10,10,0,0,0,298,435.2Z" transform="translate(-11.13 -193.46)"/></svg>