<svg id="Layer_1" data-name="Layer 1" xmlns="http://www.w3.org/2000/svg" viewBox="0 0 449.43 331.52"><defs><style>.cls-1{fill:#272727;}.cls-2{fill:#baf280;}.cls-3{fill:#262626;}.cls-4{fill:#777;}.cls-5{fill:#cfcfcf;}.cls-6{fill:#d6d6d6;}.cls-7{fill:#d5d5d5;}.cls-8{fill:#eee;}.cls-9{fill:#c7c7c7;}.cls-10{fill:#a6a6a6;}.cls-11{fill:#0d0d0d;}.cls-12{fill:#838383;}.cls-13{fill:#6e6e6e;}.cls-14{fill:#545454;}.cls-15{fill:#2b2b2b;}.cls-16{fill:#7d7d7d;}.cls-17{fill:#101010;}.cls-18{fill:#2a2a2a;}.cls-19{fill:#323232;}.cls-20{fill:#010101;}.cls-21{fill:#020202;}.cls-22{fill:#030303;}.cls-23{fill:#b8b8b7;}.cls-24{fill:#b4b4b3;}.cls-25{fill:#363636;}.cls-26{fill:#9c9c9c;}.cls-27{fill:#a1a1a0;}.cls-28{fill:#454545;}.cls-29{fill:#999998;}.cls-30{fill:#5a5a5a;}.cls-31{fill:#3f3f3e;}.cls-32{fill:#7e7e7e;}.cls-33{fill:#c0c0bf;}.cls-34{fill:#f1f1f1;}.cls-35{fill:#9e9e9d;}.cls-36{fill:#a4a4a4;}.cls-37{fill:#8c8c8c;}.cls-38{fill:#5d5d5d;}.cls-39{fill:#626262;}.cls-40{fill:#191919;}.cls-41{fill:#fcaa58;}.cls-42{fill:#7c7c7c;}.cls-43{fill:#333;}.cls-44{fill:#7b7b7b;}.cls-45{fill:#1d1d1d;}.cls-46{fill:#6a6a6a;}.cls-47{fill:#7a7a7a;}.cls-48{fill:#676767;}.cls-49{fill:#5c5c5c;}.cls-50{fill:#6b6b6b;}.cls-51{fill:#3f3f3f;}.cls-52{fill:#797979;}.cls-53{fill:#373737;}.cls-54{fill:#616161;}.cls-55{fill:#747474;}.cls-56{fill:#5b5b5b;}.cls-57{fill:#717171;}.cls-58{fill:#2d2d2d;}.cls-59{fill:#222;}.cls-60{fill:#414141;}.cls-61{fill:#303030;}.cls-62{fill:#636363;}.cls-63{fill:#282828;}.cls-64{fill:#737373;}.cls-65{fill:#4d4d4d;}.cls-66{fill:#dadada;}.cls-67{fill:#ebebeb;}.cls-68{fill:#d2d2d2;}.cls-69{fill:#d3d3d3;}.cls-70{fill:#ccc;}.cls-71{fill:#acacac;}.cls-72{fill:#898989;}.cls-73{fill:#929292;}</style></defs><path d="M448.28,228.1c-.18-2.47-1.57-3.55-4.08-2.44-1.6,1.37-1.6,3.26-1.85,5.12a31.31,31.31,0,0,1-2.71,10.36c-1.35,2.67-3.63,4.54-4.81,7.19-1.59,3.57-4.14,6.43-6.48,9.5-3.47,4.55-8.69,6.88-12.58,10.95-6.8,7.11-15.92,11.4-23.41,17.74a6,6,0,0,1-1.89.9c-3.5,1.29-6.59,3.41-9.91,5.07-2.37,1.18-5,1.11-7.21,2.44-6.44,3.86-13.67,5.88-20.62,8.51-10.25,3.89-21.31,4-31.87,6.41-6.43,1.48-12.93.85-19.37,1.74-6.93,1-14,0-21,.21a64.34,64.34,0,0,1-11.19-.18c-7.16-1-14.4-1.38-21.6-1.87-10-.66-19.44-3.59-29.1-5.71-12.61-2.75-24.37-8.06-36.53-12.18a89.9,89.9,0,0,1-12.78-5.55c-10-5.21-18.51-12.54-27.43-19.25-6.41-4.88-12.64-10.21-17-17.31a25,25,0,0,0-3.58-4.3c-3.8-3.77-7.41-7.74-11.33-11.38-6.08-5.66-10.07-13.18-16.63-18.39a8,8,0,0,1-1.14-1.32c-7.33-9.08-13.9-18.74-21.62-27.52-4.31-4.89-8.64-9.75-12.57-15-2.52-3.35-6.1-5.75-9.58-8.1-1.66-1.11-3.68-1.25-5.08.5s-.34,3.31.93,4.64c2.18,2.28,4.16,4.71,6.51,6.84,4.18,3.79,9,7,11.81,12.26-6.39-2.18-13-3.56-17.77-9a30.62,30.62,0,0,0-4.51-4.38,151.29,151.29,0,0,1-25.81-24.51,28.2,28.2,0,0,1-6.1-14.59c-.82-6.29-2.56-12.5-2.1-19a66.93,66.93,0,0,0,.17-8.73c-.8-13.52-.07-27,.36-40.54C7,60,12,54.64,15.84,49c.86-1.25,1.19,0,1.18.89s.26,2.09-.64,2.91A33,33,0,0,0,14.05,58c-.5,1.55-1.16,3.13-.94,4.77.93,6.88,1.72,13.82,5.09,19.89-2.47-3.86-4.38-8-4.32-12.91A3.09,3.09,0,0,0,12,66.94c-2.78-.16-3.51,1.88-3.42,3.87A32.85,32.85,0,0,0,13,86.11c4.34,7.37,11.82,12,17.2,18.62,3.35,4.12,8.36,6.9,12.39,10.62a100.85,100.85,0,0,1,13.09,14c4.63,6.28,10.33,11.43,15.91,16.7,2.5,2.37,5.06,4.32,5.68,8A3.37,3.37,0,0,0,81.07,157h.05c1.78-.4,1.91-2,2.33-3.32a10,10,0,0,0-3.67-8.32A152.62,152.62,0,0,1,63.57,130c-8.49-9-15.18-19.51-24.31-27.94C35.7,98.75,34.11,94,30.59,90.66a14.18,14.18,0,0,1-3.93-6.53c-1.47-5.17-4.3-9.78-5.72-15-1-3.6-1.41-7-.22-10.61,1.91-5.75,4.88-11,6.44-17,1.06-4.08,3.82-7.71,4.37-12.09A2.68,2.68,0,0,1,32.44,28c1.72-1.66,2.61-3.8,3.6-5.93C40.12,13.2,47.57,8.14,56.55,6A50.6,50.6,0,0,1,76.68,5c3.56.62,7.28.08,10.76,1.09a86.57,86.57,0,0,0,13,2.87c9,1.17,17,4.66,24.93,8.67,3.23,1.64,6.36,3.51,9.39,5.44,7.38,4.7,16,7,23,12.63s15.27,9.4,22.56,14.67c2.34,1.69,5.43,2.14,7.41,4.53a13.83,13.83,0,0,0,5.44,3.63c3.6,1.58,6.55,4.42,10.12,6.17.56.27.53,1,.7,1.54.82,1.46,2,1.69,3.57,1.26s2.35-1.48,3.63-2,2.57-1,2.49-2.52c-.09-1.77-1.6-2-3-2.27a11.51,11.51,0,0,1-4.34-1.19c-6.33-2.81-11.6-7.31-17.4-11-13.28-8.36-25.79-18-40.51-23.89-6.24-2.52-11.5-6.82-17.43-10a3.5,3.5,0,0,1-1.62.37,3.17,3.17,0,0,1-3.2-2.31,3.12,3.12,0,0,1-2.87-.32,43.39,43.39,0,0,1-3.83-2.64h0C114.88,8.3,110.24,7,105.68,5.39S96,4,91.39,2.44C84.86.27,78,1.82,71.39.23c-2.8-.66-6.59-.17-9.94.14-4.58.42-8.71,2.12-13,3.36-3.34,1-5.26,3.75-8,5.14C36.24,11,34,14.58,31.58,18.12c-4.1,6.13-6.49,13.1-8.93,20a6.22,6.22,0,0,1-2.8,3.47C17.6,43,14.85,43.78,13,46c-2.36,2.77-4.88,5.37-7.12,8.29-4.58,5.95-6,13-5.66,19.87.22,5.09.24,10.28.58,15.4.51,7.63-.21,15.33-.15,23,0,6,.69,12,.62,18a20.83,20.83,0,0,0,1,6.32c1,3.43,4.17,6.14,3.31,10.26-.14.65.5,1.87,1.16,2.78,3.35,4.62,6.2,9.63,11.51,13.2-1.67.18-3.09-.33-3.64,1a2,2,0,0,0,.69,2.2c2.08,1.58,3.35,4,5,5.64,2.43,2.41,4,5.83,7.61,7.33A21,21,0,0,1,32,182c6.49,5.18,12.68,10.87,19.59,15.34,11.23,7.26,21.13,16,31.09,24.73a312.44,312.44,0,0,1,24.2,23.39c3,3.26,6.37,6.15,9.29,9.35,6.59,7.22,12.74,14.76,21.2,20,4.13,2.55,7.34,6.15,10.52,9.84,3.94,4.57,9.71,6.72,14.67,9.92a77.47,77.47,0,0,0,14.26,7.75c3.89,1.5,8,2.14,11.81,3.94,6.09,2.9,12.44,5.36,18.28,8.7,4.95,2.84,10.5,2.54,15.65,4.22,6.56,2.14,13.11,4.5,20.19,4.83,1.8.08,4-.93,5.56.61s3.36,1.5,5.13,1.68c6.69.7,13.44,1,20.1,1.91a251.82,251.82,0,0,0,27.14,2.66c6.2.16,12.49.95,18.57.18,10.72-1.36,21.55-1.76,32.18-4,5.63-1.19,11.51-1.11,17.19-2.43A153.3,153.3,0,0,0,387.51,319a128.33,128.33,0,0,0,19.75-8.82c5.37-3.13,10.25-7.26,15.79-10.28.84-.46,1.46-1.08,1.12-1.86-.86-2,.65-2.62,1.69-3.56a19.07,19.07,0,0,0,6.51-11.63c.49-3.43-.35-6.65-.33-10,0-3.56-.86-5.71-5-5.42,1.66-3.4,3.41-6.09,7.14-6.73a2,2,0,0,0,1.27-1c2-4.29,6-7.24,7.82-11.66s4.56-8.72,5.05-13.75C449,232.25,448.45,230.16,448.28,228.1ZM21.15,86.85c.7.67,1.14,1.56,1.86,2.23.18.15.34.3.49.45-.1.1-.09-.07-.13,0a25.1,25.1,0,0,1-2.13-2.48l-.32-.45Z" transform="translate(-0.15 0.1)"/><path d="M253.59,56.5c-.69-.68-1.4-1.32-2.13-2a12.32,12.32,0,0,1-1.23-.32c.28,4.52,1.27,5,5.49,4.06a3.43,3.43,0,0,0,.87-.59l-.32-.2A3.18,3.18,0,0,1,253.59,56.5Z" transform="translate(-0.15 0.1)"/><path d="M431.57,164a3.42,3.42,0,0,1-1.53-2.34h-.18a2.54,2.54,0,0,0-1.74,2.92,3.06,3.06,0,0,0,.43,1c.95,1.28,2.36,1.7,3.76,2.31a45.28,45.28,0,0,1,4.62,1.9A21.9,21.9,0,0,0,431.57,164Z" transform="translate(-0.15 0.1)"/><path d="M439.52,173.36a7.49,7.49,0,0,1,.1,1.57c-.08,1.87,1.4,3.45,3.85,2.52A19.64,19.64,0,0,1,439.52,173.36Z" transform="translate(-0.15 0.1)"/><path class="cls-1" d="M443.45,177.46h0A3.53,3.53,0,0,1,440,174c-1.46-1.86-2.73-3.9-4.17-5.78-2.44-1.12-4.92-2.17-7.38-3.26-.64,1.69.77,2.49,1.52,3.6,3.21,4.79,8,8.44,10,14.1.79,2.18.57,4.64,2,6.6,1.7,1.1.61,2.55.51,3.87a8.81,8.81,0,0,0,.07,2.76c1.28,7.12,1.11,14.26.69,21.46-.17,3-.84,6.22.77,9.15,2-1,3.31-.89,3.53,1.75.16,2,.51,4.09.77,6.13,1.7-6.07,1-12.27,1.27-18.45A131.74,131.74,0,0,0,447.78,191C447.09,186.3,444.82,182,443.45,177.46Z" transform="translate(-0.15 0.1)"/><path class="cls-2" d="M443.1,192.15c2.32,11.37,1.35,22.84.91,34.29a44.81,44.81,0,0,0-1.37,11.24c0,.34.05.86-.13,1-2.94,2.1-2.92,6-5.67,8.52-2.58,2.32-3.43,6.23-5.88,9A69.32,69.32,0,0,1,420.34,266c-3.58,2.68-6.62,6.06-10.19,8.83-5.6,4.34-11.58,8.14-17.34,12.24-3.06,2.19-7,3.63-10.3,5.61-4.16,2.49-9.34,2.23-13.05,5.81-1.28,1.24-4.06.78-6,1.79-10.24,5.21-21.41,7.27-32.61,9-4.81.74-9.62,1.2-14.33,2.6a8.63,8.63,0,0,1-6.13,0,4.22,4.22,0,0,0-2.38-.26c-7.48,1.51-15,1-22.55,1-6.22-.05-12.45.32-18.67-.29-9.45-.93-18.93-1.75-28.38-2.66-4.86-.47-9.07-2.54-13.73-3.24-7.81-1.18-15.16-4.14-22.72-6.3-6.08-1.73-11.81-4.45-17.77-6.57-8.48-3-16.85-6.49-24.22-11.9-6.7-4.92-13.73-9.43-20.09-14.74a87.86,87.86,0,0,1-15.43-16c-5-6.94-11.84-12.52-17.64-18.91-6.55-7.21-13-14.54-19.2-22.05-4.55-5.51-8.33-11.68-13.06-17-4.23-4.78-8.59-9.5-12.49-14.53-3.46-4.48-7-8.69-11.59-12a25.16,25.16,0,0,0-3-2.34,3.38,3.38,0,0,0-3.81.55c-1,1.07-.1,2.43.84,3.38,4.48,4.51,9,9,13.82,13.15a21.83,21.83,0,0,1,6.76,9.12c-5.34-1.8-10-3.62-14.73-5.33-2.47-.9-4.85-3.28-6.51-5.38-4.23-5.32-10.22-8.43-15-13-5.47-5.21-10.39-10.66-15.31-16.21C9.35,145.57,8,140,7.32,134.14s-2.26-11.49-1.94-17.51c.62-11.75-.68-23.52.33-35.32.35-4.1.1-8.38.1-12.58,0-5.59,2.21-10.27,5.37-14.6A18.45,18.45,0,0,0,13.76,50a4.34,4.34,0,0,1,4.89-3c.73,1.49-1.56,2-1,3.38-.45.87.41,2.15-.84,2.77l-1.73,4.46c-1.92,1.45-1.43,3.69-1.78,5.63-.26,1.44,0,3-1.21,4.17-2.45-.5-2.44,1.58-2.53,2.85-.27,3.78,1.36,7.19,2.38,10.74,2,7,7.32,11.5,12.22,15.9s9,9.31,14.25,13.35a96.29,96.29,0,0,1,21,22.25c2.76,4,6.9,7.19,10.5,10.65a43,43,0,0,0,5.7,5,6.45,6.45,0,0,1,2.46,5.1c.08,1.65.57,3,2.51,3.18a34.23,34.23,0,0,1,4.61,10.65c.66,2.52,1.78,4,4.38,4.78,3,.84,5.87,2.09,8.9,3a12.17,12.17,0,0,0,9.38-.91,4.62,4.62,0,0,0,3-1.38,28.67,28.67,0,0,0,10.33-16.79,50.53,50.53,0,0,0-.15-16.91,11.9,11.9,0,0,1-.22-3.47,8.07,8.07,0,0,0-2-6.77c-2-2.21-2.55-5.19-4-7.7-1-1.65-.13-2.72,1.46-3.15,3.91-1.07,7.5-3.19,11.61-3.56a4.2,4.2,0,0,0,2.48-1.23c1.85-1.75,5.14-1.63,6-4.66,1.34-2,3.8-2.26,5.62-3.52q.54-.47,1.11-.9c1.53-1.17,3.39-1.72,5-2.68a7.56,7.56,0,0,0,2.56-1.18c12.34-7.91,24.75-15.69,38-22.11,10.52-5.53,20.53-12.08,31.8-16.12a4.82,4.82,0,0,1,.93,0,2.31,2.31,0,0,0,2.34-.7,8.27,8.27,0,0,1,1.9-1.42,57.9,57.9,0,0,0,10-4.82c4.11-2.34,7.41-.85,11.12,1,5.27,2.61,8.76,7.21,13.1,10.83,9,7.55,17.89,15.29,26.67,23.12,1.84,1.64,3.38,3.55,5.17,5.23.84.79,1.66,1.71,1,3.06-1.56.84-2.92-.17-4.34-.51-2.66-.64-3.74.41-3.08,3a6.45,6.45,0,0,0,1.89,2.87c2.92,3.06,6.75,4.46,10.59,5.85a4.15,4.15,0,0,0,3.63-.74,4.75,4.75,0,0,1,4.58-.19,13.68,13.68,0,0,1,4.59,3.34c4.78,4.53,10.38,7.89,16,11.19,1.7,1,3.68,1.56,4.83,3.34a1.38,1.38,0,0,1-.78,1.69c-2.25.48-4.06-1.79-6.39-1-.94.32-2.28-.08-2.62,1.24s.71,1.91,1.51,2.55a25,25,0,0,0,11.78,4.86c.8.14,1.74.24,2.28-.48.74-1-.13-1.72-.68-2.43s-1.19-1.47-.61-2.5a2.46,2.46,0,0,1,1.39-.57c5.38,2.26,10.91,4.12,16.27,6.4a89.07,89.07,0,0,1,14.28,5.94c.47.55.85,1.13.43,1.88-1.14,1-2.65.82-4,1.32-2,.79-2,2.15-.39,3a22.85,22.85,0,0,0,13.24,2.16,2.37,2.37,0,0,0,2-1.83c.62-2.68,2.36-2.25,4.33-1.87,13.88,2.69,26.84,7.92,39.45,14.11,1.35,2,4.33,1.87,5.48,4.14h0c2.35,3.06,4.44,6.36,7.11,9.11a22.43,22.43,0,0,1,6.4,13.37,8.5,8.5,0,0,0,.73,1.89A4.45,4.45,0,0,1,443.1,192.15Z" transform="translate(-0.15 0.1)"/><path class="cls-2" d="M82.86,153.53c-1-3.09-1-6.39-4.92-8.11-2.81-1.22-4.69-4.38-6.87-6.73-3.32-3.58-7.65-6.09-10.32-10.33-3.49-5.53-8.72-9.67-12.39-15.07a57.17,57.17,0,0,0-7-7.91c-2.71-2.71-5.81-5-7.24-8.89-.67-1.83-2.34-3.4-3.85-4.78-3.12-2.83-4.36-6.32-5.25-10.37-.45-2-2.52-4-3.08-6.29-.89-3.63-2.86-6.92-2.93-10.83-.09-4.7,1.92-8.68,3.72-12.75a59.49,59.49,0,0,0,3.15-9.74c.74-3,2.74-5.69,3.77-8.66a57.52,57.52,0,0,1,10-17.93c5.66-6.87,13.34-10,22.15-11,7.24-.81,14.36-.07,21.53.47a43.91,43.91,0,0,1,7,1.44c6.61,1.6,13.41,2.17,20,4.28a90.43,90.43,0,0,1,19,8.37c4.64,2.77,9.15,5.88,14.14,7.85,7,2.75,12.77,7.39,19.07,11.2,5.5,3.33,11,6.71,16.28,10.31,3.79,2.58,7.82,4.89,11.53,7.68,4.12,3.11,8.67,6.22,13.7,8.08,2,.74,1.41,1.31.23,2.17a2.37,2.37,0,0,1-2.23,1.31c-4.44-1.64-9.25-2.55-12.63-6.31a2.27,2.27,0,0,0-.55-.43C176.44,53.34,165.53,43.65,152.13,38a29.25,29.25,0,0,1-7-4.58c-4.2-3.46-9.6-4.65-14.25-7.31-9-5.19-19.08-8-28.92-11.3-3.11-1-6.4-1.23-9.6-1.8a37.33,37.33,0,0,1-9.11-2.34c-2.81-1.29-5.77-.47-8.63-.9a35.26,35.26,0,0,0-13.88.38c-3.26.81-6.19,2-8.44,4.63a12.35,12.35,0,0,1-4,2.74c-8.55,4-11.23,8.56-10.59,18,0,.35.19.74.09,1-2.64,8.17,2.41,14,6.29,20,3,4.62,6.12,9.1,9,13.76,4.36,7,10.6,12.4,15.88,18.61a24,24,0,0,1,3.43,4.41,51.5,51.5,0,0,0,9,12c3.92,4.16,7.52,8.55,11.12,13,1.48,1.82,3.41,1.88,5.43,1.47a44.85,44.85,0,0,1,7.3-.84,8,8,0,0,1,8.13,5c4.22,9.57,6.53,19.44,3.87,29.92a9,9,0,0,0-.26,2.43c.14,6.45-2.77,10.94-8.67,13.49-3.39,1.47-6.49,3.75-10.51,3.46A7.22,7.22,0,0,1,93,171.48c-3.14-3.11-6.69-6.06-7.68-10.63C84.72,158.31,82.28,156.42,82.86,153.53Z" transform="translate(-0.15 0.1)"/><path d="M82.86,153.53c1.78,3.9,3.36,7.91,5.43,11.66.95,1.71,2.65,3,3.87,4.69a6.53,6.53,0,0,0,7.06,2.45c5.31-1.31,10.26-3.32,14.13-7.36a9.55,9.55,0,0,0,2.47-5.95c.64-6.3,2.17-12.53,1.44-18.92a45.69,45.69,0,0,0-5.65-17.19c-1.65-3-4.44-3.52-7.52-3.11-2.26.3-4.49.84-6.76,1.1-2.78.32-4.53-.71-6.57-3.07-2.86-3.29-5-7.14-8.39-10.1a41.08,41.08,0,0,1-9.44-11.81c-3.22-6.14-8.62-10.45-13-15.57a106.33,106.33,0,0,1-10.4-14.28,133.68,133.68,0,0,0-7.9-11.3c-3.09-4.06-6.69-9.28-5.8-13.56C37,35.43,35,29.1,38.53,23.86a17.84,17.84,0,0,1,9.31-7.14c2.27.57,2.81,2.13.73,3.5-3.42,2.26-4.63,5.64-5.9,9.08-.12.5.15.47.52.31a18.61,18.61,0,0,1,7.44-3,8.19,8.19,0,0,1,1.48-.17c7.64.48,15.53-.6,22.84,1.78,4.72,1.54,10,1.16,14.31,4.4,2.69,2,6.44,1.92,9.74,2.53,4.27.79,8.46,1.71,12.07,4.19,3.77,2.58,8.3,2.79,12.42,4.28a129.08,129.08,0,0,1,22.11,10.2,86.82,86.82,0,0,0,20.25,9.31c2.38.68,4.54,1.83,6.83,2.68a70.58,70.58,0,0,0,14.51,3.71,4.12,4.12,0,0,1,2.95,1.68c1.72,2.67,1,4.93-1.15,7a6.1,6.1,0,0,1-6.09-.43c-9.6-4.47-19.22-8.9-29-13-8.07-3.33-15.37-8.46-23.42-11.71-9.82-4-19.43-9-30.39-9.52C88.19,41.78,76.55,38,64.3,38.9c-7.28.5-14.64.22-21.81,1.88-2.46,1.37-.91,3.13-.2,4.47a263.66,263.66,0,0,0,16.16,25.6C62.73,77,68.08,82.19,73,87.78c1.65,1.89,4,3.16,5,5.66a152.38,152.38,0,0,1,10.48,13.41,16.87,16.87,0,0,0,5.2,5.1c.4.23,1,.44,1.07.85,1.08,4.24,4.16,3.18,7,2.66,1.14-.21,2.34-.94,3.41-.56,6.05,2.1,10.48-1.52,15.09-4.24a15.64,15.64,0,0,1,7.92-2.38c1.7-.18,3.16-1.27,4.9-1.27,1.47,0,3-.16,3.73,1.61-.43,2.14-1.37,3.74-3.88,3.62-1.06,0-1.53.9-2.33,1.28a20.16,20.16,0,0,1-2.34,1.25c-3.88,1.22-7.73,2.64-11.68,3.58-2.39.58-1.8,1.4-.8,2.68,2.26,2.89,2.49,7,5.71,9.36,1,.76.14,2.18.16,3.29.08,5.93.28,11.91.57,17.76.31,6.32-3,10.1-5.34,14.95-1.5,3.09-3,5.3-5.9,6.79-.75.82-2,.5-2.78,1.35-5.44,3.81-10.56.72-15.87-.54s-8.19-4-8.94-9.58c-.37-2.72-2.65-5.06-2.85-8C82.57,156.48,81.82,154.28,82.86,153.53Z" transform="translate(-0.15 0.1)"/><path class="cls-3" d="M312.89,109.4c-1-2-3-3.26-4.5-4.7-3.82-3.73-8.49-6.58-12-10.81-4.68-5.67-11.15-9.4-16.29-14.66a56.46,56.46,0,0,0-7-6.1,105.79,105.79,0,0,1-17-15.62h-.32c-4,.52-4.49.48-4.6-3a16.2,16.2,0,0,1-7.2-3.92,3.5,3.5,0,0,1-4.95,0l-.05,0c-4.07,2-8.23,3.72-11.85,6.47a3.08,3.08,0,0,1-1.69.68c-.23.09-.46.16-.7.23a2.61,2.61,0,0,1-.53.52c-.44,1-.4,1.75,1.19,1.86A30.68,30.68,0,0,0,233.33,57c2.3-1.26,4.94-3.52,7.26-2.68,5.22,1.9,10.54,4.07,13.87,9.06A5.08,5.08,0,0,0,256,65.21c3.91,2,6.69,5.4,10,8.11,6.69,5.44,13.37,11,19.53,17,2.44,2.38,5.89,4.13,6.91,7.84,2.67,2.94,4.92,6.25,8,8.78,1.5,1.43,4,.76,5.36,2.43a13.53,13.53,0,0,1,4,2.87,2.51,2.51,0,0,0,1.81.38A3.28,3.28,0,0,0,312.89,109.4Z" transform="translate(-0.15 0.1)"/><path class="cls-1" d="M220.16,58.85a3.3,3.3,0,0,1-2.23.79h-.39l-.15.12c-2.14,1.57-4.67,1.16-7,1.84,1,.19,2.34-.09,2.56,1.2s-1,1.57-2.06,1.69c-.89.09-1.26,1-1.9,1.29-1.5.71-3.12,2.23-4.78.18l-2,.79c-3.09.09-5.24,2.28-7.83,3.5a3.27,3.27,0,0,1-2.76,1c-.74,0-1.51-.3-2.18.28,1.57,2.29.22,4.27-.68,6.29a.58.58,0,0,0-.15.31.55.55,0,0,0,.22.57c6.69-2.35,11.92-7.33,18.51-10.06,4.59-1.9,9.12-4.19,13.69-6.29C221.29,60.75,221,59.59,220.16,58.85Z" transform="translate(-0.15 0.1)"/><path class="cls-4" d="M12.07,67.41c-.58-2.68,1.44-5,.88-7.8-.19-1,1-1.73,2.11-2-1.71,8.89.1,17.15,4.49,24.94.79,1.4,1.65,2.76,2.48,4.13.22.95-.25,1.19-1.08,1.08-4.08-5.19-8.31-10.31-7.74-17.56A4.78,4.78,0,0,0,12.07,67.41Z" transform="translate(-0.15 0.1)"/><path class="cls-5" d="M325.52,327.43a6,6,0,0,1-6.33,0c-.38-.26-.38-.52,0-.79,2.05-.39,4.1-.86,6.19-.28a.76.76,0,0,1,.14,1.07Z" transform="translate(-0.15 0.1)"/><path class="cls-6" d="M328.2,326.34c.53-1.06,1.63-.56,2.44-.83a1.21,1.21,0,0,1,1.6.61,1.31,1.31,0,0,1,.1.55c0,1-1,.75-1.57.78H328.3a.74.74,0,0,1-.16-1Z" transform="translate(-0.15 0.1)"/><path class="cls-7" d="M344.58,324.69c-.7-.34-2.07.49-1.92-.67.11-.85,1.43-1.4,2.58-1.19.71.13,2-.29,1.86.84C346.92,325.05,345.45,324.42,344.58,324.69Z" transform="translate(-0.15 0.1)"/><path class="cls-8" d="M58.23,194.25c1.73-.23,2.8-.1,3.86,1A3.12,3.12,0,0,1,58.23,194.25Z" transform="translate(-0.15 0.1)"/><path class="cls-9" d="M319.19,326.63v.79a2.81,2.81,0,0,1-3.39.27.64.64,0,0,1-.08-.61C316.77,326.18,318,326.74,319.19,326.63Z" transform="translate(-0.15 0.1)"/><path class="cls-10" d="M374.07,300.92a2.22,2.22,0,0,1,2.34-1.68,1.17,1.17,0,0,1,.21.87C376.09,301.29,374.9,300.54,374.07,300.92Z" transform="translate(-0.15 0.1)"/><path class="cls-11" d="M429.93,273.29c0,.47,0,1-.55,1.09s-.75-.47-.71-.87.25-1,.53-1.06C429.82,272.24,429.82,272.85,429.93,273.29Z" transform="translate(-0.15 0.1)"/><path class="cls-7" d="M328.2,326.34l.1,1.08a4.15,4.15,0,0,1-2.78,0l-.14-1.08A3.46,3.46,0,0,1,328.2,326.34Z" transform="translate(-0.15 0.1)"/><path class="cls-12" d="M412.24,279.16c.31-1.5.89-2,2.13-2C414.28,278.5,413.19,278.42,412.24,279.16Z" transform="translate(-0.15 0.1)"/><path class="cls-1" d="M154.6,284.91a2.08,2.08,0,0,1-2.14-2h0C153.7,283.16,154.08,284.13,154.6,284.91Z" transform="translate(-0.15 0.1)"/><path class="cls-13" d="M21,87.76,22,86.68,23.33,89c.21.16.26.3.18.43s-.16.18-.24.18C22.18,89.39,21.61,88.51,21,87.76Z" transform="translate(-0.15 0.1)"/><path class="cls-3" d="M16.79,53.15c.42-.88-.18-2.07.84-2.77C18.33,51.6,18.61,52.7,16.79,53.15Z" transform="translate(-0.15 0.1)"/><path class="cls-14" d="M65.57,195.76c.47,0,1,.09.93.71,0,.18-.49.46-.74.45a1.08,1.08,0,0,1-.75-.51C64.85,196,65.21,195.85,65.57,195.76Z" transform="translate(-0.15 0.1)"/><path class="cls-15" d="M273.09,324.29c.64,0,1,.33,1,.78a1.17,1.17,0,0,1-.51.66,3.06,3.06,0,0,1-1-.75C272.56,324.91,272.94,324.49,273.09,324.29Z" transform="translate(-0.15 0.1)"/><path class="cls-3" d="M23.27,89.61a1.79,1.79,0,0,1,.06-.61A3.23,3.23,0,0,1,25,91.56C23.71,91.31,23.75,90.24,23.27,89.61Z" transform="translate(-0.15 0.1)"/><path class="cls-16" d="M423.28,269.48c.41,1,.56,2.14-.43,2.17-1.25,0-.39-.84-.15-1.32A7.08,7.08,0,0,1,423.28,269.48Z" transform="translate(-0.15 0.1)"/><path class="cls-17" d="M360.3,305.9a2.72,2.72,0,0,1-.87.34c-.39,0-.64-.33-.33-.66a1.61,1.61,0,0,1,.9-.32C360.06,305.25,360.17,305.61,360.3,305.9Z" transform="translate(-0.15 0.1)"/><path class="cls-18" d="M427.23,159.77a3.08,3.08,0,0,1,2.6,2.25,5.85,5.85,0,0,0-1.42,2.88c-2-1-4.49-1.19-5.57-3.59C424.06,160.08,426,160.85,427.23,159.77Z" transform="translate(-0.15 0.1)"/><path class="cls-19" d="M443.1,192.15c-1-.83-.41-1.9-.44-2.88C444.31,190,444.25,191,443.1,192.15Z" transform="translate(-0.15 0.1)"/><path d="M424.36,157.78c-4-1.9-8-4.05-12.13-5.63-5.89-2.23-11.89-4.17-17.92-6-2.11-.63-4.25-1.18-6.4-1.7a17.27,17.27,0,0,1-4-.19,41.34,41.34,0,0,1-8.16-2.41,13.69,13.69,0,0,1-2.37-1A50.9,50.9,0,0,1,360,133.17c-.14,1-.94.78-2,.58-1.19-.54-2.55.14-3.72-.52h0c-2.09.25-2.21.91-.63,3.46,4.86,1.37,9,4.59,13.94,5.67A4.14,4.14,0,0,0,371,144a4.84,4.84,0,0,1-2.68-.37c-1.37.19-2.75.41-4.13.58-1.16.15-2.7.29-2.86,1.46a3.82,3.82,0,0,0,2,3.76,5.81,5.81,0,0,0,1.95.68c2.94.51,5.92.86,8.84,1.46a7.17,7.17,0,0,0,4.7-.43c1.72-.83,1.58-2.78,1.73-4.53,3.26,1.43,6.53,1.59,9.59,2.42a187.35,187.35,0,0,1,23,8.23c3.22,1.35,6.15,3.54,9.72,4.06,1.46-.54,3.95,1.89,4.39-1.54h0A4.78,4.78,0,0,0,424.36,157.78Zm-52.27-13.72h.3a3.17,3.17,0,0,1,2.07.57A3.88,3.88,0,0,0,372.09,144.06Z" transform="translate(-0.15 0.1)"/><path d="M284.28,173.79c-1.7,4.7-3.43,9.23-8.16,12-5,3-9.09,7.44-14.61,9.78-1.1.47-1.75.74-2.78,0-5.33-3.64-10-7.68-9.63-15,0-.46.08-1-.46-1.17-5.18-1.35-9.67-5.82-15.8-3.15-1.56.68-3.21,2.72-5.36,1.13C224,174.79,219,173,217.76,169c-.73-2.36-2.29-4.24-2.82-6.59-.33-1.45.66-1.83,1.5-2.4,7.95-5.48,15.86-11,23.86-16.41,4.79-3.24,8.76-7.61,14.15-10.06,1.74-.8,2.69-1,4.15.5,3.63,3.8,7.24,7.61,10.63,11.62,1,1.12,1.06,1.57-.29,2.62-4,3.14-4.48,8.5-1.34,12.57,1.65,2.13,2,2.5,5.26,2.48S284.94,170.9,284.28,173.79Z" transform="translate(-0.15 0.1)"/><path d="M378.15,235.25c-.22-5.44-.12-10.27,3.76-14.1a19,19,0,0,1,4.28-3.52,85.46,85.46,0,0,0,8.68-5.07c4.58-3.17,9.43-2.52,14.34-1.42,2.78.62,3.94,3.44,5,5.37,3.3,6,5.09,13.2-3.13,17.8-3.77,2.1-7.21,5-11.11,7.09-4.77,2.51-10,4.07-14.75,6.62-1.36.73-3.42.15-5.15.18a.76.76,0,0,1-.89-.74C378.45,243.24,376.78,239.12,378.15,235.25Z" transform="translate(-0.15 0.1)"/><path d="M291.56,266A26.93,26.93,0,0,1,297.23,251c3.66-4.52,9.34-5,14.76-6,4.28-.75,8.32.34,12.44.77,3.92.41,9.29,7.92,9.07,12.18a1,1,0,0,1-.1.34c-.92,2,1.44,4.52-.71,6.24a18.65,18.65,0,0,1-10.5,3.89c-4.43.25-8.33,2.18-12.68,2.73a57.49,57.49,0,0,1-14.71.24C292,271.06,291.59,270.06,291.56,266Z" transform="translate(-0.15 0.1)"/><path class="cls-20" d="M120.69,175c-.88-.23-2.23.1-2.48-1.26s.86-1.77,1.85-2.1c3.26-1.1,6.67-1.85,9.76-3.29,4-1.86,7.67-4.42,11.62-6.38,3-1.51,5.7-4.12,9.48-3.92a.85.85,0,0,0,.55-.29c5.6-6.3,13.16-10.07,19.76-15,6.17-4.64,12.51-9.18,19-13.42,5.19-3.39,10.23-7,15.52-10.22,7.06-4.29,13.58-9.39,20.59-13.73,12.31-7.62,24.89-14.71,39.6-16.78,1.28-.18,2.57-.82,3.95-1a1.6,1.6,0,0,1,2,1.06h0c.35,1.35-1,1-1.6,1.21-5.36,1.59-10.87,2.76-16.07,4.75a111.85,111.85,0,0,0-24.64,12.58c-6.07,4.27-12,8.7-18.17,12.86-7.52,5.09-15.23,9.95-22.44,15.46-9.21,7-19.49,12.56-28.26,20.16-5.54,4.8-12.3,7.2-18.61,10.53-3.8,2-7.25,4.68-11.33,6.24A57.46,57.46,0,0,1,120.69,175Z" transform="translate(-0.15 0.1)"/><path d="M207.7,259c-.15-6.58,4.32-11.77,12.06-11.76,5.37,0,10.11,1.65,14.83,3.53,1.21.48,2.38.27,3.54.79,5.55,2.48,11.05,11.37,10.49,17.38-.24,2.55-2.05,3.33-4.25,3.81-6.87,1.5-13.5.42-19.91-2a100.5,100.5,0,0,0-9.94-2.89C209.52,266.48,207.57,264.2,207.7,259Z" transform="translate(-0.15 0.1)"/><path class="cls-20" d="M176.16,239.54v3.78c0,3-2.49,4.57-5.27,3.67-7.34-2.38-12.94-7.41-18.91-12-2.59-2-3.36-4-3.36-7.33a9.26,9.26,0,0,1,3.08-7.39c1.72-1.55,4.31-1.1,6.57-1.08,4.17,0,6.78,3.3,10.12,5.05,2,1.06,3.32,3,5.45,4.21,1.8,1,1.77,4,2.19,6.24a25.77,25.77,0,0,1,.06,4.81Z" transform="translate(-0.15 0.1)"/><path class="cls-20" d="M219.72,197.47c.09-6.59,7.15-12.58,13.6-11.58,3.34.52,6.74.53,8.79,4.14,2.36,4.18-.12,12.36-4.56,14.15-5.06,2-9.85,2.3-14.77-.8C220.31,201.85,219.32,200.18,219.72,197.47Z" transform="translate(-0.15 0.1)"/><path class="cls-20" d="M200.64,172.85c.75,9.85-6.66,12.91-13.47,12.83-3.71,0-7.77-4.8-7.48-9,.49-7.18,3.6-11.84,8.64-11.81C195.53,164.85,200.7,168.37,200.64,172.85Z" transform="translate(-0.15 0.1)"/><path class="cls-20" d="M278.83,210.46c-2.9.56-5.5-1.07-8.26-1.81-1.92-.51-2.21-5-.78-7.76,2.21-4.27,9.81-9.53,15.32-7.62,1.34.46,2.75-.12,4.22.89,4.79,3.27,5.21,8.85.54,12.55A15.51,15.51,0,0,1,278.83,210.46Z" transform="translate(-0.15 0.1)"/><path class="cls-20" d="M225.24,58.12l.26-.39a2,2,0,0,1-.49,0,3.21,3.21,0,0,1-2.79,1.43,3.43,3.43,0,0,1-1.82-.49,3.18,3.18,0,0,1-1,.74,7.33,7.33,0,0,1,1.66,3,1.33,1.33,0,0,0,.68.12,5.24,5.24,0,0,0,2.17-.74l1.6-1.38C224.37,59.72,224.33,59,225.24,58.12Z" transform="translate(-0.15 0.1)"/><path class="cls-20" d="M346.94,187.79c-.08,3.58-5.26,8.44-9.23,8.29-3.47-.14-6.87-.31-10.26-1.91-2.73-1.28-3.18-3.67-2.6-5.17,1-2.54,1.76-5.75,5.43-6.49s6.92-2.4,10.88-1.5C344.81,181.85,347,183.94,346.94,187.79Z" transform="translate(-0.15 0.1)"/><path class="cls-20" d="M143.17,104.38l-.73.73c-2.33,1.12-4.38-.17-6.51-.76-10.88-1.3-21.61-3-31.93-7.06-6.26-2.46-13.1-1.69-19.74-1.45-2.68.1-5.16,0-6.64-2.72a3,3,0,0,1,2.6-3.36,3.11,3.11,0,0,1,.61,0c6.28.45,12.65-.85,18.84.6,6.55,1.53,12.93,3.76,19.39,5.67,3.47,1,7.12,1.2,10.66,1.89,3.74.72,7.71.67,11.06,2.89C141.85,101.85,144.17,102,143.17,104.38Z" transform="translate(-0.15 0.1)"/><path class="cls-20" d="M300.12,177.19a15.91,15.91,0,0,1-6.84-1.29c-4.22-1.59-4.65-6.25-1.63-9.66,4.54-5.13,10-5.12,15.77-3.57,3.51.94,4.55,5.63,2.59,8.56C307.54,174.92,304.68,177.45,300.12,177.19Z" transform="translate(-0.15 0.1)"/><path class="cls-21" d="M246.7,133.5c-2.82,1.65-4.95-.94-7.4-2.21-3.49-1.81-5.14-4.74-4.28-8.63.7-3.16,2.27-5.85,6-6.89a21.29,21.29,0,0,1,8.7-.55,6.88,6.88,0,0,1,5.84,4.76c1.11,3.6-.11,10.64-3.45,12.42C250.5,133.25,249,134,246.7,133.5Z" transform="translate(-0.15 0.1)"/><path class="cls-1" d="M143.17,104.38c.1-2-1.91-1.76-2.78-2.73.69-1.47,2.06-2.15,3.35-2.92,8.51-5,17.17-9.72,25.49-15,3.21-2,6.64-3.81,10-5.63a7.29,7.29,0,0,1,4-1c1.79.66,3.58,1.28,5.53.74l.07.88c-13.15,6.6-25.61,14.37-38.07,22.13-.81.46-1.93.06-2.58,1C147.07,103.71,144.66,103.16,143.17,104.38Z" transform="translate(-0.15 0.1)"/><path class="cls-21" d="M297.21,142c-5.5-.4-10.38-.05-14.6-3a6.16,6.16,0,0,1-2.62-6.93c.63-2.76,2.73-3.55,5.46-3.66,4.41-.17,8.78-.91,12.94,1.42a7.31,7.31,0,0,1,3.63,8.42A5.08,5.08,0,0,1,297.21,142Z" transform="translate(-0.15 0.1)"/><path class="cls-21" d="M371,171.11c-2.29-4.63-1.37-5.69,2.83-8.69,5.25-3.75,10.33-2.11,15.6-1.15a2.92,2.92,0,0,1,2.65,3c0,1.72.94,3.66-1.33,5a27.57,27.57,0,0,1-16.52,4c-.39,0-.74-.5-1.11-.77C372.58,171.85,371.61,171.73,371,171.11Z" transform="translate(-0.15 0.1)"/><path class="cls-22" d="M341.45,162.55c-4.77.15-8.6-2.06-12.76-2.82-1.66-.31-2.28-3.85-.82-4.93,1.84-1.34,3.57-3.43,6.27-2.84,4.18.9,8.25-.79,12.47-.27,2.89.36,4.58,2,5.1,4.16.59,2.47-.93,4.69-3.64,5.36C345.77,161.78,343.58,163.14,341.45,162.55Z" transform="translate(-0.15 0.1)"/><path class="cls-1" d="M354.18,133.23c-2.2.79-.41,2.31-.63,3.46a107.3,107.3,0,0,1-16.14-6.3c-1.42-.55-3.11-.35-4.28-1.58-1-.56-1.34-1.71-2.05-2.53-7.69-3.74-15-8-21.14-14.08h2.16c3.87,1.09,8,1.37,11.37,4,1.3,1,2.67,1.83,3.43,3.36a4.25,4.25,0,0,0,3.67,2.3c2.66.85,4.25,3.24,6.7,4.5C342.72,129.1,348.65,130.67,354.18,133.23Z" transform="translate(-0.15 0.1)"/><path class="cls-21" d="M292.54,98.12c3.85,1.77,5.56,5.64,8.37,8.44,1.41.57,1.42,1.59.87,2.78a3.31,3.31,0,0,1-4,1.14c-4.6-1.58-8.95-3.67-12.31-7.28a4.89,4.89,0,0,1-1.56-3.68c.21-3.15,1-3.88,4.16-3A44.19,44.19,0,0,1,292.54,98.12Z" transform="translate(-0.15 0.1)"/><path class="cls-22" d="M335.88,130.43c0,.23,0,.53.14.66,1.39,1.38,4,2.49,2.58,4.86-1.2,2-3.62.82-5.45.4a26.65,26.65,0,0,1-11.86-6c-.83-.72-1.77-1.45-1.1-2.92s1.7-1.08,2.83-1.29a9.56,9.56,0,0,1,7.33,1.45,6.6,6.6,0,0,1,2.93,1.08A27,27,0,0,1,335.88,130.43Z" transform="translate(-0.15 0.1)"/><path class="cls-15" d="M136,103.18c2,1.26,4.25,1.34,6.4,1.93-1.29,2.13-4.37,1.4-5.65,3.55a6.37,6.37,0,0,0-5.88-.16c-1,.41-2,1.07-3.25.73.38-2.06,2.23-2.47,3.72-3.25S134.87,104.76,136,103.18Z" transform="translate(-0.15 0.1)"/><path class="cls-23" d="M301.78,109.34c-.3-.93,0-2-.87-2.78a13.31,13.31,0,0,1,5,2.77A3.68,3.68,0,0,0,301.78,109.34Z" transform="translate(-0.15 0.1)"/><path class="cls-24" d="M335.88,130.43a2,2,0,0,1-2.59-1.13,1.61,1.61,0,0,1-.09-.29.63.63,0,0,1,0-.88l.06,0,4.16,2.31Z" transform="translate(-0.15 0.1)"/><path class="cls-25" d="M367.45,142.36a16.12,16.12,0,0,0,5,1.39c.27.13.36.27.27.4s-.18.21-.27.21c-1.42-.13-3,.59-4.2-.74Z" transform="translate(-0.15 0.1)"/><path class="cls-26" d="M333.25,128.08l-.05.93a4,4,0,0,1-2.85-1.39,1.49,1.49,0,0,0,.73-1.34C332.09,126.53,332.58,127.41,333.25,128.08Z" transform="translate(-0.15 0.1)"/><path class="cls-27" d="M108.18,174.57c.53-1.25,1.34-2,2.78-1.35C110.67,175,109.28,174.47,108.18,174.57Z" transform="translate(-0.15 0.1)"/><path class="cls-28" d="M371,171.11c1,0,1.87.27,2.12,1.43C372.05,172.61,371.18,172.37,371,171.11Z" transform="translate(-0.15 0.1)"/><path class="cls-29" d="M128.24,114.85c.22-1.46,1.22-1.46,2.34-1.25A2,2,0,0,1,128.24,114.85Z" transform="translate(-0.15 0.1)"/><path class="cls-30" d="M148.19,101.77a1.82,1.82,0,0,1,2.33-1.07c.08,0,.17.07.25.12C150.2,101.92,149.06,101.49,148.19,101.77Z" transform="translate(-0.15 0.1)"/><path class="cls-31" d="M221.72,62.46c.53-.82,1.34-.81,2.17-.74C223.28,62.29,222.9,63.54,221.72,62.46Z" transform="translate(-0.15 0.1)"/><path class="cls-22" d="M330.57,121.79c-1.68,1.56-2.9.9-3.84-.83-2.17-4-5.72-5.91-10-6.67a9.79,9.79,0,0,1-4.63-2.13c-.7-1.2.37-1.89.79-2.76l.69,0c1.12.58,2.5-.46,3.54.58a32,32,0,0,1,9.57,4.4A7.64,7.64,0,0,1,330.57,121.79Z" transform="translate(-0.15 0.1)"/><path class="cls-3" d="M317.12,110c-1.21,0-2.5.45-3.54-.58C314.79,109.48,316.24,108,317.12,110Z" transform="translate(-0.15 0.1)"/><path class="cls-18" d="M427.24,159.79l-2.88-2C426.06,157.39,426.84,158.31,427.24,159.79Z" transform="translate(-0.15 0.1)"/><path class="cls-1" d="M358,133.77c-1.29.15-2.62.67-3.72-.52C355.45,133.56,356.8,132.93,358,133.77Z" transform="translate(-0.15 0.1)"/><path class="cls-32" d="M191.56,72.12l-2.11-.6a5.45,5.45,0,0,0-3.06-1.21,61.49,61.49,0,0,1-17.06-4.93c-5.11-2.32-10.77-3.28-15.57-6.39-3.48-2.25-7.67-3.08-10.88-6.16-1.39-1.34-4-2.25-6.1-3.14-5.75-2.43-11.48-5.39-17.52-6.48-5.26-1-9.09-4.1-13.71-5.81-3.2-1.18-6.79-1.4-10.2-2.12-3.13-.66-6.29-.92-8.77-3.28a5.16,5.16,0,0,0-1.87-.83c-2.72-1-5.68.72-8.61-2.07-1.55-1.47-6.15-.84-9.3-1.33-4.95-.77-9.91.68-14.79-.55-.47-.24-.94-.65-1.37,0-2.53,1.28-5.61,1.32-7.77,3.43-.5-.21-1.19,0-1.48-.66.54-1.65,1-3.33,1.65-4.95.75-1.93,1.5-3.7,3.87-4.54,2.66-.93,2.82-2.45.9-3.83a8.45,8.45,0,0,0,2.38-1.33C56.51,8,64.79,8.26,73.46,8.46c8.11.18,15.44,3.52,23.32,4.37s15.34,4.41,23,6.76C125,21.21,129.8,24.23,134.6,27c2.83,1.61,6.09,2,8.79,4.07,11.21,8.41,25.11,12.65,35.55,22.07,4.28,3.87,9.72,5.45,13.84,9.42,2.33,2.24,6.24,2.84,9.44,4.18l-7.77,4.13C193.65,71.63,192.52,71.67,191.56,72.12Z" transform="translate(-0.15 0.1)"/><path class="cls-20" d="M113.59,141.7c.77,7.64-1.33,14.74-4.41,21.53-2.26,5-9.57,6.58-14.23,3.63-2.14-1.35-4-3.05-6.42-4.09s-1.48-3.91-1.85-5.9c-1.51-8.18.59-16.11,2.8-23.85,2-6.82,11.91-10.13,17.89-6.67,1.43.83,1.65,2.12,2.3,3.23C111.64,133,113.56,139,113.59,141.7Z" transform="translate(-0.15 0.1)"/><path class="cls-16" d="M183.24,77.07C172,82.77,161.56,89.73,150.63,95.9l-10.24,5.75c-3-2.42-6.76-1.82-10.15-2.7-3.19-.83-6.76-.4-9.81-1.5-5.21-1.89-10.73-2.64-15.83-4.81-4.1-1.76-8.39-2-12.79-1.86-3.18.07-6.42.66-9.58-.23-2.38-.66-3.37.81-4.2,2.59.13.76-.15,1.08-.93.87-2.78-4.73-7.16-8.07-10.79-12A160.36,160.36,0,0,1,56.23,69.29,170.21,170.21,0,0,1,42.06,47.07a20.37,20.37,0,0,1-1.79-4.47c-.25-1-.65-2.47,1.28-2.57.25,2.9,1.56,3.4,4.06,2s5.23-1.28,7.87-1.43c10.07-.6,20.19-1.66,30,1.9,1.87.68,3.93.31,5.9.53,4.37.51,8.84.49,12.85,2.6a.79.79,0,0,1,.54.22c-.16-.37-.53-.27-.83-.36-1.26-.49-2-1.27-1.54-2.72,7-.22,13.3,2.49,19.5,5.3,1.92.87,3.71,1.79,5.91,1.78,3.59,0,6.18,2.58,9,4.17a274.91,274.91,0,0,0,34,15.87C173.81,71.85,178.45,74.65,183.24,77.07Z" transform="translate(-0.15 0.1)"/><path class="cls-16" d="M77.1,94l.93-.87c2.88,3,6.51,1.68,9.82,1.53A58,58,0,0,1,112.34,99c7.59,3,15.71,3.27,23.7,4.15.25,2-1.4,2.44-2.71,3a19.11,19.11,0,0,0-5.67,3.06c-4.67,0-8.17,3-11.93,5.06-2.25,1.24-4,3.08-6.85,2-3.11-1.23-6.08,0-9.1.47-3.8.55-4.27.29-5.56-3.17-.4-1.07-1.62-.23-2.29-1.08-1.83-2.3-4.33-4.17-5.7-6.68C83.79,101.34,80.23,97.85,77.1,94Z" transform="translate(-0.15 0.1)"/><path class="cls-33" d="M100.45,42.75c.42,1,.79,2,2.06,2.12a.81.81,0,0,1,0,1.29c-6.08-1.77-12.37-1.88-18.59-2.63-3.86-.47-7.7-1.76-11.66-2.36-4.77-.73-9.45.14-14.17,0C53,41.05,47.68,41.35,43,44.1c-.44.26-1.09.67-1.42-.21-.48-1.3-1.18-2.61,0-3.93,5-.61,9.91-2.32,15.18-1.75a53.18,53.18,0,0,0,10.7-.36c7.82-.75,15.17,1.65,22.67,3.07a11.09,11.09,0,0,0,4.66,0C96.45,40.55,98.52,42.06,100.45,42.75Z" transform="translate(-0.15 0.1)"/><path class="cls-34" d="M79.45,33.67c-3.91,1.81-7.7.8-11.47.42A69.59,69.59,0,0,0,46.24,35c-1.33.29-2.66.58-4,1-.66.2-1.33.76-1.67-.28a1.16,1.16,0,0,1,.53-1.55.92.92,0,0,1,.23-.09c1.8-.68,3.18-2.26,5.19-2.52C57.64,30.11,68.64,29.28,79.45,33.67Z" transform="translate(-0.15 0.1)"/><path class="cls-35" d="M41.39,30l1.48.66c-.51.4-1,1-1.72.56S40.83,30.36,41.39,30Z" transform="translate(-0.15 0.1)"/><path class="cls-36" d="M81,35c-.35-.24-.75-.36-.82-.59-.17-.5.13-.82.67-.84s1-.14,1,.42C81.8,34.3,81.29,34.61,81,35Z" transform="translate(-0.15 0.1)"/><path class="cls-37" d="M50.64,27.27c-.16-.5-.74-1.2,0-1.46,1.12-.4.94.93,1.42,1.41Z" transform="translate(-0.15 0.1)"/><path class="cls-20" d="M233.45,53.28a10.45,10.45,0,0,0,2.6-1.27Z" transform="translate(-0.15 0.1)"/><path class="cls-20" d="M227.22,57.05a3,3,0,0,1-2,.69v.38c2.26.06,4.72.68,5.2-2.83a1.38,1.38,0,0,1,.27-.54A34.75,34.75,0,0,0,227.22,57.05Z" transform="translate(-0.15 0.1)"/><path class="cls-38" d="M191.56,72.12a3.84,3.84,0,0,1,2.89-1.27C194.05,72.57,192.72,72.15,191.56,72.12Z" transform="translate(-0.15 0.1)"/><path class="cls-39" d="M376.34,148.29c-4.12,1.37-8,.45-12.68-1.84C368.67,146.22,372.45,147.47,376.34,148.29Z" transform="translate(-0.15 0.1)"/><path class="cls-40" d="M372.45,144.36a2.08,2.08,0,0,0,0-.61l4.42.56C374.83,145.7,373.69,144.31,372.45,144.36Z" transform="translate(-0.15 0.1)"/><path class="cls-41" d="M242.77,170.36c-3.25.35-6.29-3.16-9.53-.82-4.83,3.49-7.57,0-10.61-2.78-.77-.71-1.48-1.48-2.25-2.19-1.51-1.4-1.23-2.64.34-3.7,5.9-4,11.78-7.91,17.73-11.78,5.75-3.75,11.83-7,17.07-11.52.93-.8,1-.53,1.69.17,3.11,3.11,6.37,6.06,10.25,9.71-3.36.41-4,3.06-6.29,3.33a1.21,1.21,0,0,1-1.7-.15.88.88,0,0,1-.12-.17c-.23-2.2.94-4.94-1.67-6.3s-4.87.52-7,1.83c-1.9,1.15-3.67,2.48-5.51,3.72a2.51,2.51,0,0,0-1.34,2.65c.24,1.12,1.27,1.18,2.16,1.46,2.78.86,5.45,5.28,4.89,8a1.23,1.23,0,0,1-1.29,1.15,1.16,1.16,0,0,1-.51-.15c-3.46-1.29-7.91-1.17-8.65-6.31-.19-1.29-1.37-1.75-2.74-1.43-4.64,1.07-7.79,4.51-11.43,7.16a1.45,1.45,0,0,0-.32,2l.14.16a3.57,3.57,0,0,0,2.87,1.75,6.45,6.45,0,0,0,2.69-.68c4.26-2,7.6-.05,10.83,2.45C242.85,168.7,243.29,169.47,242.77,170.36Z" transform="translate(-0.15 0.1)"/><path class="cls-41" d="M242.77,170.36l-.71-2.05c5.25,1.09,10.79,1.29,14.86,5.61,1.64,1.74,2.51,3.37,1,5.52-1,1.36-1,2.52.37,3.64s2.5,1.37,4,.22c3.46-2.56,6.69-5.44,10.33-7.75,2.06-1.31,1.58-3.13,1.35-5a1.31,1.31,0,0,1,1-1l5.62,3.62c-.8,1.69-2.57,2.21-3.85,3.26-4.65,3.83-9.39,7.56-14,11.46-2.12,1.79-3.77,1.88-5.45-.46a29.89,29.89,0,0,0-2.53-2.86c-3.32-3.52-4-2.88.38-6.94C251.82,173.92,246.3,173.85,242.77,170.36Z" transform="translate(-0.15 0.1)"/><path class="cls-41" d="M259.6,150l1.57.74c-1.73,2.41-1.06,4.8,0,7.24,1.65,3.81,3.21,7.67,4.81,11.5.23.75-.22,1-.83,1.19a6,6,0,0,1-5.17-4.9c-1-3.79-2.45-7.46-3.58-11.21C255.51,151.69,256.39,150.6,259.6,150Z" transform="translate(-0.15 0.1)"/><path class="cls-41" d="M275,169.57l-.81.79c-1.69.48-3.38.83-5.06,0a2,2,0,0,1-.6-.74,5.68,5.68,0,0,0,1.22-.64C272.88,166.06,272.87,166.05,275,169.57Z" transform="translate(-0.15 0.1)"/><path class="cls-41" d="M268.57,169.59l.9.08c.65,1.69-.36,2.48-1.75,2.67s-2.61-.16-2.51-2l.76-.82C266.82,170.35,267.71,169.62,268.57,169.59Z" transform="translate(-0.15 0.1)"/><path class="cls-42" d="M404.11,234.2c-5.62,3.86-12.12,6-18.14,9.06-.63.32-2.08,1.12-2.86.15-1.05-1.28,0-2.9-.24-4.39-.17-1.17,1.11-1.35,2-1.29,6.78.46,11.82-3.2,16.89-6.92,1.27-.93,2.89-1.36,4.25-2.31,2.88-2,3.53-4,1.17-6.47-2.11-2.18-2.43-5.72-5.94-6.78a6,6,0,0,1,5.31-.13c1.79.84,3.54,1.23,2.63,4.21-.63,2.11.73,4.52,2,6.48s2,3.24-1.07,4.37a18.82,18.82,0,0,0-4,2.66C405.45,233.24,404.58,233.42,404.11,234.2Z" transform="translate(-0.15 0.1)"/><path class="cls-43" d="M404.11,234.2c-.11-1.67,1-1.52,2.07-1.36A2.22,2.22,0,0,1,404.11,234.2Z" transform="translate(-0.15 0.1)"/><path class="cls-42" d="M297.45,265.3c-.39-2.21.32-3.24,2.55-3.17a61.3,61.3,0,0,0,25.3-4.27c1.42-.57,2.55-.72,2.38.85-.15,1.31,2.86,3.34-.65,4-4.46.89-8.89,1.91-13.38,2.56a28.62,28.62,0,0,0-5.2,1.58c-3.26,1.14-6.32.18-9.46.27C297.45,267.21,296.54,266.85,297.45,265.3Z" transform="translate(-0.15 0.1)"/><path class="cls-44" d="M216.18,252.5c-.23,6.72,2.41,10.08,9.8,12.49a26.35,26.35,0,0,0,12.25.91c.59-.09,1.12-.06,1.51-.56a2.89,2.89,0,0,1,2.5-1.43c-.28,1.4,1.13,2.39.83,3.87-.37,1.82-1.72,1.16-2.73,1.27a31.23,31.23,0,0,1-19.8-3.83,3.65,3.65,0,0,0-1.93-.72c-2.59.22-5.09.08-5.82-2.94-1.17-4.78-.09-7.59,3.34-9.83a.47.47,0,0,1,.22.5C216.3,252.41,216.24,252.5,216.18,252.5Z" transform="translate(-0.15 0.1)"/><path class="cls-45" d="M239.74,257.74c-1.42-.09-2.22-.39-2.46-1.42-.05-.22.29-.77.42-.76C238.81,255.63,238.94,256.69,239.74,257.74Z" transform="translate(-0.15 0.1)"/><path class="cls-46" d="M216.18,252.5l-.05-.77a1.49,1.49,0,0,1,2-.72,1.37,1.37,0,0,1,.3.19A2.71,2.71,0,0,1,216.18,252.5Z" transform="translate(-0.15 0.1)"/><path class="cls-47" d="M156.54,222.85c1.93,0,2.32.62,1.69,2.2-1.11,2.77.4,6.55,2.62,8.37,3.1,2.52,5.78,5.54,9.69,7,1.35.49.89,1.89.5,2.73-.5,1.09-1.42.3-2-.13a59.4,59.4,0,0,1-5.85-4.38,79.45,79.45,0,0,0-9.19-7.26c-2-1.36-1.53-3.59-1.21-5.42A3.79,3.79,0,0,1,156.54,222.85Z" transform="translate(-0.15 0.1)"/><path class="cls-48" d="M235.76,190.85c-1.85-.6-3.76-.15-6.43-.11,2.31-2.29,4.4-1.6,6.39-1.39a1,1,0,0,1,.13,1.41Z" transform="translate(-0.15 0.1)"/><path class="cls-49" d="M223.73,197.85c-.89-2.28,0-4,1.92-5.75.4,2.1-1.22,3.37-1.23,5C224.21,197.32,224.18,197.75,223.73,197.85Z" transform="translate(-0.15 0.1)"/><path class="cls-50" d="M234.71,200.94c.37-.94.45-2,1.86-1.84a.88.88,0,0,1,.43.73,1.68,1.68,0,0,1-2,1.2A1.25,1.25,0,0,1,234.71,200.94Z" transform="translate(-0.15 0.1)"/><path class="cls-51" d="M235.76,190.85v-1.5a5,5,0,0,1,2.46,2.44A2.58,2.58,0,0,1,235.76,190.85Z" transform="translate(-0.15 0.1)"/><path class="cls-52" d="M223.73,197.85l.69-.75c0,1.07,1.23,2,.36,3.31C223.3,199.85,224,198.66,223.73,197.85Z" transform="translate(-0.15 0.1)"/><path class="cls-53" d="M232.87,202.35c-1.19,1.6-1.91.35-3,.27C231.07,201.39,231.84,202,232.87,202.35Z" transform="translate(-0.15 0.1)"/><path class="cls-54" d="M190.15,182.31c-1.16-.47-3.23,1.18-3.45-1.48l0,.06a11.73,11.73,0,0,1,5.78.6C191.86,182.3,191,182.23,190.15,182.31Z" transform="translate(-0.15 0.1)"/><path class="cls-55" d="M190.15,182.31c.55-.85,1.48-.66,2.28-.82C192.27,183.43,191.29,183.11,190.15,182.31Z" transform="translate(-0.15 0.1)"/><path class="cls-56" d="M186.7,180.85c-1,.16-1.69-.34-2.31-1.36,1.5-.32,2.17.11,2.26,1.42Z" transform="translate(-0.15 0.1)"/><path class="cls-38" d="M281.05,197.67c-1.93.4-3.41,2.07-5.63,2C276.89,197.38,277.45,197.14,281.05,197.67Z" transform="translate(-0.15 0.1)"/><path class="cls-57" d="M287.07,200.36l.14-2.33c1.46.41,1.27,1.42,1.1,2.43C287.86,200.9,287.45,200.92,287.07,200.36Z" transform="translate(-0.15 0.1)"/><path class="cls-58" d="M287.07,200.36l1.24.1c0,.65.17,1.73-.58,1.73C286.45,202.2,287.08,201.07,287.07,200.36Z" transform="translate(-0.15 0.1)"/><path class="cls-59" d="M341.37,190.38c.05.56-.21.92-.75.9a1.14,1.14,0,0,1-.84-.41c-.27-.51.1-.89.54-1.07S341.17,189.93,341.37,190.38Z" transform="translate(-0.15 0.1)"/><path class="cls-19" d="M337.67,185.29c-.16.56-.65.49-1.05.47s-1,0-.72-.69a1.17,1.17,0,0,1,.82-.48.77.77,0,0,1,.93.59A.43.43,0,0,1,337.67,185.29Z" transform="translate(-0.15 0.1)"/><path class="cls-60" d="M340.22,186.17c1.31-.44,2-.54,2.41.21.05.1-.22.53-.26.51C341.84,186.75,341.33,186.56,340.22,186.17Z" transform="translate(-0.15 0.1)"/><path class="cls-61" d="M330.63,192.44a2,2,0,0,1-.84-.09,1.25,1.25,0,0,1-.58-.75c-.06-.43.26-.5.63-.34l1.29.55Z" transform="translate(-0.15 0.1)"/><path class="cls-62" d="M296.76,168.24c-.91.94-2.21,1.68-1.52,3.38.2.5.27,1.26-.45,1.41s-1.25-.57-1.38-1.22c-.32-1.69-.21-3.24,1.9-3.73A1.29,1.29,0,0,1,296.76,168.24Z" transform="translate(-0.15 0.1)"/><path class="cls-46" d="M300.39,166.26c1-.23,2-.51,3-.68,2.19-.35,2.93.62,2.44,3-1.74-1.26-3.77-1-5.45-1.84l-.46-.26Z" transform="translate(-0.15 0.1)"/><path class="cls-63" d="M300.39,166.26a1.85,1.85,0,0,0,0,.47c-1.14.66-2.05,1.85-3.61,1.51l-1.45-.16C297,167.57,298.33,165.85,300.39,166.26Z" transform="translate(-0.15 0.1)"/><path class="cls-42" d="M250.87,124.11c.31,3-1.36,6-3.42,6.31-2.92.38-9.09-3.59-9.26-6-.22-3,2.41-5.43,6.18-5.83C247.83,118.26,250.45,120.51,250.87,124.11Z" transform="translate(-0.15 0.1)"/><path class="cls-47" d="M293.5,138.64c-3.29-.35-5.76-2.16-8.52-3.16-1-.36-1.1-1.42-.92-2.42a1.28,1.28,0,0,1,1.32-1.24,1.23,1.23,0,0,1,.46.1c2.14.74,4.35.33,6.52.53a3.91,3.91,0,0,1,2.86,1.09c.87,1.06,2.49,1.93,1.64,3.75C296.11,138.91,294.59,138.56,293.5,138.64Z" transform="translate(-0.15 0.1)"/><path class="cls-47" d="M373.61,166.5c3.18-4.17,7.69-2,11.65-2.35.49,0,1.23.94,1.58,1.59.6,1.12-.68,1.34-1.21,1.77C382.29,170.19,377.45,170.31,373.61,166.5Z" transform="translate(-0.15 0.1)"/><path class="cls-52" d="M331.17,156.31c1.63-1.68,3.13-2.55,5.72-1.54s5.4,1.07,8.13,1.52c.67.11,1.49,0,1.53,1s-.76,1.06-1.41,1.27C341.59,159.69,334.79,158.63,331.17,156.31Z" transform="translate(-0.15 0.1)"/><path class="cls-64" d="M287.17,98.35c3.55,2.17,6.79,4.1,8.67,7.75C291.73,105.35,287.45,101.66,287.17,98.35Z" transform="translate(-0.15 0.1)"/><path class="cls-64" d="M329.74,131.05l1.83,1.61c-1.06.72-1.72-.16-2.48-.31C328.45,131.48,328.58,131,329.74,131.05Z" transform="translate(-0.15 0.1)"/><path class="cls-65" d="M329.74,131.05a1.16,1.16,0,0,0-.65,1.3c-1-.43-1.23-1.48-2-2.31A2.51,2.51,0,0,1,329.74,131.05Z" transform="translate(-0.15 0.1)"/><path d="M92.72,158.46c0-.47.66-.85.23-1.39-1.4-.89-.25-2.3-.7-3.39.47-.86-1.21-2,.3-2.71.44-1.64-.72-3.06-.6-4.65a7.84,7.84,0,0,0,.19-4c.74-1.76.48-3.77,1.38-5.48a39,39,0,0,1,2.74-3.65l-.07.09c2.44-3.45,4.84-4,8.77-2.1l.35,1.29a5,5,0,0,1,2.56,3.9,42.25,42.25,0,0,1-1.11,19c-1.22,4.59-5.17,7.26-9.93,7.29C94.5,162.2,94,159.93,92.72,158.46Z" transform="translate(-0.15 0.1)"/><path class="cls-34" d="M96.28,161.9c5.57-.15,8.07-2.77,9.58-8,1.66-5.81,1.59-11.54,1-17.39a9.21,9.21,0,0,0-1.58-4.09c2.61.17,3.64,1.69,4.31,4.13,1.91,6.9,0,13.54-.93,20.25a6.78,6.78,0,0,1-3.73,5.1c-1.22.68-2.4.95-3.16,2.65s-3.14.58-4.68,0c-.88-.3-1.51-1.36-2.25-2.08C94.87,161.24,95.57,161.57,96.28,161.9Z" transform="translate(-0.15 0.1)"/><path class="cls-66" d="M105,131.13c-3.12-.14-6.35-.72-8.77,2.1-.51-3.77,3-3.64,4.94-4.56C102.67,127.93,104.45,129.1,105,131.13Z" transform="translate(-0.15 0.1)"/><path class="cls-67" d="M94.25,136.93c-.39,1.83-.58,3.71-1.57,5.36-1.35,0-1-.8-.75-1.56-.33-1.82-.37-3.57,1.36-4.82C94.06,135.85,94.56,136,94.25,136.93Z" transform="translate(-0.15 0.1)"/><path class="cls-68" d="M96.28,161.9l-1.41.62a6.38,6.38,0,0,1-2.15-4.06C94.45,159,94.78,161.08,96.28,161.9Z" transform="translate(-0.15 0.1)"/><path class="cls-69" d="M91.93,140.73l.75,1.56a6.69,6.69,0,0,1-.73,4C91.84,144.46,91.29,142.6,91.93,140.73Z" transform="translate(-0.15 0.1)"/><path class="cls-70" d="M94.25,136.93l-1-1c1.19-.71,1.37-2.5,3-2.77Z" transform="translate(-0.15 0.1)"/><path class="cls-71" d="M92.6,152.85c.11,1.41.23,2.81.35,4.22-2.78-.7-.14-3-1.29-4.24a.61.61,0,0,1,.86-.06A.3.3,0,0,1,92.6,152.85Z" transform="translate(-0.15 0.1)"/><path class="cls-72" d="M92.6,152.85h-.94c-.44-1-1.35-2.17.89-1.86C91.79,151.61,92.64,152.22,92.6,152.85Z" transform="translate(-0.15 0.1)"/><path class="cls-73" d="M102.5,46.16V44.87c1,.13,2.43.18,2.14,1.4C104.39,47.27,103.19,47.12,102.5,46.16Z" transform="translate(-0.15 0.1)"/><path d="M265.21,170.34c1.91,2.87,3.18,1.71,4.26-.67,1.44,1.23,3.38-1,4.76.69,1.67,2.52,1.36,4.41-1.3,6.23-3.67,2.51-7.05,5.44-10.6,8.11-2.79,2.11-4.19-.53-5.8-2s-.88-2.38.65-3.55,1.29-2.78-.26-4.34a14.39,14.39,0,0,0-8.78-4.32c-2.09-.26-4.06-1.46-6.08-2.23-3.49-1.93-6.91-4.25-11.07-1.63-3.3,2.07-5.07-.4-6.43-2.58-1.52-2.43,1.79-3.61,2.61-4,3.53-1.66,5.87-5,10-6,3-.73,4.32.46,4.36,2.57.08,3.62,2.72,3.85,4.95,4.41,1.29.32,2.67.17,3.73,1.58a42.56,42.56,0,0,0-1.16-5.47c-.34-1.57-1.35-3-3.49-2.36-1.33.4-2.13-.37-2.87-1.34a2.34,2.34,0,0,1,.37-3.11c3.51-2.8,7-5.73,11.26-7.35,1.27-.49,3.14-1.52,4.67.54s2.36,4.11.65,6.47c-3.5,2.12-3.85,2.87-1.31,7.77a17.77,17.77,0,0,1,1.81,5.39A9.18,9.18,0,0,0,265.21,170.34Z" transform="translate(-0.15 0.1)"/></svg>