<?xml version="1.0" encoding="utf-8"?>
<!-- Generator: Adobe Illustrator 24.3.0, SVG Export Plug-In . SVG Version: 6.00 Build 0)  -->
<svg version="1.1" id="Layer_1" xmlns="http://www.w3.org/2000/svg" xmlns:xlink="http://www.w3.org/1999/xlink" x="0px" y="0px"
	 viewBox="0 0 449.4 331.5" style="enable-background:new 0 0 449.4 331.5;" xml:space="preserve">
<style type="text/css">
	.st0{fill:#272727;}
	.st1{fill:#BAF280;}
	.st2{fill:#FCAA58;}
	.st3{fill:#262626;}
	.st4{fill:#777777;}
	.st5{fill:#CFCFCF;}
	.st6{fill:#D6D6D6;}
	.st7{fill:#D5D5D5;}
	.st8{fill:#EEEEEE;}
	.st9{fill:#C7C7C7;}
	.st10{fill:#A6A6A6;}
	.st11{fill:#0D0D0D;}
	.st12{fill:#838383;}
	.st13{fill:#6E6E6E;}
	.st14{fill:#545454;}
	.st15{fill:#2B2B2B;}
	.st16{fill:#7D7D7D;}
	.st17{fill:#101010;}
	.st18{fill:#2A2A2A;}
	.st19{fill:#323232;}
	.st20{fill:#010101;}
	.st21{fill:#020202;}
	.st22{fill:#030303;}
	.st23{fill:#B8B8B7;}
	.st24{fill:#B4B4B3;}
	.st25{fill:#363636;}
	.st26{fill:#9C9C9C;}
	.st27{fill:#A1A1A0;}
	.st28{fill:#454545;}
	.st29{fill:#999998;}
	.st30{fill:#5A5A5A;}
	.st31{fill:#3F3F3E;}
	.st32{fill:#7E7E7E;}
	.st33{fill:#C0C0BF;}
	.st34{fill:#F1F1F1;}
	.st35{fill:#9E9E9D;}
	.st36{fill:#A4A4A4;}
	.st37{fill:#8C8C8C;}
	.st38{fill:#5D5D5D;}
	.st39{fill:#626262;}
	.st40{fill:#191919;}
	.st41{fill:#75AAF1;}
	.st42{fill:#7C7C7C;}
	.st43{fill:#333333;}
	.st44{fill:#7B7B7B;}
	.st45{fill:#1D1D1D;}
	.st46{fill:#6A6A6A;}
	.st47{fill:#7A7A7A;}
	.st48{fill:#676767;}
	.st49{fill:#5C5C5C;}
	.st50{fill:#6B6B6B;}
	.st51{fill:#3F3F3F;}
	.st52{fill:#797979;}
	.st53{fill:#373737;}
	.st54{fill:#616161;}
	.st55{fill:#747474;}
	.st56{fill:#5B5B5B;}
	.st57{fill:#717171;}
	.st58{fill:#2D2D2D;}
	.st59{fill:#222222;}
	.st60{fill:#414141;}
	.st61{fill:#303030;}
	.st62{fill:#636363;}
	.st63{fill:#282828;}
	.st64{fill:#737373;}
	.st65{fill:#4D4D4D;}
	.st66{fill:#929292;}
</style>
<path d="M448.1,228.2c-0.2-2.5-1.6-3.6-4.1-2.4c-1.6,1.4-1.6,3.3-1.9,5.1c-0.3,3.6-1.2,7.1-2.7,10.4c-1.4,2.7-3.6,4.5-4.8,7.2
	c-1.6,3.6-4.1,6.4-6.5,9.5c-3.5,4.5-8.7,6.9-12.6,11c-6.8,7.1-15.9,11.4-23.4,17.7c-0.6,0.4-1.2,0.7-1.9,0.9
	c-3.5,1.3-6.6,3.4-9.9,5.1c-2.4,1.2-5,1.1-7.2,2.4c-6.4,3.9-13.7,5.9-20.6,8.5c-10.3,3.9-21.3,4-31.9,6.4
	c-6.4,1.5-12.9,0.9-19.4,1.7c-6.9,1-14,0-21,0.2c-3.7,0.3-7.5,0.2-11.2-0.2c-7.2-1-14.4-1.4-21.6-1.9c-10-0.7-19.4-3.6-29.1-5.7
	c-12.6-2.8-24.4-8.1-36.5-12.2c-4.4-1.5-8.7-3.4-12.8-5.5c-10-5.2-18.5-12.5-27.4-19.3c-6.4-4.9-12.6-10.2-17-17.3
	c-1-1.6-2.2-3-3.6-4.3c-3.8-3.8-7.4-7.7-11.3-11.4c-6.1-5.7-10.1-13.2-16.6-18.4c-0.4-0.4-0.8-0.8-1.1-1.3
	c-7.3-9.1-13.9-18.7-21.6-27.5c-4.3-4.9-8.6-9.8-12.6-15c-2.5-3.4-6.1-5.8-9.6-8.1c-1.7-1.1-3.7-1.3-5.1,0.5s-0.3,3.3,0.9,4.6
	c2.2,2.3,4.2,4.7,6.5,6.8c4.2,3.8,9,7,11.8,12.3c-6.4-2.2-13-3.6-17.8-9c-1.3-1.6-2.9-3.1-4.5-4.4c-9.5-7.1-18.2-15.4-25.8-24.5
	c-3.4-4.2-5.5-9.2-6.1-14.6c-0.8-6.3-2.6-12.5-2.1-19c0.2-2.9,0.3-5.8,0.2-8.7c-0.8-13.5-0.1-27,0.4-40.5c0.2-7.2,5.2-12.6,9-18.2
	c0.9-1.3,1.2,0,1.2,0.9s0.3,2.1-0.6,2.9c-0.9,1.7-1.7,3.4-2.3,5.2c-0.5,1.5-1.2,3.1-0.9,4.8c0.9,6.9,1.7,13.8,5.1,19.9
	c-2.5-3.9-4.4-8-4.3-12.9c0-1.2-0.8-2.3-1.9-2.8C9.1,66.9,8.4,69,8.5,71c0.2,5.4,1.7,10.6,4.4,15.3c4.3,7.4,11.8,12,17.2,18.6
	c3.3,4.1,8.4,6.9,12.4,10.6c4.8,4.2,9.2,8.9,13.1,14c4.6,6.3,10.3,11.4,15.9,16.7c2.5,2.4,5.1,4.3,5.7,8c0.2,1.8,1.9,3.2,3.7,3
	c0,0,0,0,0.1,0h0c1.8-0.4,1.9-2,2.3-3.3c0.2-3.2-1.2-6.3-3.7-8.3c-5.8-4.7-11.2-9.9-16.2-15.4c-8.5-9-15.2-19.5-24.3-27.9
	c-3.6-3.3-5.2-8.1-8.7-11.4c-1.9-1.8-3.2-4-3.9-6.5c-1.5-5.2-4.3-9.8-5.7-15c-1-3.6-1.4-7-0.2-10.6c1.9-5.8,4.9-11,6.4-17
	c1.1-4.1,3.8-7.7,4.4-12.1c0.1-0.6,0.5-1.1,0.9-1.4c1.7-1.7,2.6-3.8,3.6-5.9C40,13.3,47.4,8.2,56.4,6.1c6.6-1.7,13.4-2,20.1-1
	c3.6,0.6,7.3,0.1,10.8,1.1c4.3,1.3,8.6,2.2,13,2.9c9,1.2,17,4.7,24.9,8.7c3.2,1.6,6.4,3.5,9.4,5.4c7.4,4.7,16,7,23,12.6
	s15.3,9.4,22.6,14.7c2.3,1.7,5.4,2.1,7.4,4.5c1.5,1.6,3.4,2.9,5.4,3.6c3.6,1.6,6.6,4.4,10.1,6.2c0.6,0.3,0.5,1,0.7,1.5
	c0.8,1.5,2,1.7,3.6,1.3s2.4-1.5,3.6-2s2.6-1,2.5-2.5c-0.1-1.8-1.6-2-3-2.3c-1.5-0.1-3-0.5-4.3-1.2c-6.3-2.8-11.6-7.3-17.4-11
	c-13.3-8.4-25.8-18-40.5-23.9c-6.2-2.5-11.5-6.8-17.4-10c-0.5,0.3-1.1,0.4-1.6,0.4c-1.5,0.1-2.8-0.9-3.2-2.3c-1,0.4-2,0.2-2.9-0.3
	c-1.3-0.8-2.6-1.7-3.8-2.6l0,0c-4.6-1.4-9.2-2.7-13.8-4.3s-9.7-1.4-14.3-2.9c-6.5-2.2-13.4-0.6-20-2.2c-2.8-0.7-6.6-0.2-9.9,0.1
	C56.8,1,52.7,2.7,48.4,4c-3.3,1-5.3,3.8-8,5.1c-4.2,2.1-6.5,5.7-8.9,9.3c-4.1,6.1-6.5,13.1-8.9,20c-0.5,1.5-1.5,2.7-2.8,3.5
	c-2.3,1.4-5,2.2-6.9,4.4c-2.4,2.8-4.9,5.4-7.1,8.3c-4.6,6-6,13-5.7,19.9c0.2,5.1,0.2,10.3,0.6,15.4c0.5,7.6-0.2,15.3-0.1,23
	c0,6,0.7,12,0.6,18c0,2.1,0.3,4.3,1,6.3c1,3.4,4.2,6.1,3.3,10.3c-0.1,0.6,0.5,1.9,1.2,2.8c3.4,4.6,6.2,9.6,11.5,13.2
	c-1.7,0.2-3.1-0.3-3.6,1c-0.3,0.8,0,1.7,0.7,2.2c2.1,1.6,3.4,4,5,5.6c2.4,2.4,4,5.8,7.6,7.3c1.5,0.7,2.8,1.6,4.1,2.7
	c6.5,5.2,12.7,10.9,19.6,15.3c11.2,7.3,21.1,16,31.1,24.7c8.5,7.4,16.6,15.2,24.2,23.4c3,3.3,6.4,6.1,9.3,9.4
	c6.6,7.2,12.7,14.8,21.2,20c4.1,2.5,7.3,6.1,10.5,9.8c3.9,4.6,9.7,6.7,14.7,9.9c4.5,3.1,9.2,5.7,14.3,7.8c3.9,1.5,8,2.1,11.8,3.9
	c6.1,2.9,12.4,5.4,18.3,8.7c4.9,2.8,10.5,2.5,15.6,4.2c6.6,2.1,13.1,4.5,20.2,4.8c1.8,0.1,4-0.9,5.6,0.6s3.4,1.5,5.1,1.7
	c6.7,0.7,13.4,1,20.1,1.9c9,1.4,18.1,2.3,27.1,2.7c6.2,0.2,12.5,1,18.6,0.2c10.7-1.4,21.5-1.8,32.2-4c5.6-1.2,11.5-1.1,17.2-2.4
	c6.4-1.5,12.7-3.3,18.9-5.6c6.8-2.4,13.4-5.3,19.8-8.8c5.4-3.1,10.3-7.3,15.8-10.3c0.8-0.5,1.5-1.1,1.1-1.9c-0.9-2,0.6-2.6,1.7-3.6
	c3.5-3,5.8-7.1,6.5-11.6c0.5-3.4-0.4-6.6-0.3-10c0-3.6-0.9-5.7-5-5.4c1.7-3.4,3.4-6.1,7.1-6.7c0.5-0.1,1-0.5,1.3-1
	c2-4.3,6-7.2,7.8-11.7s4.6-8.7,5-13.8C448.9,232.4,448.3,230.3,448.1,228.2z M21,86.9c0.7,0.7,1.1,1.6,1.9,2.2
	c0.2,0.2,0.3,0.3,0.5,0.4c-0.1,0.1-0.1-0.1-0.1,0c-0.8-0.8-1.5-1.6-2.1-2.5l-0.3-0.4L21,86.9z"/>
<path d="M253.4,56.6c-0.7-0.7-1.4-1.3-2.1-2c-0.4-0.1-0.8-0.2-1.2-0.3c0.3,4.5,1.3,5,5.5,4.1c0.3-0.2,0.6-0.3,0.9-0.6l-0.3-0.2
	C255.1,57.7,254.1,57.3,253.4,56.6z"/>
<path d="M431.4,164.1c-0.8-0.5-1.4-1.4-1.5-2.3h-0.2c-1.2,0.4-2,1.6-1.7,2.9c0.1,0.4,0.2,0.7,0.4,1c1,1.3,2.4,1.7,3.8,2.3
	c1.6,0.5,3.1,1.2,4.6,1.9C435.4,167.7,433.5,165.7,431.4,164.1z"/>
<path d="M439.4,173.5c0.1,0.5,0.1,1,0.1,1.6c-0.1,1.9,1.4,3.4,3.9,2.5C441.8,176.4,440.5,175,439.4,173.5z"/>
<path class="st0" d="M443.3,177.6L443.3,177.6c-1.9,0-3.4-1.6-3.5-3.5c-1.5-1.9-2.7-3.9-4.2-5.8c-2.4-1.1-4.9-2.2-7.4-3.3
	c-0.6,1.7,0.8,2.5,1.5,3.6c3.2,4.8,8,8.4,10,14.1c0.8,2.2,0.6,4.6,2,6.6c1.7,1.1,0.6,2.6,0.5,3.9c-0.1,0.9-0.1,1.8,0.1,2.8
	c1.3,7.1,1.1,14.3,0.7,21.5c-0.2,3-0.8,6.2,0.8,9.1c2-1,3.3-0.9,3.5,1.8c0.2,2,0.5,4.1,0.8,6.1c1.7-6.1,1-12.3,1.3-18.4
	c0.2-8.3-0.4-16.7-1.8-24.9C446.9,186.4,444.7,182.1,443.3,177.6z"/>
<path class="st1" d="M443,192.3c2.3,11.4,1.4,22.8,0.9,34.3c-0.9,3.7-1.4,7.5-1.4,11.2c0,0.3,0,0.9-0.1,1c-2.9,2.1-2.9,6-5.7,8.5
	c-2.6,2.3-3.4,6.2-5.9,9c-3.2,3.6-6.7,6.9-10.6,9.8c-3.6,2.7-6.6,6.1-10.2,8.8c-5.6,4.3-11.6,8.1-17.3,12.2c-3.1,2.2-7,3.6-10.3,5.6
	c-4.2,2.5-9.3,2.2-13,5.8c-1.3,1.2-4.1,0.8-6,1.8c-10.2,5.2-21.4,7.3-32.6,9c-4.8,0.7-9.6,1.2-14.3,2.6c-2,0.8-4.2,0.8-6.1,0
	c-0.8-0.3-1.6-0.4-2.4-0.3c-7.5,1.5-15,1-22.5,1c-6.2,0-12.5,0.3-18.7-0.3c-9.5-0.9-18.9-1.8-28.4-2.7c-4.9-0.5-9.1-2.5-13.7-3.2
	c-7.8-1.2-15.2-4.1-22.7-6.3c-6.1-1.7-11.8-4.5-17.8-6.6c-8.5-3-16.9-6.5-24.2-11.9c-6.7-4.9-13.7-9.4-20.1-14.7
	c-5.8-4.7-11-10-15.4-16c-5-6.9-11.8-12.5-17.6-18.9c-6.6-7.2-13-14.5-19.2-22.1c-4.6-5.5-8.3-11.7-13.1-17
	c-4.2-4.8-8.6-9.5-12.5-14.5c-3.5-4.5-7-8.7-11.6-12c-0.9-0.9-1.9-1.6-3-2.3c-1.3-0.6-2.8-0.4-3.8,0.6c-1,1.1-0.1,2.4,0.8,3.4
	c4.5,4.5,9,9,13.8,13.1c3,2.4,5.4,5.5,6.8,9.1c-5.3-1.8-10-3.6-14.7-5.3c-2.5-0.9-4.8-3.3-6.5-5.4c-4.2-5.3-10.2-8.4-15-13
	c-5.5-5.2-10.4-10.7-15.3-16.2c-4.2-4.8-5.5-10.4-6.2-16.2s-2.3-11.5-1.9-17.5C5.8,105,4.6,93.2,5.6,81.4c0.3-4.1,0.1-8.4,0.1-12.6
	c0-5.6,2.2-10.3,5.4-14.6c1-1.3,1.9-2.6,2.6-4.1c0.6-2.1,2.7-3.4,4.9-3c0.7,1.5-1.6,2-1,3.4c-0.5,0.9,0.4,2.2-0.8,2.8l-1.7,4.5
	c-1.9,1.5-1.4,3.7-1.8,5.6c-0.3,1.4,0,3-1.2,4.2c-2.4-0.5-2.4,1.6-2.5,2.8C9.3,74.2,11,77.6,12,81.1c2,7,7.3,11.5,12.2,15.9
	s9,9.3,14.2,13.3c8.1,6.3,15.2,13.8,21,22.3c2.8,4,6.9,7.2,10.5,10.6c1.7,1.8,3.7,3.5,5.7,5c1.6,1.2,2.5,3.1,2.5,5.1
	c0.1,1.6,0.6,3,2.5,3.2c2.1,3.3,3.7,6.9,4.6,10.6c0.7,2.5,1.8,4,4.4,4.8c3,0.8,5.9,2.1,8.9,3c3.1,1,6.5,0.6,9.4-0.9
	c1.1-0.1,2.2-0.6,3-1.4c5.3-4.2,9-10.1,10.3-16.8c0.9-5.6,0.8-11.3-0.2-16.9c-0.2-1.1-0.3-2.3-0.2-3.5c0.4-2.4-0.3-4.9-2-6.8
	c-2-2.2-2.6-5.2-4-7.7c-1-1.7-0.1-2.7,1.5-3.2c3.9-1.1,7.5-3.2,11.6-3.6c0.9-0.1,1.8-0.6,2.5-1.2c1.9-1.8,5.1-1.6,6-4.7
	c1.3-2,3.8-2.3,5.6-3.5c0.4-0.3,0.7-0.6,1.1-0.9c1.5-1.2,3.4-1.7,5-2.7c0.9-0.2,1.8-0.6,2.6-1.2c12.3-7.9,24.8-15.7,38-22.1
	C199,72.5,209,66,220.3,61.9c0.3,0,0.6,0,0.9,0c0.8,0.2,1.8,0,2.3-0.7c0.6-0.6,1.2-1,1.9-1.4c3.5-1.3,6.8-2.9,10-4.8
	c4.1-2.3,7.4-0.8,11.1,1c5.3,2.6,8.8,7.2,13.1,10.8c9,7.6,17.9,15.3,26.7,23.1c1.8,1.6,3.4,3.6,5.2,5.2c0.8,0.8,1.7,1.7,1,3.1
	c-1.6,0.8-2.9-0.2-4.3-0.5c-2.7-0.6-3.7,0.4-3.1,3c0.4,1.1,1,2.1,1.9,2.9c2.9,3.1,6.8,4.5,10.6,5.8c1.3,0.3,2.6,0.1,3.6-0.7
	c1.4-0.8,3.1-0.9,4.6-0.2c1.7,0.8,3.3,1.9,4.6,3.3c4.8,4.5,10.4,7.9,16,11.2c1.7,1,3.7,1.6,4.8,3.3c0.2,0.7-0.1,1.4-0.8,1.7
	c-2.3,0.5-4.1-1.8-6.4-1c-0.9,0.3-2.3-0.1-2.6,1.2c-0.3,1.3,0.7,1.9,1.5,2.6c3.4,2.6,7.5,4.3,11.8,4.9c0.8,0.1,1.7,0.2,2.3-0.5
	c0.7-1-0.1-1.7-0.7-2.4s-1.2-1.5-0.6-2.5c0.4-0.3,0.9-0.5,1.4-0.6c5.4,2.3,10.9,4.1,16.3,6.4c4.9,1.6,9.7,3.5,14.3,5.9
	c0.5,0.6,0.9,1.1,0.4,1.9c-1.1,1-2.6,0.8-4,1.3c-2,0.8-2,2.1-0.4,3c4.1,2,8.7,2.8,13.2,2.2c1-0.1,1.8-0.9,2-1.8
	c0.6-2.7,2.4-2.3,4.3-1.9c13.9,2.7,26.8,7.9,39.5,14.1c1.4,2,4.3,1.9,5.5,4.1l0,0c2.4,3.1,4.4,6.4,7.1,9.1c3.6,3.6,5.8,8.3,6.4,13.4
	c0.2,0.7,0.4,1.3,0.7,1.9C442.9,190.2,443.1,191.3,443,192.3z"/>
<path class="st2" d="M82.7,153.6c-1-3.1-1-6.4-4.9-8.1c-2.8-1.2-4.7-4.4-6.9-6.7c-3.3-3.6-7.7-6.1-10.3-10.3
	c-3.5-5.5-8.7-9.7-12.4-15.1c-2.1-2.8-4.4-5.5-7-7.9c-2.7-2.7-5.8-5-7.2-8.9c-0.7-1.8-2.3-3.4-3.8-4.8c-3.1-2.8-4.4-6.3-5.3-10.4
	c-0.5-2-2.5-4-3.1-6.3c-0.9-3.6-2.9-6.9-2.9-10.8c-0.1-4.7,1.9-8.7,3.7-12.8c1.3-3.2,2.4-6.4,3.1-9.7c0.7-3,2.7-5.7,3.8-8.7
	c2.2-6.5,5.6-12.6,10-17.9c5.7-6.9,13.3-10,22.2-11c7.2-0.8,14.3,0,21.5,0.5c2.4,0.3,4.7,0.8,7,1.4c6.6,1.6,13.4,2.2,20,4.3
	s13,4.9,19,8.4c4.6,2.8,9.1,5.9,14.1,7.9c7,2.8,12.8,7.4,19.1,11.2c5.5,3.3,11,6.7,16.3,10.3c3.8,2.6,7.8,4.9,11.5,7.7
	c4.1,3.1,8.7,6.2,13.7,8.1c2,0.7,1.4,1.3,0.2,2.2c-0.4,0.8-1.3,1.4-2.2,1.3c-4.4-1.6-9.3-2.6-12.6-6.3c-0.2-0.2-0.3-0.3-0.6-0.4
	c-12.4-7.2-23.3-16.9-36.7-22.6c-2.5-1.2-4.9-2.7-7-4.6c-4.2-3.5-9.6-4.6-14.3-7.3c-9-5.2-19.1-8-28.9-11.3c-3.1-1-6.4-1.2-9.6-1.8
	c-3.1-0.4-6.2-1.2-9.1-2.3c-2.8-1.3-5.8-0.5-8.6-0.9c-4.6-0.8-9.3-0.7-13.9,0.4c-3.3,0.8-6.2,2-8.4,4.6c-1.1,1.2-2.5,2.1-4,2.7
	c-8.5,4-11.2,8.6-10.6,18c0,0.3,0.2,0.7,0.1,1c-2.6,8.2,2.4,14,6.3,20c3,4.6,6.1,9.1,9,13.8c4.4,7,10.6,12.4,15.9,18.6
	c1.3,1.3,2.5,2.8,3.4,4.4c2.4,4.4,5.4,8.5,9,12c3.9,4.2,7.5,8.6,11.1,13c1.5,1.8,3.4,1.9,5.4,1.5c2.4-0.5,4.8-0.8,7.3-0.8
	c3.5-0.3,6.8,1.7,8.1,5c4.2,9.6,6.5,19.4,3.9,29.9c-0.2,0.8-0.3,1.6-0.3,2.4c0.1,6.4-2.8,10.9-8.7,13.5c-3.4,1.5-6.5,3.8-10.5,3.5
	c-1.8,0-3.5-0.6-4.8-1.8c-3.1-3.1-6.7-6.1-7.7-10.6C84.6,158.4,82.1,156.5,82.7,153.6z"/>
<path d="M82.7,153.6c1.8,3.9,3.4,7.9,5.4,11.7c0.9,1.7,2.7,3,3.9,4.7c1.6,2.2,4.4,3.2,7.1,2.4c5.3-1.3,10.3-3.3,14.1-7.4
	c1.5-1.6,2.4-3.7,2.5-5.9c0.6-6.3,2.2-12.5,1.4-18.9c-0.7-6-2.6-11.9-5.7-17.2c-1.7-3-4.4-3.5-7.5-3.1c-2.3,0.3-4.5,0.8-6.8,1.1
	c-2.8,0.3-4.5-0.7-6.6-3.1c-2.9-3.3-5-7.1-8.4-10.1c-3.9-3.3-7.1-7.3-9.4-11.8c-3.2-6.1-8.6-10.4-13-15.6
	c-3.9-4.5-7.3-9.2-10.4-14.3c-2.4-3.9-5.1-7.7-7.9-11.3c-3.1-4.1-6.7-9.3-5.8-13.6c1.2-5.8-0.8-12.1,2.7-17.4
	c2.2-3.4,5.5-5.9,9.3-7.1c2.3,0.6,2.8,2.1,0.7,3.5c-3.4,2.3-4.6,5.6-5.9,9.1c-0.1,0.5,0.2,0.5,0.5,0.3c2.2-1.5,4.8-2.6,7.4-3
	c0.5-0.1,1-0.2,1.5-0.2c7.6,0.5,15.5-0.6,22.8,1.8c4.7,1.5,10,1.2,14.3,4.4c2.7,2,6.4,1.9,9.7,2.5c4.3,0.8,8.5,1.7,12.1,4.2
	c3.8,2.6,8.3,2.8,12.4,4.3c7.7,2.7,15.1,6.1,22.1,10.2c6.3,4,13.1,7.1,20.3,9.3c2.4,0.7,4.5,1.8,6.8,2.7c4.7,1.7,9.6,3,14.5,3.7
	c1.2,0.1,2.3,0.7,2.9,1.7c1.7,2.7,1,4.9-1.1,7c-2,1-4.3,0.8-6.1-0.4c-9.6-4.5-19.2-8.9-29-13c-8.1-3.3-15.4-8.5-23.4-11.7
	c-9.8-4-19.4-9-30.4-9.5C88,41.9,76.4,38.1,64.2,39c-7.3,0.5-14.6,0.2-21.8,1.9c-2.5,1.4-0.9,3.1-0.2,4.5C47,54.2,52.4,62.7,58.3,71
	c4.3,6.1,9.6,11.3,14.5,16.9c1.7,1.9,4,3.2,5,5.7c3.7,4.3,7.2,8.7,10.5,13.4c1.3,2.1,3.1,3.8,5.2,5.1c0.4,0.2,1,0.4,1.1,0.8
	c1.1,4.2,4.2,3.2,7,2.7c1.1-0.2,2.3-0.9,3.4-0.6c6.1,2.1,10.5-1.5,15.1-4.2c2.4-1.5,5.1-2.3,7.9-2.4c1.7-0.2,3.2-1.3,4.9-1.3
	c1.5,0,3-0.2,3.7,1.6c-0.4,2.1-1.4,3.7-3.9,3.6c-1.1,0-1.5,0.9-2.3,1.3c-0.8,0.5-1.5,0.9-2.3,1.3c-3.9,1.2-7.7,2.6-11.7,3.6
	c-2.4,0.6-1.8,1.4-0.8,2.7c2.3,2.9,2.5,7,5.7,9.4c1,0.8,0.1,2.2,0.2,3.3c0.1,5.9,0.3,11.9,0.6,17.8c0.3,6.3-3,10.1-5.3,14.9
	c-1.5,3.1-3,5.3-5.9,6.8c-0.8,0.8-2,0.5-2.8,1.4c-5.4,3.8-10.6,0.7-15.9-0.5s-8.2-4-8.9-9.6c-0.4-2.7-2.7-5.1-2.8-8
	C82.4,156.6,81.7,154.4,82.7,153.6z"/>
<path class="st3" d="M312.7,109.5c-1-2-3-3.3-4.5-4.7c-3.8-3.7-8.5-6.6-12-10.8c-4.7-5.7-11.1-9.4-16.3-14.7c-2.2-2.2-4.5-4.3-7-6.1
	c-6.2-4.6-11.9-9.8-17-15.6h-0.3c-4,0.5-4.5,0.5-4.6-3c-2.7-0.7-5.2-2-7.2-3.9c-1.4,1.4-3.6,1.4-4.9,0l0,0h-0.1
	c-4.1,2-8.2,3.7-11.9,6.5c-0.5,0.4-1.1,0.6-1.7,0.7c-0.2,0.1-0.5,0.2-0.7,0.2c-0.2,0.2-0.3,0.4-0.5,0.5c-0.4,1-0.4,1.8,1.2,1.9
	c2.8-0.7,5.5-1.9,7.9-3.4c2.3-1.3,4.9-3.5,7.3-2.7c5.2,1.9,10.5,4.1,13.9,9.1c0.4,0.7,0.9,1.4,1.5,1.8c3.9,2,6.7,5.4,10,8.1
	c6.7,5.4,13.4,11,19.5,17c2.4,2.4,5.9,4.1,6.9,7.8c2.7,2.9,4.9,6.3,8,8.8c1.5,1.4,4,0.8,5.4,2.4c1.5,0.7,2.9,1.7,4,2.9
	c0.5,0.4,1.2,0.5,1.8,0.4C312.5,112,313,110.7,312.7,109.5z"/>
<path class="st0" d="M220,58.9c-0.6,0.5-1.4,0.8-2.2,0.8h-0.4l-0.1,0.1c-2.1,1.6-4.7,1.2-7,1.8c1,0.2,2.3-0.1,2.6,1.2
	c0.2,1.3-1,1.6-2.1,1.7c-0.9,0.1-1.3,1-1.9,1.3c-1.5,0.7-3.1,2.2-4.8,0.2l-2,0.8c-3.1,0.1-5.2,2.3-7.8,3.5c-0.7,0.8-1.7,1.1-2.8,1
	c-0.7,0-1.5-0.3-2.2,0.3c1.6,2.3,0.2,4.3-0.7,6.3c-0.1,0.1-0.1,0.2-0.1,0.3c0,0.2,0,0.4,0.2,0.6c6.7-2.3,11.9-7.3,18.5-10.1
	c4.6-1.9,9.1-4.2,13.7-6.3C221.1,60.8,220.9,59.7,220,58.9z"/>
<path class="st4" d="M11.9,67.5c-0.6-2.7,1.4-5,0.9-7.8c-0.2-1,1-1.7,2.1-2c-1.7,8.9,0.1,17.1,4.5,24.9c0.8,1.4,1.6,2.8,2.5,4.1
	c0.2,0.9-0.3,1.2-1.1,1.1c-4.1-5.2-8.3-10.3-7.7-17.6C13,69.3,12.6,68.3,11.9,67.5z"/>
<path class="st5" d="M325.4,327.5c-1.9,1.2-4.4,1.2-6.3,0c-0.4-0.3-0.4-0.5,0-0.8c2-0.4,4.1-0.9,6.2-0.3
	C325.6,326.7,325.6,327.2,325.4,327.5L325.4,327.5L325.4,327.5z"/>
<path class="st6" d="M328.1,326.4c0.5-1.1,1.6-0.6,2.4-0.8c0.6-0.3,1.3,0,1.6,0.6l0,0c0.1,0.2,0.1,0.4,0.1,0.5c0,1-1,0.8-1.6,0.8
	h-2.5c-0.3-0.2-0.4-0.7-0.2-1L328.1,326.4z"/>
<path class="st7" d="M344.4,324.8c-0.7-0.3-2.1,0.5-1.9-0.7c0.1-0.9,1.4-1.4,2.6-1.2c0.7,0.1,2-0.3,1.9,0.8
	C346.8,325.1,345.3,324.5,344.4,324.8z"/>
<path class="st8" d="M58.1,194.4c1.7-0.2,2.8-0.1,3.9,1C60.6,196,59,195.6,58.1,194.4z"/>
<path class="st9" d="M319,326.7v0.8c-0.9,0.8-2.3,1-3.4,0.3c-0.1-0.2-0.2-0.4-0.1-0.6C316.6,326.3,317.9,326.8,319,326.7z"/>
<path class="st10" d="M373.9,301c0.3-1.1,1.3-1.8,2.3-1.7c0.2,0.3,0.3,0.6,0.2,0.9C375.9,301.4,374.8,300.6,373.9,301z"/>
<path class="st11" d="M429.8,273.4c0,0.5,0,1-0.5,1.1s-0.8-0.5-0.7-0.9s0.3-1,0.5-1.1C429.7,272.3,429.7,273,429.8,273.4z"/>
<path class="st7" d="M328.1,326.4l0.1,1.1c-0.9,0.3-1.9,0.3-2.8,0l-0.1-1.1C326.1,326,327.2,326,328.1,326.4z"/>
<path class="st12" d="M412.1,279.3c0.3-1.5,0.9-2,2.1-2C414.1,278.6,413,278.5,412.1,279.3z"/>
<path class="st0" d="M154.5,285c-1.1,0-2.1-0.9-2.1-2l0,0C153.6,283.3,153.9,284.2,154.5,285z"/>
<path class="st13" d="M20.9,87.9l1-1.1l1.3,2.3c0.2,0.2,0.3,0.3,0.2,0.4s-0.2,0.2-0.2,0.2C22,89.5,21.5,88.6,20.9,87.9z"/>
<path class="st3" d="M16.6,53.3c0.4-0.9-0.2-2.1,0.8-2.8C18.2,51.7,18.5,52.8,16.6,53.3z"/>
<path class="st14" d="M65.4,195.9c0.5,0,1,0.1,0.9,0.7c0,0.2-0.5,0.5-0.7,0.4c-0.3-0.1-0.6-0.2-0.8-0.5
	C64.7,196.1,65.1,196,65.4,195.9z"/>
<path class="st15" d="M272.9,324.4c0.6,0,1,0.3,1,0.8c-0.1,0.3-0.3,0.5-0.5,0.7c-0.4-0.2-0.7-0.4-1-0.8
	C272.4,325,272.8,324.6,272.9,324.4z"/>
<path class="st3" d="M23.1,89.7c0-0.2,0-0.4,0.1-0.6c1,0.5,1.6,1.5,1.7,2.6C23.6,91.4,23.6,90.3,23.1,89.7z"/>
<path class="st16" d="M423.1,269.6c0.4,1,0.6,2.1-0.4,2.2c-1.3,0-0.4-0.8-0.1-1.3C422.7,270.1,422.9,269.8,423.1,269.6z"/>
<path class="st17" d="M360.1,306c-0.3,0.2-0.6,0.3-0.9,0.3c-0.4,0-0.6-0.3-0.3-0.7c0.3-0.2,0.6-0.3,0.9-0.3
	C359.9,305.4,360,305.7,360.1,306z"/>
<path class="st18" d="M427.1,159.9c1.2,0.2,2.3,1,2.6,2.3c-0.7,0.8-1.2,1.8-1.4,2.9c-2-1-4.5-1.2-5.6-3.6
	C423.9,160.2,425.9,161,427.1,159.9z"/>
<path class="st19" d="M443,192.3c-1-0.8-0.4-1.9-0.4-2.9C444.2,190.1,444.1,191.1,443,192.3z"/>
<path d="M424.2,157.9c-4-1.9-8-4.1-12.1-5.6c-5.9-2.2-11.9-4.2-17.9-6c-2.1-0.6-4.3-1.2-6.4-1.7c-1.3,0.1-2.7,0-4-0.2
	c-2.8-0.5-5.5-1.3-8.2-2.4c-0.8-0.3-1.6-0.6-2.4-1c-4.8-1.9-9.3-4.5-13.4-7.7c-0.1,1-0.9,0.8-2,0.6c-1.2-0.5-2.5,0.1-3.7-0.5l0,0
	c-2.1,0.3-2.2,0.9-0.6,3.5c4.9,1.4,9,4.6,13.9,5.7c0.8,1.1,2.1,1.7,3.4,1.6c-0.9,0.1-1.8,0-2.7-0.4c-1.4,0.2-2.8,0.4-4.1,0.6
	c-1.2,0.1-2.7,0.3-2.9,1.5c-0.2,1.5,0.6,3,2,3.8c0.6,0.3,1.3,0.6,2,0.7c2.9,0.5,5.9,0.9,8.8,1.5c1.6,0.4,3.2,0.2,4.7-0.4
	c1.7-0.8,1.6-2.8,1.7-4.5c3.3,1.4,6.5,1.6,9.6,2.4c7.8,2.2,15.5,5,23,8.2c3.2,1.4,6.1,3.5,9.7,4.1c1.5-0.5,4,1.9,4.4-1.5l0,0
	C426.4,158.9,425.4,158.2,424.2,157.9z M371.9,144.2h0.3c0.7-0.1,1.5,0.1,2.1,0.6C373.6,144.3,372.8,144.1,371.9,144.2z"/>
<path d="M284.1,173.9c-1.7,4.7-3.4,9.2-8.2,12c-5,3-9.1,7.4-14.6,9.8c-1.1,0.5-1.8,0.7-2.8,0c-5.3-3.6-10-7.7-9.6-15
	c0-0.5,0.1-1-0.5-1.2c-5.2-1.4-9.7-5.8-15.8-3.1c-1.6,0.7-3.2,2.7-5.4,1.1c-3.5-2.6-8.5-4.4-9.7-8.4c-0.7-2.4-2.3-4.2-2.8-6.6
	c-0.3-1.4,0.7-1.8,1.5-2.4c7.9-5.5,15.9-11,23.9-16.4c4.8-3.2,8.8-7.6,14.1-10.1c1.7-0.8,2.7-1,4.1,0.5c3.6,3.8,7.2,7.6,10.6,11.6
	c1,1.1,1.1,1.6-0.3,2.6c-4,3.1-4.5,8.5-1.3,12.6c1.6,2.1,2,2.5,5.3,2.5S284.8,171,284.1,173.9z"/>
<path d="M378,235.4c-0.2-5.4-0.1-10.3,3.8-14.1c1.2-1.4,2.7-2.6,4.3-3.5c3-1.5,5.9-3.2,8.7-5.1c4.6-3.2,9.4-2.5,14.3-1.4
	c2.8,0.6,3.9,3.4,5,5.4c3.3,6,5.1,13.2-3.1,17.8c-3.8,2.1-7.2,5-11.1,7.1c-4.8,2.5-10,4.1-14.8,6.6c-1.4,0.7-3.4,0.1-5.1,0.2
	c-0.4,0.1-0.8-0.2-0.9-0.6v-0.1C378.3,243.3,376.6,239.2,378,235.4z"/>
<path d="M291.4,266.1c0.3-5.5,2.3-10.7,5.7-15c3.7-4.5,9.3-5,14.8-6c4.3-0.8,8.3,0.3,12.4,0.8c3.9,0.4,9.3,7.9,9.1,12.2
	c0,0.1,0,0.2-0.1,0.3c-0.9,2,1.4,4.5-0.7,6.2c-3,2.3-6.7,3.7-10.5,3.9c-4.4,0.3-8.3,2.2-12.7,2.7c-4.9,0.7-9.8,0.8-14.7,0.2
	C291.9,271.2,291.4,270.2,291.4,266.1z"/>
<path class="st20" d="M120.5,175.1c-0.9-0.2-2.2,0.1-2.5-1.3s0.9-1.8,1.8-2.1c3.3-1.1,6.7-1.9,9.8-3.3c4-1.9,7.7-4.4,11.6-6.4
	c3-1.5,5.7-4.1,9.5-3.9c0.2,0,0.4-0.1,0.6-0.3c5.6-6.3,13.2-10.1,19.8-15c6.2-4.6,12.5-9.2,19-13.4c5.2-3.4,10.2-7,15.5-10.2
	c7.1-4.3,13.6-9.4,20.6-13.7c12.3-7.6,24.9-14.7,39.6-16.8c1.3-0.2,2.6-0.8,4-1c0.8-0.3,1.7,0.2,2,1.1l0,0l0,0c0.4,1.3-1,1-1.6,1.2
	c-5.4,1.6-10.9,2.8-16.1,4.8c-8.7,3.2-17,7.4-24.6,12.6c-6.1,4.3-12,8.7-18.2,12.9c-7.5,5.1-15.2,10-22.4,15.5
	c-9.2,7-19.5,12.6-28.3,20.2c-5.5,4.8-12.3,7.2-18.6,10.5c-3.8,2-7.3,4.7-11.3,6.2C127.3,173.7,124,174.6,120.5,175.1z"/>
<path d="M207.6,259.1c-0.1-6.6,4.3-11.8,12.1-11.8c5.4,0,10.1,1.6,14.8,3.5c1.2,0.5,2.4,0.3,3.5,0.8c5.6,2.5,11.1,11.4,10.5,17.4
	c-0.2,2.5-2.1,3.3-4.3,3.8c-6.9,1.5-13.5,0.4-19.9-2c-3.3-1.1-6.6-2.1-9.9-2.9C209.4,266.6,207.4,264.3,207.6,259.1z"/>
<path class="st20" d="M176,239.6v3.8c0,3-2.5,4.6-5.3,3.7c-7.3-2.4-12.9-7.4-18.9-12c-2.6-2-3.4-4-3.4-7.3c-0.1-2.8,1-5.5,3.1-7.4
	c1.7-1.6,4.3-1.1,6.6-1.1c4.2,0,6.8,3.3,10.1,5.1c2,1.1,3.3,3,5.4,4.2c1.8,1,1.8,4,2.2,6.2C176,236.4,176.1,238,176,239.6L176,239.6
	z"/>
<path class="st20" d="M219.6,197.6c0.1-6.6,7.1-12.6,13.6-11.6c3.3,0.5,6.7,0.5,8.8,4.1c2.4,4.2-0.1,12.4-4.6,14.1
	c-5.1,2-9.9,2.3-14.8-0.8C220.2,202,219.2,200.3,219.6,197.6z"/>
<path class="st20" d="M200.5,173c0.8,9.9-6.7,12.9-13.5,12.8c-3.7,0-7.8-4.8-7.5-9c0.5-7.2,3.6-11.8,8.6-11.8
	C195.4,165,200.6,168.5,200.5,173z"/>
<path class="st20" d="M278.7,210.6c-2.9,0.6-5.5-1.1-8.3-1.8c-1.9-0.5-2.2-5-0.8-7.8c2.2-4.3,9.8-9.5,15.3-7.6
	c1.3,0.5,2.8-0.1,4.2,0.9c4.8,3.3,5.2,8.9,0.5,12.6C286.7,209.4,282.7,210.8,278.7,210.6z"/>
<path class="st20" d="M225.1,58.2l0.3-0.4c-0.2,0-0.3,0-0.5,0c-0.6,0.9-1.7,1.5-2.8,1.4c-0.6,0-1.3-0.2-1.8-0.5
	c-0.3,0.3-0.6,0.6-1,0.7c0.8,0.9,1.4,1.9,1.7,3c0.2,0.1,0.4,0.1,0.7,0.1c0.8-0.1,1.5-0.3,2.2-0.7l1.6-1.4
	C224.2,59.8,224.2,59.1,225.1,58.2z"/>
<path class="st20" d="M346.8,187.9c-0.1,3.6-5.3,8.4-9.2,8.3c-3.5-0.1-6.9-0.3-10.3-1.9c-2.7-1.3-3.2-3.7-2.6-5.2
	c1-2.5,1.8-5.8,5.4-6.5s6.9-2.4,10.9-1.5C344.7,182,346.9,184,346.8,187.9z"/>
<path class="st20" d="M143,104.5l-0.7,0.7c-2.3,1.1-4.4-0.2-6.5-0.8c-10.9-1.3-21.6-3-31.9-7.1c-6.3-2.5-13.1-1.7-19.7-1.4
	c-2.7,0.1-5.2,0-6.6-2.7c-0.2-1.6,0.9-3.1,2.6-3.4l0,0c0.2,0,0.4,0,0.6,0c6.3,0.4,12.7-0.8,18.8,0.6c6.6,1.5,12.9,3.8,19.4,5.7
	c3.5,1,7.1,1.2,10.7,1.9c3.7,0.7,7.7,0.7,11.1,2.9C141.7,101.9,144,102.1,143,104.5z"/>
<path class="st20" d="M300,177.3c-2.3,0.1-4.7-0.4-6.8-1.3c-4.2-1.6-4.6-6.3-1.6-9.7c4.5-5.1,10-5.1,15.8-3.6
	c3.5,0.9,4.5,5.6,2.6,8.6C307.4,175,304.5,177.6,300,177.3z"/>
<path class="st21" d="M246.6,133.6c-2.8,1.6-4.9-0.9-7.4-2.2c-3.5-1.8-5.1-4.7-4.3-8.6c0.7-3.2,2.3-5.8,6-6.9c2.8-0.8,5.8-1,8.7-0.6
	c2.7,0.3,5,2.2,5.8,4.8c1.1,3.6-0.1,10.6-3.4,12.4C250.4,133.4,248.9,134.1,246.6,133.6z"/>
<path class="st0" d="M143,104.5c0.1-2-1.9-1.8-2.8-2.7c0.7-1.5,2.1-2.2,3.4-2.9c8.5-5,17.2-9.7,25.5-15c3.2-2,6.6-3.8,10-5.6
	c1.2-0.7,2.6-1.1,4-1c1.8,0.7,3.6,1.3,5.5,0.7l0.1,0.9c-13.1,6.6-25.6,14.4-38.1,22.1c-0.8,0.5-1.9,0.1-2.6,1
	C146.9,103.8,144.5,103.3,143,104.5z"/>
<path class="st21" d="M297.1,142.1c-5.5-0.4-10.4-0.1-14.6-3c-2.3-1.5-3.4-4.3-2.6-6.9c0.6-2.8,2.7-3.6,5.5-3.7
	c4.4-0.2,8.8-0.9,12.9,1.4c3,1.6,4.5,5.1,3.6,8.4C301.3,140.5,299.3,142.1,297.1,142.1z"/>
<path class="st21" d="M370.9,171.2c-2.3-4.6-1.4-5.7,2.8-8.7c5.3-3.8,10.3-2.1,15.6-1.1c1.5,0.1,2.7,1.5,2.6,3c0,1.7,0.9,3.7-1.3,5
	c-4.9,3-10.7,4.4-16.5,4c-0.4,0-0.7-0.5-1.1-0.8C372.4,172,371.5,171.8,370.9,171.2z"/>
<path class="st22" d="M341.3,162.7c-4.8,0.1-8.6-2.1-12.8-2.8c-1.7-0.3-2.3-3.9-0.8-4.9c1.8-1.3,3.6-3.4,6.3-2.8
	c4.2,0.9,8.3-0.8,12.5-0.3c2.9,0.4,4.6,2,5.1,4.2c0.6,2.5-0.9,4.7-3.6,5.4C345.6,161.9,343.4,163.2,341.3,162.7z"/>
<path class="st0" d="M354,133.3c-2.2,0.8-0.4,2.3-0.6,3.5c-5.5-1.7-10.9-3.8-16.1-6.3c-1.4-0.6-3.1-0.4-4.3-1.6
	c-1-0.6-1.3-1.7-2-2.5c-7.7-3.7-15-8-21.1-14.1h2.2c3.9,1.1,8,1.4,11.4,4c1.3,1,2.7,1.8,3.4,3.4c0.7,1.4,2.1,2.3,3.7,2.3
	c2.7,0.8,4.3,3.2,6.7,4.5C342.6,129.2,348.5,130.8,354,133.3z"/>
<path class="st21" d="M292.4,98.2c3.9,1.8,5.6,5.6,8.4,8.4c1.4,0.6,1.4,1.6,0.9,2.8c-0.9,1.3-2.6,1.7-4,1.1c-4.6-1.6-9-3.7-12.3-7.3
	c-1-0.9-1.6-2.3-1.6-3.7c0.2-3.2,1-3.9,4.2-3C289.4,97.1,290.9,97.6,292.4,98.2z"/>
<path class="st22" d="M335.7,130.5c0,0.2,0,0.5,0.1,0.7c1.4,1.4,4,2.5,2.6,4.9c-1.2,2-3.6,0.8-5.5,0.4c-4.4-1-8.5-3-11.9-6
	c-0.8-0.7-1.8-1.4-1.1-2.9c0.7-1.5,1.7-1.1,2.8-1.3c2.5-0.5,5.2,0,7.3,1.4c1,0.1,2.1,0.5,2.9,1.1C334,129.3,334.9,129.9,335.7,130.5
	z"/>
<path class="st15" d="M135.9,103.3c2,1.3,4.3,1.3,6.4,1.9c-1.3,2.1-4.4,1.4-5.6,3.6c-1.8-1-4-1.1-5.9-0.2c-1,0.4-2,1.1-3.3,0.7
	c0.4-2.1,2.2-2.5,3.7-3.3S134.7,104.9,135.9,103.3z"/>
<path class="st23" d="M301.6,109.4c-0.3-0.9,0-2-0.9-2.8c1.8,0.6,3.6,1.5,5,2.8C304.5,108.6,302.9,108.6,301.6,109.4z"/>
<path class="st24" d="M335.7,130.5c-1,0.4-2.2-0.1-2.6-1.1c0-0.1-0.1-0.2-0.1-0.3c-0.2-0.2-0.2-0.6,0-0.9h0.1l4.2,2.3H335.7z"/>
<path class="st25" d="M367.3,142.5c1.6,0.7,3.3,1.2,5,1.4c0.3,0.1,0.4,0.3,0.3,0.4s-0.2,0.2-0.3,0.2c-1.4-0.1-3,0.6-4.2-0.7
	L367.3,142.5z"/>
<path class="st26" d="M333.1,128.2v0.9c-1.1-0.1-2.1-0.6-2.9-1.4c0.5-0.3,0.8-0.8,0.7-1.3C331.9,126.6,332.4,127.5,333.1,128.2z"/>
<path class="st27" d="M108,174.7c0.5-1.3,1.3-2,2.8-1.4C110.5,175.1,109.1,174.6,108,174.7z"/>
<path class="st28" d="M370.9,171.2c1,0,1.9,0.3,2.1,1.4C371.9,172.7,371,172.5,370.9,171.2z"/>
<path class="st29" d="M128.1,114.9c0.2-1.5,1.2-1.5,2.3-1.3C130.1,114.6,129.1,115.2,128.1,114.9z"/>
<path class="st30" d="M148,101.9c0.4-0.9,1.4-1.4,2.3-1.1c0.1,0,0.2,0.1,0.3,0.1C150.1,102,148.9,101.6,148,101.9z"/>
<path class="st31" d="M221.6,62.6c0.5-0.8,1.3-0.8,2.2-0.7C223.1,62.4,222.8,63.6,221.6,62.6z"/>
<path class="st22" d="M330.4,121.9c-1.7,1.6-2.9,0.9-3.8-0.8c-2.2-4-5.7-5.9-10-6.7c-1.7-0.3-3.3-1-4.6-2.1
	c-0.7-1.2,0.4-1.9,0.8-2.8h0.7c1.1,0.6,2.5-0.5,3.5,0.6c3.4,0.9,6.6,2.4,9.6,4.4C329.2,116,330.7,118.9,330.4,121.9z"/>
<path class="st3" d="M317,110.1c-1.2,0-2.5,0.4-3.5-0.6C314.6,109.6,316.1,108.1,317,110.1z"/>
<path class="st18" d="M427.1,159.9l-2.9-2C425.9,157.5,426.7,158.4,427.1,159.9z"/>
<path class="st0" d="M357.9,133.9c-1.3,0.1-2.6,0.7-3.7-0.5C355.3,133.7,356.6,133,357.9,133.9z"/>
<path class="st32" d="M191.4,72.2l-2.1-0.6c-0.9-0.7-1.9-1.1-3.1-1.2c-5.9-0.8-11.6-2.5-17.1-4.9c-5.1-2.3-10.8-3.3-15.6-6.4
	c-3.5-2.3-7.7-3.1-10.9-6.2c-1.4-1.3-4-2.3-6.1-3.1c-5.8-2.4-11.5-5.4-17.5-6.5c-5.3-1-9.1-4.1-13.7-5.8c-3.2-1.2-6.8-1.4-10.2-2.1
	c-3.1-0.7-6.3-0.9-8.8-3.3c-0.6-0.4-1.2-0.7-1.9-0.8c-2.7-1-5.7,0.7-8.6-2.1c-1.6-1.5-6.2-0.8-9.3-1.3c-5-0.8-9.9,0.7-14.8-0.5
	c-0.5-0.2-0.9-0.6-1.4,0c-2.5,1.3-5.6,1.3-7.8,3.4c-0.5-0.2-1.2,0-1.5-0.7c0.5-1.6,1-3.3,1.7-5c0.8-1.9,1.5-3.7,3.9-4.5
	c2.7-0.9,2.8-2.5,0.9-3.8c0.9-0.3,1.7-0.8,2.4-1.3c6.3-7.3,14.6-7.1,23.3-6.9c8.1,0.2,15.4,3.5,23.3,4.4s15.3,4.4,23,6.8
	c5.2,1.6,10,4.6,14.8,7.4c2.8,1.6,6.1,2,8.8,4.1c11.2,8.4,25.1,12.6,35.6,22.1c4.3,3.9,9.7,5.5,13.8,9.4c2.3,2.2,6.2,2.8,9.4,4.2
	l-7.8,4.1C193.5,71.7,192.4,71.8,191.4,72.2z"/>
<path class="st20" d="M113.4,141.8c0.8,7.6-1.3,14.7-4.4,21.5c-2.3,5-9.6,6.6-14.2,3.6c-2.1-1.4-4-3.1-6.4-4.1s-1.5-3.9-1.8-5.9
	c-1.5-8.2,0.6-16.1,2.8-23.9c2-6.8,11.9-10.1,17.9-6.7c1.4,0.8,1.7,2.1,2.3,3.2C111.5,133.1,113.4,139.1,113.4,141.8z"/>
<path class="st16" d="M183.1,77.2c-11.2,5.7-21.7,12.7-32.6,18.8l-10.2,5.8c-3-2.4-6.8-1.8-10.1-2.7c-3.2-0.8-6.8-0.4-9.8-1.5
	c-5.2-1.9-10.7-2.6-15.8-4.8c-4.1-1.8-8.4-2-12.8-1.9c-3.2,0.1-6.4,0.7-9.6-0.2c-2.4-0.7-3.4,0.8-4.2,2.6c0.1,0.8-0.2,1.1-0.9,0.9
	c-2.8-4.7-7.2-8.1-10.8-12c-3.6-4.1-6.9-8.3-10.1-12.7c-5.3-7-10-14.5-14.2-22.2c-0.8-1.4-1.4-2.9-1.8-4.5c-0.3-1-0.7-2.5,1.3-2.6
	c0.3,2.9,1.6,3.4,4.1,2s5.2-1.3,7.9-1.4c10.1-0.6,20.2-1.7,30,1.9c1.9,0.7,3.9,0.3,5.9,0.5c4.4,0.5,8.8,0.5,12.8,2.6
	c0.2,0,0.4,0.1,0.5,0.2c-0.2-0.4-0.5-0.3-0.8-0.4c-1.3-0.5-2-1.3-1.5-2.7c7-0.2,13.3,2.5,19.5,5.3c1.9,0.9,3.7,1.8,5.9,1.8
	c3.6,0,6.2,2.6,9,4.2c11,6.1,22.3,11.4,34,15.9C173.7,71.9,178.3,74.8,183.1,77.2z"/>
<path class="st16" d="M76.9,94.1l0.9-0.9c2.9,3,6.5,1.7,9.8,1.5c8.4-0.3,16.7,1.1,24.5,4.3c7.6,3,15.7,3.3,23.7,4.2
	c0.3,2-1.4,2.4-2.7,3c-2,0.7-4,1.7-5.7,3.1c-4.7,0-8.2,3-11.9,5.1c-2.3,1.2-4,3.1-6.8,2c-3.1-1.2-6.1,0-9.1,0.5
	c-3.8,0.6-4.3,0.3-5.6-3.2c-0.4-1.1-1.6-0.2-2.3-1.1c-1.8-2.3-4.3-4.2-5.7-6.7C83.6,101.4,80.1,97.9,76.9,94.1z"/>
<path class="st33" d="M100.3,42.8c0.4,1,0.8,2,2.1,2.1c0.4,0.3,0.4,0.8,0.2,1.1c0,0.1-0.1,0.1-0.2,0.2c-6.1-1.8-12.4-1.9-18.6-2.6
	c-3.9-0.5-7.7-1.8-11.7-2.4c-4.8-0.7-9.5,0.1-14.2,0c-5.1-0.1-10.4,0.2-15.1,2.9c-0.4,0.3-1.1,0.7-1.4-0.2c-0.5-1.3-1.2-2.6,0-3.9
	c5-0.6,9.9-2.3,15.2-1.8c3.6,0.2,7.2,0.1,10.7-0.4c7.8-0.8,15.2,1.7,22.7,3.1c1.5,0.3,3.1,0.3,4.7,0C96.3,40.6,98.4,42.2,100.3,42.8
	z"/>
<path class="st34" d="M79.3,33.8c-3.9,1.8-7.7,0.8-11.5,0.4c-7.2-0.8-14.6-0.5-21.7,0.9c-1.3,0.3-2.7,0.6-4,1
	c-0.7,0.2-1.3,0.8-1.7-0.3c-0.3-0.6,0-1.3,0.5-1.5c0.1,0,0.1-0.1,0.2-0.1c1.8-0.7,3.2-2.3,5.2-2.5C57.5,30.2,68.5,29.4,79.3,33.8z"
	/>
<path class="st35" d="M41.2,30.1l1.5,0.7c-0.5,0.4-1,1-1.7,0.6S40.7,30.5,41.2,30.1z"/>
<path class="st36" d="M80.8,35.1c-0.3-0.2-0.8-0.4-0.8-0.6c-0.2-0.5,0.1-0.8,0.7-0.8s1-0.1,1,0.4C81.7,34.4,81.1,34.7,80.8,35.1z"/>
<path class="st37" d="M50.5,27.4c-0.2-0.5-0.7-1.2,0-1.5c1.1-0.4,0.9,0.9,1.4,1.4L50.5,27.4z"/>
<path class="st20" d="M233.3,53.4c0.9-0.3,1.8-0.7,2.6-1.3L233.3,53.4z"/>
<path class="st20" d="M227.1,57.1c-0.6,0.5-1.3,0.7-2,0.7v0.4c2.3,0.1,4.7,0.7,5.2-2.8c0-0.2,0.1-0.4,0.3-0.5
	C229.3,55.5,228.2,56.3,227.1,57.1z"/>
<path class="st38" d="M191.4,72.2c0.7-0.8,1.8-1.3,2.9-1.3C193.9,72.7,192.6,72.3,191.4,72.2z"/>
<path class="st39" d="M376.2,148.4c-4.1,1.4-8,0.4-12.7-1.8C368.5,146.3,372.3,147.6,376.2,148.4z"/>
<path class="st40" d="M372.3,144.5c0-0.2,0-0.4,0-0.6l4.4,0.6C374.7,145.8,373.5,144.4,372.3,144.5z"/>
<path class="st2" d="M242.6,170.5c-3.3,0.4-6.3-3.2-9.5-0.8c-4.8,3.5-7.6,0-10.6-2.8c-0.8-0.7-1.5-1.5-2.3-2.2
	c-1.5-1.4-1.2-2.6,0.3-3.7c5.9-4,11.8-7.9,17.7-11.8c5.8-3.8,11.8-7,17.1-11.5c0.9-0.8,1-0.5,1.7,0.2c3.1,3.1,6.4,6.1,10.3,9.7
	c-3.4,0.4-4,3.1-6.3,3.3c-0.5,0.4-1.3,0.4-1.7-0.1c0-0.1-0.1-0.1-0.1-0.2c-0.2-2.2,0.9-4.9-1.7-6.3s-4.9,0.5-7,1.8
	c-1.9,1.1-3.7,2.5-5.5,3.7c-1,0.5-1.5,1.6-1.3,2.6c0.2,1.1,1.3,1.2,2.2,1.5c2.8,0.9,5.4,5.3,4.9,8c0,0.7-0.6,1.2-1.3,1.1
	c-0.2,0-0.4-0.1-0.5-0.1c-3.5-1.3-7.9-1.2-8.6-6.3c-0.2-1.3-1.4-1.8-2.7-1.4c-4.6,1.1-7.8,4.5-11.4,7.2c-0.6,0.5-0.8,1.4-0.3,2
	l0.1,0.2c0.6,1,1.7,1.7,2.9,1.8c0.9,0,1.9-0.3,2.7-0.7c4.3-2,7.6-0.1,10.8,2.4C242.7,168.8,243.1,169.6,242.6,170.5z"/>
<path class="st41" d="M242.6,170.5l-0.7-2.1c5.3,1.1,10.8,1.3,14.9,5.6c1.6,1.7,2.5,3.4,1,5.5c-1,1.4-1,2.5,0.4,3.6s2.5,1.4,4,0.2
	c3.5-2.6,6.7-5.4,10.3-7.8c2.1-1.3,1.6-3.1,1.4-5c0.1-0.5,0.5-0.9,1-1l5.6,3.6c-0.8,1.7-2.6,2.2-3.9,3.3c-4.6,3.8-9.4,7.6-14,11.5
	c-2.1,1.8-3.8,1.9-5.5-0.5c-0.8-1-1.6-2-2.5-2.9c-3.3-3.5-4-2.9,0.4-6.9C251.7,174,246.2,174,242.6,170.5z"/>
<path class="st2" d="M259.5,150.1l1.6,0.7c-1.7,2.4-1.1,4.8,0,7.2c1.6,3.8,3.2,7.7,4.8,11.5c0.2,0.8-0.2,1-0.8,1.2
	c-2.6-0.3-4.7-2.3-5.2-4.9c-1-3.8-2.5-7.5-3.6-11.2C255.4,151.8,256.2,150.7,259.5,150.1z"/>
<path class="st2" d="M274.9,169.7l-0.8,0.8c-1.7,0.5-3.4,0.8-5.1,0c-0.3-0.2-0.5-0.4-0.6-0.7c0.4-0.2,0.8-0.4,1.2-0.6
	C272.7,166.2,272.7,166.2,274.9,169.7z"/>
<path class="st2" d="M268.4,169.7l0.9,0.1c0.6,1.7-0.4,2.5-1.8,2.7s-2.6-0.2-2.5-2l0.8-0.8C266.7,170.5,267.6,169.7,268.4,169.7z"/>
<path class="st42" d="M404,234.3c-5.6,3.9-12.1,6-18.1,9.1c-0.6,0.3-2.1,1.1-2.9,0.1c-1-1.3,0-2.9-0.2-4.4c-0.2-1.2,1.1-1.4,2-1.3
	c6.8,0.5,11.8-3.2,16.9-6.9c1.3-0.9,2.9-1.4,4.3-2.3c2.9-2,3.5-4,1.2-6.5c-2.1-2.2-2.4-5.7-5.9-6.8c1.7-0.9,3.6-0.9,5.3-0.1
	c1.8,0.8,3.5,1.2,2.6,4.2c-0.6,2.1,0.7,4.5,2,6.5s2,3.2-1.1,4.4c-1.4,0.7-2.8,1.6-4,2.7C405.3,233.3,404.4,233.5,404,234.3z"/>
<path class="st43" d="M404,234.3c-0.1-1.7,1-1.5,2.1-1.4C405.7,233.8,404.9,234.3,404,234.3z"/>
<path class="st42" d="M297.3,265.4c-0.4-2.2,0.3-3.2,2.5-3.2c8.6,0.4,17.3-1.1,25.3-4.3c1.4-0.6,2.5-0.7,2.4,0.9
	c-0.1,1.3,2.9,3.3-0.6,4c-4.5,0.9-8.9,1.9-13.4,2.6c-1.8,0.4-3.5,0.9-5.2,1.6c-3.3,1.1-6.3,0.2-9.5,0.3
	C297.3,267.3,296.4,267,297.3,265.4z"/>
<path class="st44" d="M216,252.6c-0.2,6.7,2.4,10.1,9.8,12.5c4,1.3,8.2,1.6,12.3,0.9c0.6-0.1,1.1-0.1,1.5-0.6
	c0.5-0.9,1.5-1.4,2.5-1.4c-0.3,1.4,1.1,2.4,0.8,3.9c-0.4,1.8-1.7,1.2-2.7,1.3c-6.8,0.9-13.8-0.4-19.8-3.8c-0.6-0.4-1.2-0.7-1.9-0.7
	c-2.6,0.2-5.1,0.1-5.8-2.9c-1.2-4.8-0.1-7.6,3.3-9.8c0.2,0.1,0.3,0.3,0.2,0.5C216.2,252.5,216.1,252.6,216,252.6z"/>
<path class="st45" d="M239.6,257.8c-1.4-0.1-2.2-0.4-2.5-1.4c-0.1-0.2,0.3-0.8,0.4-0.8C238.7,255.7,238.8,256.8,239.6,257.8z"/>
<path class="st46" d="M216,252.6l-0.1-0.8c0.3-0.7,1.2-1.1,2-0.7l0,0c0.1,0.1,0.2,0.1,0.3,0.2C217.8,252.1,217,252.6,216,252.6z"/>
<path class="st47" d="M156.4,223c1.9,0,2.3,0.6,1.7,2.2c-1.1,2.8,0.4,6.6,2.6,8.4c3.1,2.5,5.8,5.5,9.7,7c1.4,0.5,0.9,1.9,0.5,2.7
	c-0.5,1.1-1.4,0.3-2-0.1c-2-1.3-4-2.8-5.9-4.4c-2.9-2.6-6-5.1-9.2-7.3c-2-1.4-1.5-3.6-1.2-5.4C153,224.3,154.6,222.9,156.4,223z"/>
<path class="st48" d="M235.6,191c-1.9-0.6-3.8-0.1-6.4-0.1c2.3-2.3,4.4-1.6,6.4-1.4C236,189.8,236.1,190.4,235.6,191
	C235.7,190.9,235.7,190.9,235.6,191L235.6,191z"/>
<path class="st49" d="M223.6,198c-0.9-2.3,0-4,1.9-5.8c0.4,2.1-1.2,3.4-1.2,5C224.1,197.4,224,197.9,223.6,198z"/>
<path class="st50" d="M234.6,201c0.4-0.9,0.4-2,1.9-1.8c0.3,0.2,0.4,0.4,0.4,0.7c-0.2,0.9-1.1,1.4-2,1.2
	C234.8,201.1,234.7,201.1,234.6,201z"/>
<path class="st51" d="M235.6,191v-1.5c1.1,0.5,2,1.4,2.5,2.4C237.1,192.1,236.2,191.7,235.6,191z"/>
<path class="st52" d="M223.6,198l0.7-0.8c0,1.1,1.2,2,0.4,3.3C223.2,200,223.9,198.8,223.6,198z"/>
<path class="st53" d="M232.7,202.5c-1.2,1.6-1.9,0.4-3,0.3C230.9,201.5,231.7,202.1,232.7,202.5z"/>
<path class="st54" d="M190,182.4c-1.2-0.5-3.2,1.2-3.4-1.5v0.1c1.9-0.3,3.9-0.1,5.8,0.6C191.7,182.4,190.9,182.3,190,182.4z"/>
<path class="st55" d="M190,182.4c0.6-0.9,1.5-0.7,2.3-0.8C192.1,183.5,191.1,183.2,190,182.4z"/>
<path class="st56" d="M186.6,181c-1,0.2-1.7-0.3-2.3-1.4C185.7,179.3,186.4,179.7,186.6,181L186.6,181z"/>
<path class="st38" d="M280.9,197.8c-1.9,0.4-3.4,2.1-5.6,2C276.7,197.5,277.3,197.2,280.9,197.8z"/>
<path class="st57" d="M286.9,200.5l0.1-2.3c1.5,0.4,1.3,1.4,1.1,2.4C287.7,201,287.3,201,286.9,200.5z"/>
<path class="st58" d="M286.9,200.5l1.2,0.1c0,0.6,0.2,1.7-0.6,1.7C286.3,202.3,286.9,201.2,286.9,200.5z"/>
<path class="st59" d="M341.2,190.5c0,0.6-0.2,0.9-0.8,0.9c-0.3,0-0.6-0.2-0.8-0.4c-0.3-0.5,0.1-0.9,0.5-1.1S341,190,341.2,190.5z"/>
<path class="st19" d="M337.5,185.4c-0.2,0.6-0.6,0.5-1,0.5s-1,0-0.7-0.7c0.2-0.3,0.5-0.4,0.8-0.5C337,184.6,337.4,184.9,337.5,185.4
	L337.5,185.4C337.5,185.3,337.5,185.4,337.5,185.4z"/>
<path class="st60" d="M340.1,186.3c1.3-0.4,2-0.5,2.4,0.2c0,0.1-0.2,0.5-0.3,0.5C341.7,186.9,341.2,186.7,340.1,186.3z"/>
<path class="st61" d="M330.5,192.5c-0.3,0-0.6,0-0.8-0.1c-0.3-0.2-0.5-0.4-0.6-0.8c-0.1-0.4,0.3-0.5,0.6-0.3l1.3,0.6L330.5,192.5z"
	/>
<path class="st62" d="M296.6,168.3c-0.9,0.9-2.2,1.7-1.5,3.4c0.2,0.5,0.3,1.3-0.5,1.4s-1.3-0.6-1.4-1.2c-0.3-1.7-0.2-3.2,1.9-3.7
	C295.6,167.9,296.2,168,296.6,168.3z"/>
<path class="st46" d="M300.2,166.4c1-0.2,2-0.5,3-0.7c2.2-0.4,2.9,0.6,2.4,3c-1.7-1.3-3.8-1-5.5-1.8l-0.5-0.3L300.2,166.4z"/>
<path class="st63" d="M300.2,166.4c0,0.2,0,0.3,0,0.5c-1.1,0.7-2,1.9-3.6,1.5l-1.5-0.2C296.9,167.7,298.2,166,300.2,166.4z"/>
<path class="st42" d="M250.7,124.2c0.3,3-1.4,6-3.4,6.3c-2.9,0.4-9.1-3.6-9.3-6c-0.2-3,2.4-5.4,6.2-5.8
	C247.7,118.4,250.3,120.6,250.7,124.2z"/>
<path class="st47" d="M293.4,138.7c-3.3-0.4-5.8-2.2-8.5-3.2c-1-0.4-1.1-1.4-0.9-2.4c0-0.7,0.6-1.3,1.3-1.2l0,0c0.2,0,0.3,0,0.5,0.1
	c2.1,0.7,4.4,0.3,6.5,0.5c1.1,0,2.1,0.4,2.9,1.1c0.9,1.1,2.5,1.9,1.6,3.8C296,139,294.4,138.7,293.4,138.7z"/>
<path class="st47" d="M373.5,166.6c3.2-4.2,7.7-2,11.6-2.4c0.5,0,1.2,0.9,1.6,1.6c0.6,1.1-0.7,1.3-1.2,1.8
	C382.1,170.3,377.3,170.4,373.5,166.6z"/>
<path class="st52" d="M331,156.4c1.6-1.7,3.1-2.6,5.7-1.5s5.4,1.1,8.1,1.5c0.7,0.1,1.5,0,1.5,1s-0.8,1.1-1.4,1.3
	C341.4,159.8,334.6,158.7,331,156.4z"/>
<path class="st64" d="M287,98.4c3.5,2.2,6.8,4.1,8.7,7.8C291.6,105.4,287.3,101.8,287,98.4z"/>
<path class="st64" d="M329.6,131.2l1.8,1.6c-1.1,0.7-1.7-0.2-2.5-0.3C328.3,131.6,328.4,131.1,329.6,131.2z"/>
<path class="st65" d="M329.6,131.2c-0.5,0.2-0.8,0.8-0.6,1.3c-1-0.4-1.2-1.5-2-2.3C327.9,129.9,329,130.3,329.6,131.2z"/>
<path d="M92.6,158.6c0-0.5,0.7-0.9,0.2-1.4c-1.4-0.9-0.3-2.3-0.7-3.4c0.5-0.9-1.2-2,0.3-2.7c0.4-1.6-0.7-3.1-0.6-4.6
	c0.4-1.3,0.5-2.7,0.2-4c0.7-1.8,0.5-3.8,1.4-5.5c0.8-1.3,1.8-2.5,2.7-3.6l-0.1,0.1c2.4-3.4,4.8-4,8.8-2.1l0.3,1.3
	c1.4,0.8,2.4,2.3,2.6,3.9c1.1,6.3,0.7,12.8-1.1,19c-1.2,4.6-5.2,7.3-9.9,7.3C94.3,162.3,93.8,160,92.6,158.6z"/>
<path class="st41" d="M96.1,162c5.6-0.1,8.1-2.8,9.6-8c1.7-5.8,1.6-11.5,1-17.4c-0.2-1.5-0.7-2.9-1.6-4.1c2.6,0.2,3.6,1.7,4.3,4.1
	c1.9,6.9,0,13.5-0.9,20.3c-0.3,2.2-1.7,4.1-3.7,5.1c-1.2,0.7-2.4,0.9-3.2,2.6s-3.1,0.6-4.7,0c-0.9-0.3-1.5-1.4-2.3-2.1
	C94.7,161.3,95.4,161.7,96.1,162z"/>
<path class="st41" d="M104.8,131.2c-3.1-0.1-6.3-0.7-8.8,2.1c-0.5-3.8,3-3.6,4.9-4.6C102.5,128,104.3,129.2,104.8,131.2z"/>
<path class="st41" d="M94.1,137c-0.4,1.8-0.6,3.7-1.6,5.4c-1.3,0-1-0.8-0.8-1.6c-0.3-1.8-0.4-3.6,1.4-4.8
	C93.9,136,94.4,136.1,94.1,137z"/>
<path class="st41" d="M96.1,162l-1.4,0.6c-1.2-1-2-2.5-2.2-4.1C94.3,159.1,94.6,161.2,96.1,162z"/>
<path class="st41" d="M91.8,140.8l0.8,1.6c0.2,1.4-0.1,2.8-0.7,4C91.7,144.6,91.1,142.7,91.8,140.8z"/>
<path class="st41" d="M94.1,137l-1-1c1.2-0.7,1.4-2.5,3-2.8L94.1,137z"/>
<path class="st41" d="M92.4,153c0.1,1.4,0.2,2.8,0.3,4.2c-2.8-0.7-0.1-3-1.3-4.2C91.7,152.7,92.1,152.6,92.4,153
	C92.4,152.9,92.4,152.9,92.4,153z"/>
<path class="st41" d="M92.4,153h-0.9c-0.4-1-1.3-2.2,0.9-1.9C91.6,151.7,92.5,152.3,92.4,153z"/>
<path class="st66" d="M102.3,46.3V45c1,0.1,2.4,0.2,2.1,1.4C104.2,47.4,103,47.2,102.3,46.3z"/>
<path d="M265.1,170.4c1.9,2.9,3.2,1.7,4.3-0.7c1.4,1.2,3.4-1,4.8,0.7c1.7,2.5,1.4,4.4-1.3,6.2c-3.7,2.5-7,5.4-10.6,8.1
	c-2.8,2.1-4.2-0.5-5.8-2s-0.9-2.4,0.6-3.6s1.3-2.8-0.3-4.3c-2.3-2.4-5.4-3.9-8.8-4.3c-2.1-0.3-4.1-1.5-6.1-2.2
	c-3.5-1.9-6.9-4.3-11.1-1.6c-3.3,2.1-5.1-0.4-6.4-2.6c-1.5-2.4,1.8-3.6,2.6-4c3.5-1.7,5.9-5,10-6c3-0.7,4.3,0.5,4.4,2.6
	c0.1,3.6,2.7,3.9,4.9,4.4c1.3,0.3,2.7,0.2,3.7,1.6c-0.3-1.8-0.7-3.7-1.2-5.5c-0.3-1.6-1.4-3-3.5-2.4c-1.3,0.4-2.1-0.4-2.9-1.3
	c-0.7-1-0.5-2.3,0.4-3.1c3.5-2.8,7-5.7,11.3-7.4c1.3-0.5,3.1-1.5,4.7,0.5s2.4,4.1,0.6,6.5c-3.5,2.1-3.9,2.9-1.3,7.8
	c0.9,1.7,1.5,3.5,1.8,5.4C260.3,166.4,262.3,169.1,265.1,170.4z"/>
</svg>
