<?xml version="1.0" encoding="utf-8"?>
<!-- Generator: Adobe Illustrator 24.3.0, SVG Export Plug-In . SVG Version: 6.00 Build 0)  -->
<svg version="1.1" id="Layer_1" xmlns="http://www.w3.org/2000/svg" xmlns:xlink="http://www.w3.org/1999/xlink" x="0px" y="0px"
	 viewBox="0 0 612 792" style="enable-background:new 0 0 612 792;" xml:space="preserve">
<style type="text/css">
	.st0{fill:#FFFFFF;}
</style>
<g>
	<path d="M0,392c3.8-5.6,9.4-6.2,15.3-5.4c14.8,2.1,29.6,4.4,44.4,6.8c22.5,3.6,44.4,2.7,65.6-6.9c6.7-3,13.7-5.3,20.7-7.5
		c1.9-0.6,4.5-0.3,6.2,0.6c5,2.8,9.8,6,14.5,9.3c1.4,1,2.4,2.7,3.1,4.2c5.3,12.9,16.6,20,29.7,18.7c11.6-1.2,22.6-11.6,24.7-23.6
		c2.3-12.8-3.9-24.9-15.9-31.3c-0.8-0.4-1.6-1-3.2-1.9c6.4-2.9,12.2-5.5,17.9-8.1c24.9-11.5,49.9-23,72.3-39.3
		c7.9-5.8,14.9-12.9,22.8-18.7c4.4-3.3,9.4-5.9,14.5-7.7c6-2.2,11.3,1.1,14.5,5.8c14.9,21.8,36.7,35,57.6,49.2
		c-0.1,6.4,5.5,12.2,14.5,15.1c4.3,1.4,5.2,1.1,7.9-2.7c19.2,9.1,39.4,15.2,59.7,19.2c1.5,1.9,2.7,4.6,4.6,5.5
		c5.3,2.5,10.9,5.2,17.8,1.3c-2.4-2.2-4.2-3.9-6.9-6.4c25.6,1.7,50.3,3.1,74.9,5.3c14.3,1.3,22.1,11.5,27.5,24
		c0.3,0.7,0.5,1.8,0.2,2.4c-3.6,7.1-0.9,14.4-0.6,21.6c0.1,1.9,2.1,3.8,3.4,5.5c0.7,1,2.8,1.8,2.7,2.5c-0.3,1.6-1.1,3.6-2.3,4.4
		c-6.3,3.8-12.6,7.7-19.3,10.8c-49.4,22.7-101.3,31.1-155.2,28.9c-45.4-1.8-89.3-11.6-132.5-25.7c-39.4-12.9-79.6-22.7-120.5-29.1
		c-33.7-5.3-67.6-7.8-101.6-9c-21.2-0.8-42.3-1.6-63.4-2.6C9.4,406.7,4.1,404,0,399C0,396.7,0,394.3,0,392z M521.1,461
		c-3.1-7.5-5.3-13.2-7.8-18.7c-1.7-3.6-5-5.5-8.8-5c-6.8,0.7-13.6,1.5-20.2,3.2c-2.4,0.6-5.1,3.4-6,5.8c-1.6,4.5-2.2,9.4-2.8,14.1
		c-0.4,2.7,0.7,5.4,3.8,5.1C492.8,464.2,506.3,462.6,521.1,461z M428.8,468.1c-1-7.7-1.1-13.8-2.7-19.5c-0.8-2.8-3.8-6.2-6.5-7.1
		c-6.2-1.9-12.7-2.9-19.2-3.3c-2.8-0.2-6.8,1.4-8.5,3.6c-3,4-4.9,8.9-6.8,13.6c-1.3,3,0,5.1,3.2,5.9c3,0.7,6,1.7,9,2.2
		C407.5,465.1,417.6,466.5,428.8,468.1z M587.5,440.3c-2.9-4.7-5-8-7.1-11.4c-6.4-10.4-7.8-10.8-18.8-6c-0.4,0.2-1.1,0.3-1.3,0.6
		c-1.5,2.3-4.1,4.8-4.1,7.1c0.1,5.1,1.5,10.1,2.7,15.1c0.6,2.6,2.3,3.8,5.2,2.8C571.5,445.9,578.9,443.3,587.5,440.3z M408.5,397.5
		c6,0,10.9-4.2,10.8-9.2c-0.1-4.9-4.8-8.9-10.6-8.9c-6,0-10.9,4.1-10.8,9.2C398.1,393.5,402.8,397.5,408.5,397.5z M467.5,403
		c0.1-0.2,0.2-0.5,0.3-0.7c1.1-0.1,2.5,0.1,3.4-0.4c1.8-1.2,4.6-2.6,4.8-4.1c0.2-1.9-1.4-4.8-3-6c-4-2.8-8.7-3.6-13.5-1.9
		c-4.7,1.7-5.6,6.2-1.6,9.1C460.5,401,464.2,401.7,467.5,403z M514.6,386.7c-2.7,0.7-4.8,1-6.6,1.9c-2.7,1.3-3.3,3.5-1.2,6
		c3.2,3.7,11.9,5.3,16.2,3c3.2-1.7,3.7-4.6,0.8-6.6C521,389.1,517.5,388.1,514.6,386.7z M450.2,363.6c-2.2,1.3-4.4,1.9-5,3.2
		c-0.4,0.9,1.1,3.7,2.3,4.2c4.6,1.9,9.3,3.4,14.1,4.6c1.1,0.3,3-1.1,3.7-2.3c0.3-0.6-0.9-2.9-1.9-3.5
		C459.1,367.6,454.7,365.7,450.2,363.6z M547.5,378.4c-2.1,0.2-3,0-3.7,0.3c-1.5,0.7-2.9,1.6-4.3,2.5c1.2,1.2,2.2,3.2,3.5,3.6
		c4,1,8.2,1.5,12.4,1.8c1,0.1,2.2-1.5,3.2-2.3c-0.8-1.1-1.4-2.9-2.5-3.3C553,379.7,549.6,379,547.5,378.4z"/>
	<path d="M612,451c-2.8,4.4-5.5,8.9-8.5,13.2c-2,2.8-5,4.2-5.2,8.7c-0.3,4.9-9,8.4-13.8,6.6c-0.7-0.3-1.5-0.4-2.3-0.6
		c-3.4,9.5-9.7,12.4-19.7,9.4c-0.8-0.2-2.4,0.2-2.8,0.8c-7.1,9.7-13.8,11.4-23.8,5.6c-2.5,7.9-9.5,8.2-15.8,8.9
		c-2.1,0.3-4.4-2.3-6.8-3c-1.5-0.4-4.4-0.2-4.9,0.6c-4.2,8.6-15.5,10.1-21.5,2.8c-0.3-0.4-0.7-0.6-1.1-0.9c-7.8,7.7-14.4,8.4-25,3.2
		c-1.5-0.7-4.4-0.4-5.7,0.7c-5.2,4.1-14,5.3-19.6,2.4c-2-1.1-4.5-1.8-6.8-1.8c-15.8,0.3-31.6,0.8-47.4,1.4
		c-4.1,0.1-7.6-0.9-11.3-3.1c-10-5.8-20.4-11.2-31-15.8c-16.4-7.2-33.1-14-49.9-20.2c-18.3-6.8-36.2-4.1-52.4,6.4
		c-10.4,6.7-19.7,15.1-29.6,22.6c-1.8,1.4-4.2,2.3-6.5,2.7c-3,0.6-6.2,0.3-9.2,0.9c-1.5,0.3-2.8,1.8-4.1,2.8c-1.4,1.1-2.5,2.9-4,3.2
		c-6.9,1.5-14,4.5-19.6-3.4c-0.6-0.9-4.4-0.8-5.6,0.2c-6,5.3-14.8,6.4-21.1,2.2c-3.9-2.6-7.4-3.3-11,0.8c-2.8,3.2-11.9,3.5-15.1,0.4
		c-3.5-3.4-6.3-4.1-10.4-0.6c-3.9,3.4-16.4,1.3-20.7-3c-3.1-3.1-6.3-3.4-10.6-2.8c-7.8,1-15.2-0.5-20.4-7.7
		c-1.3-1.8-3.3-3.2-5.2-4.3C25,479.3,12.5,463.4,8.5,441.1c-0.3-1.7-1-3.4-1.5-5.3c4.7,1.4,9.1,2.9,13.6,4.1
		c17.3,4.6,34.9,3.8,52.5,2.8c34.3-2,68.3,0.1,102.1,7c8.6,1.7,17.1,4.1,25.7,5.9c1.7,0.3,3.6-0.7,5.5-1.1c-1.4-1.3-2.6-3.2-4.2-3.7
		c-23.5-7.4-47.7-10.5-72-12.9c-23.9-2.3-47.8-0.8-71.7-0.2c-12.1,0.3-24.3-1.5-36.4-2.8c-3.6-0.4-7.2-1.9-10.6-3.5
		c-10.3-4.7-12.4-11.2-7.1-22c19.4,6,39.6,4,59.5,5.3c30.2,2,60.5,2.8,90.6,5.8c33.4,3.3,66.4,9.9,98.8,18.9
		c21.8,6,43.4,12.9,65.2,19.3c33.9,10,68.3,17.1,103.5,19.4c25.8,1.7,51.5,1.4,77.1-2c32.3-4.4,63.5-12.8,93.1-27
		c4.8-2.3,9.6-5,14.1-7.8c3-1.9,4.7-1.6,5.9,1.8C612,445.7,612,448.3,612,451z"/>
	<path d="M198,406.9c-11.4,0-20-6.5-23.7-16.1c-0.9-2.4-2.7-4.9-4.8-6.3c-33.2-21.5-66.5-42.9-99.9-64.3c-4.5-2.9-9.2-5.6-13.7-8.6
		c-7.6-5-8.9-10.5-4.6-18.6c0.8-1.5,1.5-2.9,2.3-4.4c3.5-6.5,9.9-8.5,16.1-4.6c19.5,12.3,38.9,24.8,58.4,37.2
		c19.6,12.5,39.1,25.1,58.8,37.4c1.8,1.1,4.6,1.1,6.9,1c10-0.4,17.9,3,22.8,12.2c4.9,9.2,3.7,18-2.5,26.1
		C209.7,403.9,203.5,406.5,198,406.9z"/>
	<path d="M366.5,509.8c-49.9-3.9-99.7-7.8-150.7-11.8c5.4-4.2,10.2-8.3,15.4-11.8c11-7.6,22.7-13.7,36.4-14.4
		c11.2-0.6,21.6,3.2,31.6,7.4c20.6,8.6,40.8,18.1,61.2,27.2C362.5,507.4,364.6,508.7,366.5,509.8z"/>
	<path class="st0" d="M521.1,461c-14.8,1.6-28.3,3.2-41.8,4.5c-3.2,0.3-4.2-2.4-3.8-5.1c0.7-4.8,1.2-9.7,2.8-14.1
		c0.9-2.4,3.6-5.2,6-5.8c6.6-1.7,13.4-2.5,20.2-3.2c3.8-0.4,7.2,1.4,8.8,5C515.8,447.8,518,453.5,521.1,461z"/>
	<path class="st0" d="M428.8,468.1c-11.2-1.6-21.3-3-31.4-4.6c-3-0.5-6-1.5-9-2.2c-3.3-0.7-4.5-2.8-3.2-5.9c2-4.7,3.8-9.7,6.8-13.6
		c1.7-2.2,5.6-3.7,8.5-3.6c6.4,0.4,13,1.4,19.2,3.3c2.7,0.8,5.7,4.2,6.5,7.1C427.7,454.3,427.9,460.4,428.8,468.1z"/>
	<path class="st0" d="M587.5,440.3c-8.5,3-16,5.5-23.4,8.2c-2.9,1-4.6-0.2-5.2-2.8c-1.2-5-2.6-10-2.7-15.1c-0.1-2.3,2.6-4.8,4.1-7.1
		c0.2-0.3,0.9-0.4,1.3-0.6c11-4.8,12.4-4.4,18.8,6C582.5,432.3,584.5,435.7,587.5,440.3z"/>
	<path class="st0" d="M408.5,397.5c-5.7,0-10.4-4-10.6-8.9c-0.1-5.1,4.7-9.2,10.8-9.2c5.8,0,10.5,4,10.6,8.9
		C419.4,393.3,414.5,397.5,408.5,397.5z"/>
	<path class="st0" d="M467.5,403c-3.3-1.3-6.9-2-9.7-4.1c-4-2.9-3.1-7.4,1.6-9.1c4.8-1.8,9.5-0.9,13.5,1.9c1.7,1.2,3.3,4.1,3,6
		c-0.2,1.6-3,3-4.8,4.1c-0.9,0.6-2.2,0.3-3.4,0.4C467.7,402.6,467.6,402.8,467.5,403z"/>
	<path class="st0" d="M514.6,386.7c2.9,1.3,6.4,2.4,9.2,4.3c3,2,2.4,4.9-0.8,6.6c-4.3,2.3-13,0.7-16.2-3c-2.2-2.5-1.5-4.7,1.2-6
		C509.8,387.7,511.9,387.5,514.6,386.7z"/>
	<path class="st0" d="M450.2,363.6c4.5,2.1,8.9,4,13.1,6.3c1,0.6,2.3,2.9,1.9,3.5c-0.7,1.2-2.6,2.6-3.7,2.3
		c-4.8-1.2-9.5-2.7-14.1-4.6c-1.2-0.5-2.7-3.3-2.3-4.2C445.8,365.5,448,364.9,450.2,363.6z"/>
	<path class="st0" d="M547.5,378.4c2.1,0.6,5.5,1.3,8.6,2.5c1.1,0.4,1.7,2.2,2.5,3.3c-1.1,0.8-2.2,2.4-3.2,2.3
		c-4.1-0.3-8.3-0.8-12.4-1.8c-1.4-0.3-2.4-2.3-3.5-3.6c1.4-0.8,2.8-1.8,4.3-2.5C544.5,378.4,545.4,378.5,547.5,378.4z"/>
</g>
</svg>
