<svg width="316" height="233" viewBox="0 0 316 233" fill="none" xmlns="http://www.w3.org/2000/svg">
<g clip-path="url(#clip0_128_1219)">
<path d="M0.912384 160.156C1.05273 158.402 2.03531 157.63 3.78986 158.472C4.91278 159.455 4.91278 160.788 5.12332 162.051C5.33389 164.578 5.96552 167.034 7.01828 169.35C8.00082 171.245 9.54483 172.508 10.387 174.403C11.5099 176.93 13.2645 178.895 14.9489 181.071C17.4053 184.229 21.0547 185.913 23.7919 188.791C28.5643 193.774 34.9509 196.792 40.2146 201.213C40.6357 201.494 41.0567 201.704 41.548 201.845C44.0044 202.757 46.1801 204.231 48.4961 205.424C50.1805 206.266 52.0052 206.196 53.5492 207.108C58.0409 209.846 63.1642 211.249 68.0068 213.074C75.2356 215.811 82.9557 215.881 90.395 217.566C94.8867 218.618 99.4485 218.197 104.01 218.759C108.853 219.461 113.836 218.759 118.749 218.899C121.345 219.11 124.012 219.039 126.609 218.759C131.662 218.057 136.715 217.776 141.769 217.425C148.787 216.934 155.384 214.899 162.192 213.425C171.035 211.46 179.316 207.74 187.808 204.863C190.896 203.81 193.914 202.476 196.792 201.003C203.81 197.353 209.775 192.23 216.022 187.457C220.513 184.018 224.865 180.299 227.953 175.316C228.654 174.193 229.497 173.21 230.479 172.298C233.146 169.631 235.673 166.894 238.41 164.297C242.691 160.297 245.498 155.033 250.06 151.384C250.341 151.103 250.622 150.822 250.832 150.471C255.955 144.085 260.587 137.347 265.991 131.171C269.009 127.732 272.027 124.293 274.834 120.644C276.589 118.257 279.116 116.573 281.572 114.959C282.765 114.187 284.169 114.046 285.151 115.31C286.134 116.573 285.362 117.626 284.52 118.538C282.976 120.152 281.572 121.837 279.958 123.311C277.01 125.977 273.641 128.223 271.676 131.943C276.168 130.399 280.8 129.416 284.169 125.627C285.081 124.504 286.204 123.451 287.327 122.539C293.994 117.556 300.1 111.73 305.434 105.344C307.82 102.396 309.294 98.8871 309.715 95.0972C310.277 90.6757 311.54 86.3244 311.189 81.7625C311.049 79.7272 310.978 77.692 311.049 75.6567C311.61 66.182 311.119 56.7074 310.768 47.2328C310.628 42.1796 307.118 38.3898 304.451 34.4596C303.82 33.5472 303.609 34.4596 303.609 35.0912C303.609 35.7229 303.399 36.5651 304.03 37.1265C304.662 38.3196 305.223 39.5127 305.645 40.776C305.995 41.8287 306.487 42.9517 306.276 44.1448C305.645 48.9873 305.083 53.8299 302.697 58.1111C304.451 55.3739 305.785 52.4965 305.715 49.0575C305.715 48.2153 306.276 47.4433 307.048 47.0924C309.013 46.952 309.505 48.4259 309.434 49.8295C309.294 53.6194 308.241 57.2689 306.346 60.5674C303.329 65.7609 298.065 68.9893 294.275 73.6214C291.959 76.4989 288.38 78.464 285.572 81.0607C282.204 84.0084 279.116 87.307 276.378 90.8863C273.15 95.3078 269.15 98.8871 265.219 102.607C263.465 104.291 261.64 105.625 261.219 108.221C261.079 109.485 259.886 110.467 258.622 110.327C258.622 110.327 258.622 110.327 258.552 110.327C257.289 110.046 257.219 108.923 256.938 108.011C256.798 105.765 257.78 103.589 259.535 102.186C263.605 98.8871 267.395 95.2376 270.904 91.3775C276.87 85.0611 281.572 77.692 287.959 71.7966C290.485 69.4806 291.608 66.1119 294.064 63.7958C295.398 62.5326 296.31 60.9885 296.802 59.234C297.854 55.5845 299.819 52.3561 300.802 48.7066C301.504 46.18 301.785 43.7938 300.942 41.2673C299.609 37.1967 297.503 33.5472 296.451 29.3363C295.679 26.4588 293.784 23.9322 293.363 20.8442C293.292 20.4231 293.012 20.0722 292.731 19.8616C291.538 18.6685 290.906 17.1947 290.204 15.7209C287.327 9.33426 282.133 5.75496 275.817 4.28113C271.185 3.08802 266.413 2.87748 261.71 3.5793C259.184 4.0004 256.587 3.64948 254.131 4.35131C251.113 5.26368 248.095 5.89532 245.007 6.3866C238.691 7.22879 233.076 9.68517 227.532 12.4925C225.286 13.6154 223.04 14.9489 220.934 16.2823C215.741 19.5809 209.705 21.1951 204.792 25.1253C199.88 29.0555 194.054 31.7225 188.931 35.4421C187.317 36.6352 185.141 36.916 183.738 38.6003C182.685 39.7233 181.351 40.6356 179.948 41.1269C177.421 42.2498 175.316 44.2149 172.859 45.4782C172.438 45.6888 172.508 46.18 172.368 46.531C171.807 47.5837 170.964 47.7241 169.842 47.4433C168.719 47.1626 168.157 46.3906 167.315 46.0397C166.473 45.6888 165.49 45.3379 165.56 44.2851C165.631 43.0218 166.683 42.8815 167.666 42.6709C168.719 42.6007 169.771 42.32 170.684 41.8287C175.105 39.8636 178.825 36.7054 182.895 34.1087C192.23 28.2133 201.003 21.4758 211.319 17.3351C215.671 15.5805 219.39 12.5627 223.531 10.3168C223.882 10.5274 224.303 10.5975 224.654 10.5975C225.707 10.6677 226.619 9.96591 226.9 8.98335C227.602 9.26408 228.304 9.12372 228.935 8.7728C229.848 8.21134 230.76 7.5797 231.602 6.94806C234.83 5.96551 238.059 5.05313 241.287 3.93021C244.516 2.8073 248.095 2.94766 251.323 1.89492C255.885 0.35091 260.728 1.47383 265.36 0.35091C267.325 -0.140367 269.992 0.210545 272.308 0.421092C275.536 0.701822 278.414 1.89492 281.432 2.8073C283.748 3.50912 285.151 5.47423 287.046 6.3866C289.994 7.86043 291.608 10.387 293.292 12.9136C296.17 17.1947 297.854 22.1075 299.539 26.9501C299.89 28.0028 300.591 28.845 301.504 29.4064C303.118 30.389 305.013 30.9505 306.346 32.4945C308.031 34.4596 309.785 36.2843 311.329 38.3196C314.558 42.5306 315.54 47.4433 315.33 52.2859C315.189 55.8652 315.189 59.5147 314.909 63.094C314.558 68.4279 315.049 73.8319 314.979 79.236C314.979 83.4469 314.488 87.6579 314.558 91.8688C314.558 93.3426 314.347 94.8867 313.856 96.2903C313.154 98.6765 310.908 100.571 311.54 103.519C311.61 103.94 311.189 104.853 310.698 105.484C308.312 108.713 306.346 112.222 302.627 114.748C303.82 114.889 304.802 114.538 305.153 115.45C305.364 116.012 305.153 116.643 304.662 116.994C303.188 118.117 302.276 119.801 301.153 120.924C299.469 122.609 298.346 124.995 295.819 126.048C294.766 126.539 293.854 127.171 292.942 127.943C288.38 131.592 284.028 135.592 279.186 138.681C271.325 143.804 264.377 149.91 257.359 156.016C251.394 161.209 245.709 166.683 240.375 172.438C238.269 174.754 235.883 176.719 233.848 179.035C229.216 184.089 224.935 189.422 218.969 193.072C216.092 194.826 213.846 197.353 211.6 199.95C208.863 203.178 204.792 204.652 201.283 206.898C198.125 209.074 194.826 210.898 191.247 212.372C188.51 213.425 185.633 213.846 182.966 215.109C178.685 217.144 174.263 218.899 170.122 221.215C166.683 223.18 162.753 222.97 159.174 224.163C154.542 225.637 149.98 227.321 144.997 227.531C143.734 227.602 142.19 226.9 141.067 227.953C139.944 229.005 138.681 229.005 137.487 229.146C132.785 229.637 128.083 229.848 123.381 230.479C117.064 231.462 110.678 232.093 104.361 232.374C100.01 232.514 95.5885 233.076 91.3074 232.514C83.7979 231.532 76.2182 231.251 68.7086 229.707C64.7784 228.865 60.6376 228.935 56.6372 228.023C52.1456 226.97 47.7241 225.707 43.3728 224.093C38.6004 222.408 33.9683 220.373 29.4767 217.916C25.6868 215.741 22.2478 212.793 18.3878 210.688C17.8264 210.337 17.3351 209.916 17.6158 209.354C18.2475 207.951 17.1947 207.529 16.4227 206.828C13.9663 204.722 12.3521 201.845 11.8608 198.687C11.5099 196.3 12.1416 194.054 12.0714 191.668C12.0714 189.142 12.703 187.668 15.5805 187.878C14.3874 185.492 13.1943 183.597 10.5976 183.176C10.2467 183.106 9.89575 182.825 9.68518 182.474C8.28156 179.457 5.47424 177.421 4.21097 174.263C2.94769 171.105 0.982574 168.157 0.701843 164.578C0.350922 163.104 0.772034 161.63 0.912384 160.156ZM300.662 60.9885C300.17 61.4798 299.89 62.1115 299.328 62.5326C299.188 62.6729 299.118 62.7431 298.977 62.8133C299.047 62.8835 299.047 62.7431 299.047 62.8133C299.609 62.2518 300.1 61.6904 300.521 61.0587L300.732 60.778L300.662 60.9885Z" fill="black"/>
<path d="M137.558 39.7233C138.049 39.232 138.54 38.8109 139.031 38.3196C139.312 38.2494 139.593 38.1793 139.874 38.1091C139.663 41.2673 138.961 41.6182 136.014 40.9866C135.803 40.8462 135.592 40.776 135.382 40.5655L135.592 40.4251C136.364 40.4953 137.066 40.2145 137.558 39.7233Z" fill="black"/>
<path d="M12.6329 115.169C13.1943 114.818 13.6154 114.187 13.6856 113.555H13.826C14.6682 113.836 15.2296 114.678 15.0191 115.59C14.9489 115.871 14.8787 116.082 14.7384 116.292C14.0365 117.205 13.054 117.485 12.0714 117.907C10.9485 118.257 9.89577 118.749 8.84303 119.24C9.82558 117.696 11.159 116.292 12.6329 115.169Z" fill="black"/>
<path d="M7.01807 121.767C6.94788 122.117 6.94788 122.468 6.94788 122.889C7.01806 124.223 5.96533 125.276 4.21077 124.644C5.33369 123.802 6.24606 122.819 7.01807 121.767Z" fill="black"/>
<path d="M4.28105 124.644C5.61452 124.644 6.66726 123.521 6.73744 122.188C7.79017 120.854 8.63235 119.451 9.68509 118.117C11.3695 117.345 13.124 116.573 14.8786 115.801C15.2997 116.994 14.3171 117.556 13.8258 118.328C11.58 121.696 8.21125 124.223 6.8076 128.223C6.24614 129.767 6.38651 131.452 5.40395 132.855C4.21085 133.627 4.98286 134.68 5.05304 135.592C5.12322 136.224 5.12324 136.856 4.98288 137.558C4.07051 142.541 4.21086 147.594 4.49159 152.647C4.63196 154.752 5.05306 156.998 3.93014 159.033C2.52649 158.332 1.61412 158.402 1.47375 160.297C1.33339 161.7 1.12283 163.174 0.912283 164.578C-0.280819 160.297 0.210466 155.945 -8.01086e-05 151.664C-0.140446 145.839 0.280641 139.944 1.2632 134.189C1.75447 130.82 3.2985 127.802 4.28105 124.644Z" fill="#272727"/>
<path d="M4.49139 134.961C2.8772 142.962 3.50885 150.962 3.85977 159.033C4.49139 161.63 4.84232 164.297 4.84232 166.894C4.84232 167.104 4.84232 167.525 4.91251 167.596C6.94778 169.07 6.94778 171.807 8.9129 173.561C10.7376 175.175 11.2991 177.912 13.0537 179.878C15.2995 182.404 17.7559 184.72 20.493 186.755C23.0196 188.65 25.125 191.037 27.6516 192.932C31.5818 195.949 35.7928 198.616 39.7932 201.494C41.9688 203.038 44.706 204.02 47.022 205.424C49.9696 207.179 53.549 206.968 56.1457 209.495C57.0581 210.337 59.0232 210.056 60.3566 210.758C67.5152 214.407 75.3757 215.881 83.2361 217.074C86.6049 217.566 89.9736 217.917 93.2722 218.899C94.6758 219.461 96.2199 219.461 97.5533 218.899C98.1148 218.689 98.6763 218.618 99.2377 218.689C104.501 219.741 109.765 219.39 115.029 219.39C119.38 219.39 123.802 219.601 128.153 219.18C134.82 218.548 141.417 217.917 148.085 217.285C151.524 216.934 154.471 215.53 157.7 215.039C163.174 214.197 168.367 212.162 173.631 210.618C177.912 209.424 181.913 207.459 186.124 205.985C192.089 203.88 197.984 201.424 203.108 197.634C207.81 194.195 212.723 191.037 217.214 187.317C221.285 184.018 224.934 180.299 228.023 176.088C231.532 171.245 236.304 167.315 240.375 162.823C245.007 157.77 249.498 152.647 253.85 147.313C257.078 143.453 259.675 139.102 263.044 135.382C265.991 132.013 269.079 128.715 271.816 125.205C274.273 122.047 276.729 119.1 279.958 116.784C280.589 116.152 281.291 115.661 282.063 115.169C282.975 114.748 284.028 114.889 284.73 115.59C285.432 116.362 284.8 117.275 284.168 117.977C281.01 121.135 277.852 124.293 274.483 127.171C272.378 128.855 270.693 131.031 269.711 133.557C273.431 132.294 276.729 131.031 280.028 129.838C281.782 129.206 283.396 127.522 284.59 126.048C287.537 122.328 291.748 120.152 295.117 116.924C298.977 113.274 302.416 109.414 305.855 105.554C308.803 102.186 309.715 98.2554 310.206 94.1848C310.697 90.1143 311.82 86.1139 311.54 81.9029C311.329 73.6916 312.171 65.41 311.469 57.1285C311.259 54.251 311.399 51.2332 311.399 48.2855C311.399 44.3553 309.855 41.0567 307.609 38.0389C306.908 37.1265 306.276 36.2141 305.785 35.1614C305.364 33.6876 303.89 32.7752 302.346 33.0559C301.854 34.1087 303.469 34.4596 303.048 35.4421C303.398 36.0738 302.767 36.9861 303.609 37.4072L304.802 40.5655C306.136 41.6182 305.785 43.1622 306.065 44.4957C306.276 45.4782 306.065 46.6011 306.908 47.4433C308.592 47.0924 308.592 48.5663 308.662 49.4084C308.873 52.0754 307.68 54.4616 306.978 56.918C305.574 61.8307 301.854 64.9889 298.416 68.077C294.977 71.165 292.099 74.6039 288.45 77.4112C282.765 81.8327 277.782 87.0964 273.711 93.0619C271.746 95.8692 268.869 98.1151 266.342 100.501C265.149 101.765 263.745 102.958 262.342 104.01C261.219 104.853 260.587 106.186 260.587 107.59C260.517 108.713 260.166 109.695 258.833 109.836C257.359 112.152 256.236 114.678 255.604 117.275C255.113 119.029 254.341 120.082 252.516 120.644C250.411 121.205 248.375 122.117 246.27 122.749C244.094 123.451 241.708 123.17 239.673 122.117C238.901 122.047 238.129 121.696 237.567 121.135C233.848 118.187 231.251 114.046 230.339 109.344C229.707 105.414 229.777 101.414 230.479 97.4834C230.619 96.7114 230.689 95.8692 230.619 95.027C230.339 93.3427 230.83 91.5881 232.023 90.2546C233.427 88.7106 233.848 86.6051 234.83 84.8506C235.532 83.6575 234.9 82.9557 233.777 82.6047C231.04 81.8327 228.514 80.3589 225.636 80.0782C225.005 80.008 224.373 79.6571 223.882 79.236C222.548 77.9727 220.302 78.1131 219.671 75.9374C218.758 74.5338 217.004 74.3232 215.741 73.481C215.46 73.2705 215.249 73.0599 214.969 72.8494C213.916 72.0072 212.582 71.6563 211.459 70.9545C210.828 70.8141 210.196 70.5334 209.635 70.1123C201.002 64.5679 192.229 59.0936 182.965 54.6019C175.737 50.8823 168.718 46.3204 160.788 43.4429C160.577 43.4429 160.367 43.4429 160.156 43.4429C159.595 43.5833 158.893 43.4429 158.542 42.9517C158.121 42.5306 157.7 42.2498 157.208 41.9691C154.752 41.0567 152.436 39.9338 150.19 38.6003C147.313 36.9861 144.997 38.0389 142.4 39.3022C138.68 41.1269 136.224 44.3553 133.206 46.8819C126.89 52.2157 120.643 57.6198 114.467 63.094C113.204 64.2169 112.081 65.6206 110.818 66.7435C110.256 67.305 109.625 67.9366 110.116 68.9192C111.239 69.4806 112.151 68.7788 113.134 68.5682C115.029 68.1472 115.731 68.849 115.309 70.6737C115.029 71.4457 114.608 72.1476 113.976 72.709C111.941 74.8847 109.204 75.8672 106.537 76.7796C105.624 76.9901 104.712 76.8498 104.01 76.2883C103.028 75.7269 101.834 75.6567 100.782 76.148C99.5886 76.7094 98.4657 77.4814 97.5533 78.464C94.1846 81.6222 90.2544 84.0084 86.3241 86.3244C85.131 87.0262 83.7274 87.4473 82.9554 88.6404C82.815 89.1317 83.0256 89.623 83.5168 89.8335C85.131 90.1844 86.3943 88.5702 88.0085 89.1317C88.6402 89.3423 89.6227 89.0615 89.8333 89.9739C90.0438 90.8863 89.342 91.3074 88.7805 91.7986C86.3943 93.6234 83.5168 94.8165 80.499 95.2376C79.9375 95.3078 79.3059 95.3779 78.8848 94.8867C78.3935 94.1848 78.955 93.6936 79.3761 93.2023C79.7972 92.711 80.2183 92.1496 79.7972 91.4477C79.5164 91.2372 79.1655 91.0968 78.8146 91.0266C75.0248 92.6408 71.1647 93.9041 67.3749 95.5183C63.9359 96.6412 60.5672 97.9747 57.3388 99.6591C56.9879 100.08 56.7071 100.431 57.058 100.993C57.8301 101.694 58.8828 101.554 59.8654 101.905C61.269 102.466 61.269 103.379 60.1461 104.01C57.2686 105.414 54.0402 105.975 50.882 105.554C50.1802 105.484 49.6187 104.923 49.4784 104.291C49.0573 102.396 47.794 102.677 46.4605 102.958C36.7051 104.853 27.6516 108.502 18.7384 112.853C17.7559 114.257 15.7206 114.187 14.8784 115.731C13.194 117.907 11.7904 120.223 9.89545 122.117C7.3689 124.644 5.82486 127.943 5.40378 131.522C5.2634 132.013 5.12305 132.434 4.91251 132.855C4.56158 133.487 4.42123 134.259 4.49139 134.961Z" fill="#75AAF1"/>
<path d="M257.359 107.8C258.061 105.625 258.061 103.309 260.798 102.115C262.763 101.273 264.097 99.0274 265.641 97.4132C267.957 94.8867 271.045 93.1321 272.87 90.1844C275.326 86.3244 278.975 83.3767 281.572 79.5869C283.046 77.6218 284.66 75.7269 286.485 74.0425C288.38 72.1476 290.556 70.5334 291.538 67.7962C292.029 66.533 293.152 65.41 294.205 64.4275C296.381 62.4624 297.293 60.006 297.925 57.1285C298.276 55.7249 299.679 54.3212 300.1 52.707C300.732 50.1804 302.136 47.8644 302.136 45.1273C302.206 41.8287 300.802 39.0214 299.539 36.144C298.627 33.8981 297.855 31.6523 297.363 29.3363C296.872 27.2308 295.468 25.3359 294.696 23.2304C293.152 18.6685 290.766 14.3874 287.678 10.6677C283.678 5.82514 278.344 3.64949 272.098 2.94766C267.044 2.3862 262.061 2.94766 257.008 3.29858C255.324 3.50912 253.71 3.86004 252.096 4.28113C247.464 5.40405 242.691 5.82514 238.059 7.29897C233.427 8.77281 228.935 10.7379 224.724 13.1943C221.496 15.1594 218.338 17.3351 214.829 18.7387C209.916 20.7038 205.845 23.9322 201.424 26.5991C197.564 28.9152 193.704 31.3014 189.984 33.8279C187.317 35.6527 184.51 37.2669 181.913 39.232C179.036 41.4076 175.807 43.5833 172.298 44.9168C170.894 45.408 171.316 45.8291 172.158 46.4608C172.438 47.0222 173.07 47.4433 173.702 47.3731C176.79 46.2502 180.229 45.5484 182.545 42.9517C182.685 42.8113 182.755 42.7411 182.966 42.6709C191.668 37.6178 199.318 30.8101 208.723 26.8097C210.477 25.9675 212.162 24.9148 213.636 23.5813C216.583 21.1249 220.373 20.3529 223.672 18.458C229.988 14.8085 237.077 12.8434 243.954 10.5274C246.13 9.82554 248.446 9.68518 250.692 9.26408C252.868 8.98335 255.043 8.42189 257.079 7.64989C259.044 6.73752 261.149 7.29898 263.114 7.01825C266.343 6.45679 269.641 6.52697 272.87 7.29897C275.186 7.86043 277.221 8.70262 278.765 10.5274C279.537 11.3696 280.519 12.0012 281.572 12.4223C287.538 15.2296 289.433 18.458 289.012 25.0551C289.012 25.2657 288.871 25.5464 288.941 25.757C290.766 31.5119 287.257 35.5825 284.52 39.7934C282.414 43.0218 280.239 46.18 278.203 49.4786C275.115 54.3914 270.764 58.1812 267.044 62.5326C266.132 63.4449 265.29 64.4977 264.658 65.6206C262.974 68.7086 260.868 71.5861 258.342 74.0425C255.605 76.9901 253.078 80.0782 250.552 83.1662C249.499 84.4295 248.165 84.4997 246.762 84.2189C245.077 83.868 243.393 83.6575 241.638 83.6575C239.182 83.4469 236.866 84.8506 235.954 87.1666C233.006 93.9041 231.392 100.782 233.216 108.151C233.357 108.713 233.427 109.274 233.427 109.836C233.357 114.327 235.392 117.485 239.533 119.31C241.919 120.363 244.095 121.977 246.902 121.767C248.165 121.767 249.358 121.345 250.271 120.503C252.446 118.328 254.973 116.222 255.675 113.064C256.026 111.169 257.78 109.836 257.359 107.8Z" fill="#75AAF1"/>
<path d="M257.359 107.8C256.096 110.537 254.973 113.345 253.569 116.012C252.938 117.205 251.674 118.117 250.832 119.31C249.709 120.854 247.744 121.556 245.849 120.995C242.13 120.082 238.62 118.679 235.954 115.801C234.901 114.678 234.269 113.204 234.199 111.66C233.778 107.239 232.655 102.887 233.216 98.3958C233.708 94.1849 235.041 90.0441 237.217 86.3244C238.41 84.2189 240.305 83.868 242.48 84.1488C244.095 84.3593 245.639 84.7102 247.253 84.9208C249.218 85.1313 250.411 84.4295 251.885 82.7451C253.92 80.4291 255.394 77.7622 257.78 75.6567C260.517 73.3407 262.763 70.5334 264.377 67.3752C266.623 63.094 270.413 60.0762 273.501 56.4267C276.238 53.2685 278.624 49.9699 280.8 46.3906C282.484 43.6535 284.379 40.9866 286.345 38.46C288.52 35.5825 291.047 31.933 290.415 28.9152C289.573 24.8446 290.977 20.4231 288.52 16.7034C286.976 14.3172 284.66 12.5627 281.993 11.7205C280.379 12.1416 280.028 13.1943 281.502 14.1769C283.888 15.7911 284.73 18.1071 285.643 20.5635C285.713 20.9144 285.502 20.9144 285.292 20.774C283.748 19.7213 281.923 18.9493 280.098 18.6685C279.747 18.5984 279.396 18.5282 279.046 18.5282C273.712 18.8791 268.167 18.1071 263.044 19.7915C259.745 20.8442 256.026 20.6336 253.008 22.8795C251.113 24.2831 248.516 24.2129 246.2 24.634C243.182 25.1955 240.235 25.8271 237.708 27.5817C235.041 29.4065 231.883 29.5468 229.005 30.5996C223.601 32.4945 218.408 34.8807 213.495 37.7582C209.074 40.5655 204.301 42.7411 199.248 44.2851C197.564 44.7764 196.09 45.5484 194.476 46.1801C191.177 47.3732 187.738 48.2855 184.299 48.7768C183.457 48.847 182.685 49.2681 182.264 49.9699C181.071 51.8648 181.562 53.4088 183.036 54.8827C184.44 55.5845 186.054 55.4441 187.317 54.602C194.055 51.4437 200.792 48.3557 207.67 45.4782C213.355 43.1622 218.478 39.5127 224.093 37.2669C230.971 34.4596 237.708 30.9505 245.428 30.5996C253.639 29.4065 261.781 26.7395 270.343 27.3712C275.466 27.7221 280.59 27.5115 285.643 28.7046C287.397 29.6872 286.274 30.8803 285.783 31.8628C282.414 38.0389 278.624 44.0044 274.484 49.8295C271.466 54.1107 267.746 57.7602 264.307 61.6904C263.114 63.0238 261.5 63.9362 260.798 65.6908C258.201 68.7086 255.745 71.7967 253.429 75.0952C252.517 76.5691 251.253 77.7622 249.779 78.6745C249.499 78.8149 249.078 78.9553 249.007 79.236C248.235 82.1836 246.06 81.4818 244.095 81.1309C243.323 80.9905 242.48 80.4993 241.708 80.7098C237.427 82.1837 234.339 79.6571 231.111 77.7622C229.427 76.7094 227.532 76.148 225.567 76.0778C224.373 75.9374 223.321 75.1654 222.128 75.1654C221.075 75.1654 220.022 75.025 219.531 76.2883C219.812 77.7622 220.513 78.8851 222.268 78.8149C223.04 78.8149 223.321 79.4465 223.882 79.7273C224.444 80.0782 224.935 80.3589 225.496 80.6396C228.233 81.4818 230.9 82.4644 233.708 83.1662C235.392 83.5873 234.971 84.1488 234.269 85.0611C232.655 87.0964 232.515 89.9739 230.269 91.6583C229.567 92.2197 230.199 93.2023 230.128 93.9743C230.058 98.1151 229.918 102.326 229.707 106.467C229.497 110.888 231.813 113.555 233.427 116.924C234.48 119.1 235.532 120.644 237.568 121.696C238.129 122.258 238.971 122.047 239.533 122.679C243.323 125.346 246.972 123.17 250.692 122.328C254.411 121.486 256.447 119.521 256.938 115.59C257.219 113.696 258.833 112.011 258.903 109.976C257.57 109.906 258.061 108.362 257.359 107.8Z" fill="black"/>
<path d="M95.9394 76.8498C96.6412 75.4461 98.0448 74.5338 99.0976 73.5512C101.765 70.9545 105.063 68.9192 107.519 65.9715C110.818 61.9711 115.31 59.3744 118.959 55.6547C120.503 54.1107 122.117 52.6368 123.872 51.3736C128.223 48.1452 132.224 44.4957 135.803 40.4251H136.014C138.821 40.776 139.172 40.776 139.242 38.3196C141.137 37.8283 142.891 36.916 144.295 35.5825C145.278 36.5651 146.822 36.5651 147.734 35.5825H147.804C150.682 36.9862 153.559 38.1793 156.156 40.1444C156.507 40.4251 156.928 40.5655 157.349 40.6356C157.489 40.7058 157.7 40.776 157.84 40.776C157.981 40.9164 158.051 41.0567 158.191 41.1269C158.472 41.8287 158.472 42.3902 157.349 42.4604C155.384 41.9691 153.489 41.1269 151.805 40.0742C150.19 39.1618 148.366 37.6178 146.681 38.1793C143.032 39.5127 139.312 41.0567 136.926 44.5659C136.645 45.0571 136.294 45.5484 135.873 45.8291C133.136 47.2328 131.171 49.619 128.855 51.5139C124.153 55.3038 119.451 59.234 115.169 63.4449C113.485 65.1293 111.029 66.3224 110.327 68.9192C108.432 70.9545 106.888 73.3407 104.712 75.0952C103.659 76.0778 101.905 75.6567 100.922 76.7796C99.8696 77.2709 98.887 77.9727 98.115 78.8149C97.7641 79.0956 97.2729 79.1658 96.8518 79.0956C96.0798 78.6043 95.7288 77.692 95.9394 76.8498Z" fill="#262626"/>
<path d="M160.998 41.3375C161.42 41.6884 161.981 41.8989 162.542 41.8989H162.823L162.893 41.9691C164.367 43.092 166.192 42.8113 167.806 43.2324C167.104 43.3728 166.192 43.1622 165.981 44.0746C165.841 44.9869 166.683 45.1975 167.455 45.2677C168.087 45.3379 168.368 45.9695 168.789 46.1801C169.841 46.6713 170.964 47.7241 172.157 46.3204L173.561 46.8819C175.737 46.9521 177.211 48.4961 179.035 49.3383C179.527 49.8997 180.228 50.1103 181 50.0401C181.492 50.0401 182.053 49.8295 182.544 50.2506C181.422 51.8648 182.404 53.2685 183.036 54.6721C183.106 54.7423 183.106 54.8125 183.106 54.8827C183.106 55.023 183.106 55.1634 182.966 55.3038C178.263 53.6896 174.614 50.1804 169.982 48.2153C166.753 46.8819 163.595 45.2677 160.367 43.7938C160.226 42.6709 160.367 41.8989 160.998 41.3375Z" fill="#272727"/>
<path d="M307.048 47.3731C307.469 45.4782 306.066 43.864 306.417 41.8989C306.557 41.1971 305.715 40.7058 304.943 40.4953C306.136 46.7415 304.873 52.4965 301.785 57.9707C301.223 58.9533 300.662 59.9358 300.03 60.8482C299.89 61.4798 300.241 61.6904 300.802 61.6202C303.68 57.9707 306.627 54.3914 306.206 49.2681C306.276 48.6364 306.557 47.9346 307.048 47.3731Z" fill="#777777"/>
<path d="M87.0262 229.847C88.3596 230.69 90.1142 230.69 91.4477 229.847C91.7284 229.637 91.7284 229.497 91.4477 229.286C90.044 229.005 88.5702 228.654 87.0964 229.075C86.8858 229.286 86.8858 229.637 87.0262 229.847Z" fill="#CFCFCF"/>
<path d="M85.1313 229.076C84.7804 228.303 84.0084 228.654 83.447 228.514C83.0259 228.304 82.5346 228.514 82.324 228.935C82.2538 229.076 82.2538 229.216 82.2538 229.286C82.2538 229.988 82.9557 229.848 83.3768 229.848H85.1313C85.3419 229.707 85.4121 229.356 85.2717 229.146L85.1313 229.076Z" fill="#D6D6D6"/>
<path d="M73.6915 227.953C74.1828 227.742 75.1654 228.304 75.025 227.461C74.9548 226.83 74.0424 226.479 73.2002 226.619C72.709 226.689 71.7966 226.409 71.8668 227.181C72.0071 228.163 73.0599 227.742 73.6915 227.953Z" fill="#D5D5D5"/>
<path d="M274.624 136.435C273.431 136.294 272.659 136.364 271.887 137.136C272.869 137.558 273.992 137.277 274.624 136.435Z" fill="#EEEEEE"/>
<path d="M91.518 229.286V229.848C92.1496 230.409 93.1322 230.549 93.9042 230.058C93.9743 229.918 94.0445 229.777 93.9743 229.637C93.2023 229.005 92.29 229.356 91.518 229.286Z" fill="#C7C7C7"/>
<path d="M52.9878 211.249C52.7772 210.477 52.0754 209.986 51.3736 210.056C51.2332 210.267 51.163 210.477 51.2332 210.688C51.5841 211.53 52.3562 210.968 52.9878 211.249Z" fill="#A6A6A6"/>
<path d="M13.7557 191.879C13.7557 192.23 13.7557 192.581 14.1066 192.651C14.4575 192.721 14.6681 192.3 14.5979 192.019C14.5277 191.738 14.3873 191.317 14.247 191.247C13.8259 191.107 13.8259 191.598 13.7557 191.879Z" fill="#0D0D0D"/>
<path d="M85.1311 229.076L85.0609 229.848C85.6925 230.058 86.3944 230.058 87.026 229.848L87.0962 229.076C86.5347 228.795 85.7627 228.795 85.1311 229.076Z" fill="#D5D5D5"/>
<path d="M26.1782 196.02C25.9677 194.967 25.5466 194.616 24.7044 194.616C24.7746 195.528 25.5466 195.458 26.1782 196.02Z" fill="#838383"/>
<path d="M206.968 200.02C207.74 200.02 208.442 199.388 208.442 198.616C207.6 198.827 207.389 199.459 206.968 200.02Z" fill="#272727"/>
<path d="M300.732 61.6904L300.03 60.9184L299.118 62.5326C298.977 62.6729 298.907 62.7431 298.977 62.8133C299.048 62.8835 299.118 62.9537 299.118 62.9537C299.96 62.8133 300.311 62.1816 300.732 61.6904Z" fill="#6E6E6E"/>
<path d="M303.75 37.4072C303.469 36.7756 303.89 35.9334 303.188 35.4421C302.627 36.2843 302.416 37.0563 303.75 37.4072Z" fill="#262626"/>
<path d="M269.501 137.487C269.15 137.487 268.799 137.558 268.869 137.979C268.869 138.119 269.22 138.33 269.36 138.259C269.571 138.189 269.781 138.119 269.922 137.908C269.992 137.628 269.711 137.558 269.501 137.487Z" fill="#545454"/>
<path d="M123.872 227.672C123.451 227.672 123.17 227.882 123.17 228.233C123.241 228.444 123.381 228.584 123.521 228.725C123.802 228.584 124.013 228.444 124.223 228.163C124.223 228.093 123.942 227.812 123.872 227.672Z" fill="#2B2B2B"/>
<path d="M299.188 62.9536C299.188 62.8133 299.188 62.6729 299.118 62.5326C298.416 62.8835 297.995 63.5853 297.925 64.3573C298.837 64.1467 298.837 63.3747 299.188 62.9536Z" fill="#262626"/>
<path d="M18.458 189.212C18.1772 189.914 18.0369 190.686 18.7387 190.756C19.6511 190.756 19.0194 190.194 18.8089 189.844C18.7387 189.563 18.5983 189.352 18.458 189.212Z" fill="#7D7D7D"/>
<path d="M62.6731 214.758C62.8837 214.899 63.0942 214.969 63.3048 214.969C63.5855 214.969 63.7259 214.758 63.5153 214.478C63.3048 214.337 63.0942 214.267 62.8837 214.267C62.8135 214.337 62.7433 214.548 62.6731 214.758Z" fill="#101010"/>
<path d="M15.6507 112.222C14.8086 112.362 14.0365 112.924 13.826 113.836C14.3173 114.397 14.6682 115.099 14.8086 115.871C16.2122 115.169 17.9668 115.029 18.7388 113.345C17.8966 112.432 16.4929 112.994 15.6507 112.222Z" fill="#2A2A2A"/>
<path d="M4.49145 134.961C5.19327 134.399 4.77217 133.627 4.77217 132.926C3.64926 133.417 3.71944 134.119 4.49145 134.961Z" fill="#323232"/>
<path d="M17.6862 110.818C20.4935 109.485 23.3008 107.941 26.1783 106.888C30.319 105.344 34.53 103.94 38.7409 102.677C40.2147 102.256 41.7588 101.835 43.2326 101.484C44.145 101.554 45.1275 101.484 46.0399 101.343C48.005 100.993 49.8999 100.431 51.7949 99.6591C52.3563 99.4485 52.9178 99.238 53.4792 98.9572C56.848 97.6238 60.0062 95.799 62.8837 93.5532C62.9539 94.255 63.5153 94.1147 64.2873 93.9743C65.1295 93.6234 66.0419 94.0445 66.8841 93.6234C68.3579 93.8339 68.4281 94.255 67.3052 96.0798C63.8662 97.0623 60.9888 99.3082 57.5498 100.08C56.9884 100.852 56.076 101.273 55.1636 101.203C55.7953 101.273 56.4269 101.203 57.0585 100.922C58.0411 101.063 59.0237 101.203 59.936 101.343C60.7782 101.414 61.8309 101.554 61.9713 102.396C62.1117 103.449 61.5502 104.502 60.5677 105.063C60.1466 105.274 59.6553 105.484 59.164 105.554C57.1287 105.905 55.0233 106.186 52.988 106.607C51.865 106.888 50.7421 106.747 49.6894 106.326C48.4963 105.765 48.5665 104.361 48.4963 103.168C46.1803 104.151 43.9344 104.291 41.7588 104.853C36.2845 106.397 30.8805 108.362 25.6168 110.608C23.371 111.59 21.3357 113.064 18.8091 113.485C17.7564 113.134 16.0018 114.818 15.7211 112.432C16.1422 111.52 16.844 111.029 17.6862 110.818ZM54.3916 101.203H54.1811C53.6898 101.133 53.1283 101.273 52.7072 101.624C53.1985 101.273 53.76 101.133 54.3916 101.203Z" fill="black"/>
<path d="M116.011 122.047C117.205 125.346 118.398 128.504 121.766 130.469C125.276 132.575 128.153 135.663 132.013 137.347C132.785 137.698 133.276 137.838 133.978 137.347C137.698 134.82 140.996 131.943 140.716 126.82C140.716 126.469 140.646 126.118 141.067 125.977C144.716 124.995 147.874 121.907 152.155 123.802C153.278 124.293 154.401 125.697 155.945 124.574C158.402 122.749 161.911 121.486 162.753 118.679C163.244 116.994 164.367 115.731 164.718 114.046C164.929 113.064 164.227 112.783 163.665 112.362C158.121 108.502 152.506 104.642 146.892 100.852C143.523 98.6063 140.716 95.5183 136.996 93.7637C135.803 93.2023 135.101 93.0619 134.119 94.1147C131.592 96.7816 129.065 99.4485 126.679 102.256C125.977 103.028 125.907 103.379 126.89 104.081C129.697 106.256 130.048 110.046 127.802 112.924C126.679 114.397 126.398 114.678 124.082 114.678C121.766 114.678 115.52 120.012 116.011 122.047Z" fill="black"/>
<path d="M50.1105 165.209C50.2508 161.42 50.1806 157.981 47.4435 155.314C46.6013 154.331 45.5486 153.489 44.4257 152.857C42.3202 151.805 40.2849 150.612 38.3198 149.278C35.0914 147.032 31.7226 147.523 28.2837 148.296C26.3186 148.717 25.5466 150.682 24.7746 152.085C22.4586 156.296 21.1953 161.349 26.9502 164.578C29.6172 166.052 32.0034 168.087 34.7405 169.561C38.1093 171.315 41.7587 172.438 45.1275 174.193C46.11 174.684 47.5137 174.263 48.7068 174.333C48.9875 174.403 49.2683 174.193 49.3384 173.912V173.842C49.8999 170.754 51.093 167.876 50.1105 165.209Z" fill="black"/>
<path d="M110.888 186.755C110.678 182.895 109.274 179.246 106.888 176.228C104.291 173.07 100.361 172.719 96.5008 172.017C93.4829 171.456 90.6756 172.228 87.7982 172.579C85.061 172.859 81.2712 178.123 81.4116 181.141C81.4116 181.211 81.4116 181.281 81.4817 181.351C82.1134 182.755 80.4992 184.51 81.973 185.703C84.0785 187.317 86.6752 188.299 89.3422 188.44C92.4302 188.65 95.1673 189.984 98.2553 190.335C101.694 190.826 105.133 190.896 108.572 190.475C110.537 190.335 110.888 189.633 110.888 186.755Z" fill="black"/>
<path d="M230.83 122.889C231.462 122.749 232.374 122.96 232.585 121.977C232.795 120.995 231.953 120.714 231.321 120.503C229.005 119.731 226.619 119.17 224.444 118.187C221.636 116.854 219.039 115.099 216.302 113.696C214.197 112.643 212.302 110.818 209.635 110.958C209.495 110.958 209.354 110.888 209.214 110.748C205.284 106.326 199.95 103.659 195.318 100.221C190.967 96.9921 186.545 93.7637 181.983 90.8161C178.334 88.4299 174.825 85.9033 171.105 83.6575C166.122 80.6396 161.56 77.0603 156.647 74.0425C148.015 68.7086 139.172 63.7257 128.855 62.2518C127.943 62.1115 127.03 61.6904 126.048 61.55C125.486 61.3394 124.855 61.6904 124.644 62.322C124.363 63.2344 125.346 63.0238 125.767 63.1642C129.557 64.2871 133.417 65.1293 137.066 66.533C143.172 68.7788 148.997 71.7265 154.331 75.3759C158.612 78.3938 162.753 81.4818 167.104 84.4295C172.368 88.0088 177.772 91.4477 182.825 95.3078C189.282 100.221 196.511 104.151 202.687 109.485C206.547 112.853 211.319 114.538 215.741 116.854C218.408 118.257 220.864 120.152 223.672 121.205C226.058 121.907 228.374 122.539 230.83 122.889Z" fill="#010101"/>
<path d="M169.701 181.843C169.771 177.211 166.683 173.561 161.209 173.561C157.419 173.561 154.12 174.684 150.822 176.018C149.98 176.368 149.137 176.228 148.365 176.579C144.435 178.334 140.575 184.58 140.996 188.791C141.137 190.545 142.47 191.107 144.014 191.458C148.857 192.51 153.489 191.738 157.98 190.054C160.296 189.282 162.613 188.58 164.929 188.019C168.438 187.106 169.841 185.492 169.701 181.843Z" fill="black"/>
<path d="M191.879 168.157V170.824C191.879 172.93 193.633 174.052 195.598 173.421C200.722 171.736 204.652 168.227 208.863 164.999C210.688 163.595 211.249 162.192 211.249 159.876C211.319 157.91 210.547 156.016 209.073 154.682C207.88 153.559 206.056 153.91 204.441 153.91C201.494 153.91 199.669 156.226 197.353 157.489C195.949 158.261 195.037 159.595 193.563 160.437C192.3 161.139 192.3 163.244 192.019 164.788C191.879 165.911 191.808 167.034 191.879 168.157Z" fill="#010101"/>
<path d="M161.279 138.681C161.209 134.048 156.296 129.838 151.734 130.539C149.418 130.89 147.032 130.89 145.558 133.417C143.874 136.364 145.629 142.119 148.787 143.313C152.366 144.716 155.735 144.927 159.174 142.751C160.858 141.769 161.56 140.575 161.279 138.681Z" fill="#010101"/>
<path d="M174.684 121.416C174.122 128.364 179.386 130.469 184.159 130.399C186.755 130.399 189.633 127.03 189.422 124.083C189.071 119.029 186.896 115.801 183.387 115.801C178.263 115.801 174.614 118.257 174.684 121.416Z" fill="#010101"/>
<path d="M119.801 147.804C121.837 148.225 123.661 147.032 125.626 146.541C126.96 146.19 127.17 143.032 126.188 141.067C124.644 138.049 119.31 134.399 115.45 135.733C114.538 136.084 113.485 135.663 112.502 136.364C109.134 138.681 108.853 142.611 112.151 145.207C114.187 146.962 116.994 147.945 119.801 147.804Z" fill="#010101"/>
<path d="M157.419 40.8462L157.209 40.5655C157.349 40.5655 157.419 40.5655 157.56 40.5655C157.981 41.1971 158.753 41.6182 159.525 41.548C159.946 41.548 160.437 41.4077 160.788 41.1971C160.998 41.4077 161.209 41.6182 161.49 41.6884C160.928 42.32 160.507 43.0218 160.297 43.7939C160.156 43.864 160.016 43.864 159.805 43.864C159.244 43.7939 158.753 43.6535 158.261 43.3728L157.138 42.3902C158.051 41.9691 158.051 41.4778 157.419 40.8462Z" fill="#010101"/>
<path d="M72.0073 131.873C72.0775 134.399 75.727 137.768 78.4641 137.698C80.9205 137.628 83.3067 137.487 85.6929 136.364C87.5878 135.452 87.9387 133.768 87.5176 132.715C86.8158 130.96 86.2543 128.644 83.7278 128.153C81.2012 127.662 78.8852 126.469 76.0779 127.1C73.4811 127.732 71.9371 129.136 72.0073 131.873Z" fill="#010101"/>
<path d="M215.039 73.3407L215.53 73.8319C217.144 74.6039 218.618 73.6916 220.092 73.2705C227.742 72.3581 235.251 71.165 242.48 68.2875C246.902 66.533 251.674 67.0944 256.306 67.305C258.201 67.3751 259.956 67.305 260.938 65.41C261.079 64.2871 260.307 63.2344 259.113 63.0238C258.973 63.0238 258.833 63.0238 258.692 63.0238C254.271 63.3046 249.779 62.4624 245.498 63.4449C240.866 64.4977 236.444 66.1119 231.883 67.4453C229.426 68.1472 226.9 68.2875 224.373 68.7788C221.776 69.2701 218.969 69.2701 216.583 70.8141C215.951 71.5159 214.337 71.6563 215.039 73.3407Z" fill="#010101"/>
<path d="M104.853 124.433C106.467 124.504 108.151 124.153 109.625 123.521C112.573 122.398 112.854 119.1 110.748 116.713C107.59 113.134 103.73 113.134 99.6592 114.187C97.2028 114.818 96.501 118.117 97.8345 120.223C99.6592 122.819 101.695 124.644 104.853 124.433Z" fill="#010101"/>
<path d="M142.33 93.7638C144.295 94.8867 145.769 93.1321 147.524 92.2197C149.98 90.9564 151.103 88.9212 150.542 86.184C150.05 83.9382 148.927 82.1135 146.331 81.3415C144.366 80.78 142.26 80.6396 140.225 80.9204C138.33 81.1309 136.716 82.4644 136.154 84.2891C135.382 86.8157 136.224 91.7285 138.54 92.9917C139.663 93.6234 140.716 94.1147 142.33 93.7638Z" fill="#020202"/>
<path d="M215.039 73.3407C214.969 71.937 216.372 72.0774 217.004 71.4457C216.513 70.393 215.53 69.9017 214.618 69.4104C208.652 65.9013 202.546 62.6027 196.721 58.8831C194.475 57.4794 192.089 56.2161 189.703 54.9529C188.861 54.4616 187.878 54.1808 186.896 54.251C185.632 54.7423 184.369 55.1634 183.036 54.7423L182.965 55.3739C192.159 60.006 200.932 65.4802 209.705 70.8843C210.266 71.2352 211.038 70.9544 211.53 71.5861C212.302 72.8494 213.986 72.4985 215.039 73.3407Z" fill="#272727"/>
<path d="M106.888 99.7293C110.748 99.4485 114.187 99.6591 117.135 97.6238C118.749 96.5711 119.521 94.6059 118.959 92.7812C118.538 90.8161 117.064 90.2546 115.099 90.1844C112.011 90.0441 108.923 89.5528 106.046 91.167C103.94 92.2899 102.888 94.7463 103.519 97.0623C103.94 98.6063 105.344 99.7293 106.888 99.7293Z" fill="#020202"/>
<path d="M55.093 120.152C56.7072 116.924 56.0756 116.152 53.1279 114.046C49.4083 111.38 45.8991 112.573 42.1795 113.274C41.1267 113.345 40.2845 114.327 40.3547 115.38C40.3547 116.573 39.7231 117.977 41.2671 118.889C44.706 120.995 48.7766 121.977 52.8472 121.696C53.1279 121.696 53.3385 121.345 53.6192 121.135C54.0403 120.714 54.6719 120.573 55.093 120.152Z" fill="#020202"/>
<path d="M75.867 114.187C79.2358 114.257 81.9027 112.713 84.8504 112.222C86.0435 112.011 86.4645 109.485 85.4118 108.783C84.1485 107.87 82.8852 106.397 80.9903 106.818C78.0427 107.449 75.1652 106.256 72.2175 106.607C70.1822 106.888 68.9891 108.011 68.6382 109.555C68.2171 111.309 69.2699 112.853 71.1648 113.345C72.8492 113.625 74.3932 114.538 75.867 114.187Z" fill="#030303"/>
<path d="M66.9538 93.5532C68.4978 94.1147 67.2346 95.1674 67.3749 96.0096C71.235 94.8165 75.0248 93.3427 78.6743 91.5881C79.6569 91.167 80.85 91.3074 81.6921 90.4652C82.394 90.0441 82.6045 89.2721 83.0958 88.7106C88.4998 86.1139 93.6232 83.096 97.9043 78.8149H96.3603C93.6232 79.5869 90.7457 79.7974 88.3595 81.6222C87.4471 82.324 86.4646 82.8855 85.9733 84.0084C85.482 84.9909 84.4994 85.6226 83.3765 85.6226C81.4816 86.184 80.3587 87.8684 78.6743 88.7808C74.9546 90.6757 70.8139 91.7986 66.9538 93.5532Z" fill="#272727"/>
<path d="M110.186 68.9192C107.449 70.1824 106.256 72.8494 104.291 74.8145C103.309 75.2356 103.309 75.9374 103.659 76.7796C104.291 77.692 105.484 77.9727 106.467 77.5516C109.695 76.4287 112.783 74.9548 115.099 72.4283C115.801 71.7966 116.222 70.8141 116.222 69.8315C116.082 67.5857 115.52 67.0944 113.274 67.7261C112.292 68.1472 111.239 68.4981 110.186 68.9192Z" fill="#020202"/>
<path d="M79.7974 91.5881C79.7974 91.7285 79.7974 91.939 79.7272 92.0794C78.7447 93.0619 76.9199 93.8339 77.9025 95.5183C78.7447 96.922 80.4291 96.0798 81.7625 95.799C84.8506 95.0972 87.728 93.6936 90.1142 91.5881C90.6757 91.0968 91.3775 90.6055 90.8862 89.5528C90.395 88.5001 89.6931 88.7808 88.9211 88.6404C87.1666 88.2895 85.2716 88.6404 83.7978 89.623C83.096 89.6932 82.324 89.9739 81.7625 90.395C80.9905 90.7459 80.3589 91.167 79.7974 91.5881Z" fill="#030303"/>
<path d="M220.022 72.4985C218.619 73.4108 217.004 73.4108 215.53 73.8319C216.443 75.3058 218.619 74.8145 219.461 76.3585C220.724 75.6567 222.268 75.5865 223.601 76.2181C224.303 76.4989 225.005 76.9901 225.917 76.7094C225.637 75.2356 224.373 74.9548 223.321 74.3934C222.268 73.8319 220.864 73.6214 220.022 72.4985Z" fill="#2B2B2B"/>
<path d="M103.73 76.7796C103.94 76.148 103.73 75.3759 104.361 74.8145C103.098 75.2356 101.835 75.8672 100.852 76.7796C101.694 76.2181 102.817 76.2181 103.73 76.7796Z" fill="#B8B8B7"/>
<path d="M79.7976 91.5881C80.4995 91.8688 81.3417 91.5179 81.6224 90.8161C81.6224 90.7459 81.6926 90.6757 81.6926 90.6055C81.8329 90.4652 81.8329 90.1844 81.6926 89.9739H81.6224L78.6747 91.5881H79.7976Z" fill="#B4B4B3"/>
<path d="M57.6196 100.01C56.4967 100.501 55.3036 100.852 54.1105 100.993C53.9 101.063 53.8298 101.203 53.8999 101.273C53.9701 101.343 54.0403 101.414 54.1105 101.414C55.0931 101.343 56.216 101.835 57.0582 100.922L57.6196 100.01Z" fill="#363636"/>
<path d="M81.6219 89.9739V90.6055C82.3939 90.5354 83.0958 90.1844 83.6572 89.623C83.3063 89.4124 83.0958 89.0615 83.166 88.7106C82.4641 88.851 82.1132 89.4826 81.6219 89.9739Z" fill="#9C9C9C"/>
<path d="M239.603 122.609C239.252 121.696 238.691 121.205 237.638 121.626C237.848 122.889 238.831 122.539 239.603 122.609Z" fill="#A1A1A0"/>
<path d="M55.0933 120.152C54.3914 120.152 53.7598 120.363 53.6194 121.135C54.3914 121.205 55.0231 121.065 55.0933 120.152Z" fill="#454545"/>
<path d="M225.496 80.6396C225.356 79.5869 224.654 79.5869 223.882 79.7273C224.092 80.4291 224.794 80.8502 225.496 80.6396Z" fill="#999998"/>
<path d="M211.53 71.5159C211.249 70.8843 210.547 70.5334 209.916 70.7439C209.845 70.7439 209.775 70.8141 209.705 70.8141C210.056 71.5861 210.898 71.3054 211.53 71.5159Z" fill="#5A5A5A"/>
<path d="M159.875 43.9342C159.525 43.3727 158.963 43.3727 158.331 43.4429C158.823 43.7938 159.033 44.636 159.875 43.9342Z" fill="#3F3F3E"/>
<path d="M83.5169 85.5524C84.71 86.6753 85.5522 86.184 86.1838 84.9909C87.7278 82.1836 90.1842 80.8502 93.2021 80.2887C94.3952 80.0782 95.5181 79.5869 96.4305 78.8149C96.9218 77.9727 96.1498 77.4814 95.869 76.8498H95.3777C94.6057 77.2709 93.6232 76.4989 92.9214 77.2709C90.5352 77.9025 88.2893 78.9553 86.1838 80.3589C84.3591 81.4116 83.3064 83.4469 83.5169 85.5524Z" fill="#030303"/>
<path d="M92.9215 77.2709C93.7637 77.2709 94.6761 77.5516 95.3779 76.8498C94.6059 76.92 93.5532 75.8672 92.9215 77.2709Z" fill="#262626"/>
<path d="M15.6507 112.222L17.686 110.818C16.4929 110.537 15.9315 111.169 15.6507 112.222Z" fill="#2A2A2A"/>
<path d="M64.2167 93.9743C65.1291 94.0445 66.0415 94.4656 66.8135 93.6234C66.0415 93.8339 65.1291 93.3426 64.2167 93.9743Z" fill="#272727"/>
<path d="M181.071 50.6717L182.544 50.2506C183.176 49.7594 183.878 49.4786 184.72 49.4085C188.861 48.847 192.861 47.6539 196.721 45.9695C200.301 44.3553 204.301 43.6535 207.67 41.4778C210.126 39.8636 213.074 39.3022 215.32 37.1265C216.302 36.2142 218.127 35.5123 219.601 34.9509C223.671 33.2665 227.672 31.161 231.883 30.389C235.602 29.6872 238.269 27.5115 241.498 26.3184C243.744 25.4762 246.27 25.3359 248.656 24.8446C250.832 24.3533 253.078 24.2129 254.832 22.5286C255.253 22.2478 255.675 22.0373 256.166 21.9671C258.061 21.2653 260.166 22.4584 262.202 20.4933C263.324 19.4405 266.553 19.9318 268.728 19.5809C272.238 19.0194 275.677 20.0722 279.115 19.23C279.466 19.0896 279.747 18.8089 280.098 19.23C281.853 20.1424 284.028 20.1424 285.572 21.6162C285.923 21.4758 286.414 21.6162 286.625 21.1249C286.274 20.002 285.923 18.8089 285.432 17.6158C284.87 16.2823 284.379 15.019 282.695 14.4576C280.8 13.8259 280.73 12.703 282.063 11.7907C281.431 11.5801 280.87 11.2292 280.379 10.8783C275.957 5.75497 270.132 5.89533 264.026 6.0357C258.341 6.17606 253.218 8.49208 247.674 9.12372C242.129 9.75537 236.936 12.2118 231.532 13.8961C227.882 15.019 224.514 17.1245 221.145 19.0896C219.18 20.2126 216.864 20.4933 214.969 21.9671C207.108 27.8624 197.353 30.8101 189.984 37.4774C186.966 40.2146 183.176 41.3375 180.299 44.0746C178.684 45.6186 175.947 46.0397 173.701 47.0222L179.176 49.8997C179.597 50.3208 180.369 50.391 181.071 50.6717Z" fill="#7E7E7E"/>
<path d="M235.813 99.5187C235.252 104.853 236.726 109.836 238.901 114.608C240.515 118.117 245.639 119.24 248.867 117.134C250.341 116.152 251.674 114.959 253.359 114.257C255.043 113.555 254.412 111.52 254.622 110.116C255.675 104.361 254.201 98.8169 252.657 93.3427C251.253 88.5702 244.305 86.2542 240.094 88.6404C239.112 89.2019 238.901 90.1143 238.48 90.8863C237.147 93.4128 235.813 97.6238 235.813 99.5187Z" fill="#010101"/>
<path d="M186.896 54.1808C194.756 58.1812 202.125 63.094 209.775 67.3751L216.934 71.4457C219.039 69.7614 221.706 70.1824 224.022 69.5508C226.268 68.9893 228.795 69.2701 230.9 68.4981C234.55 67.1646 238.41 66.6733 241.989 65.1293C244.867 63.866 247.884 63.7257 250.972 63.7958C253.218 63.866 255.464 64.2871 257.71 63.6555C259.394 63.1642 260.096 64.2169 260.658 65.4802C260.587 66.0417 260.798 66.2522 261.289 66.1119C263.254 62.8133 266.342 60.4271 268.869 57.69C271.395 54.8125 273.712 51.8648 275.957 48.7768C279.677 43.864 282.976 38.6003 285.923 33.1963C286.485 32.2137 286.906 31.161 287.187 30.0381C287.397 29.3363 287.678 28.2835 286.274 28.2133C286.064 30.2486 285.151 30.5995 283.397 29.617C281.642 28.6344 279.747 28.7046 277.852 28.6344C270.764 28.2133 263.675 27.4413 256.798 29.9679C255.464 30.4592 254.06 30.1784 252.657 30.3188C249.569 30.6697 246.481 30.6697 243.673 32.1436C243.533 32.1436 243.393 32.2137 243.323 32.2839C243.463 32.0032 243.673 32.0734 243.884 32.0032C244.796 31.6523 245.288 31.0908 244.937 30.1083C240.024 29.9679 235.602 31.8628 231.251 33.8279C229.918 34.4596 228.654 35.0912 227.11 35.0912C224.584 35.0912 222.759 36.916 220.794 38.0389C213.074 42.32 205.143 46.0397 196.932 49.1979C193.493 50.4612 190.265 52.4965 186.896 54.1808Z" fill="#7D7D7D"/>
<path d="M261.43 66.0417L260.798 65.41C258.763 67.5155 256.236 66.6031 253.92 66.4628C248.025 66.2522 242.2 67.2348 236.725 69.4806C231.392 71.5861 225.707 71.7966 220.092 72.4283C219.882 73.8319 221.075 74.1127 221.987 74.5338C223.391 75.025 224.794 75.7269 225.988 76.7094C229.286 76.7094 231.743 78.8149 234.339 80.2887C235.953 81.1309 237.147 82.4644 239.112 81.6924C241.287 80.8502 243.393 81.6924 245.498 82.0433C248.165 82.4644 248.516 82.2538 249.428 79.7974C249.709 79.0254 250.551 79.6571 251.043 79.0254C252.306 77.4112 254.061 76.0778 255.043 74.3232C256.727 71.165 259.184 68.7086 261.43 66.0417Z" fill="#7D7D7D"/>
<path d="M245.007 30.0381C244.726 30.7399 244.446 31.4417 243.533 31.5119C243.253 31.7225 243.253 32.0734 243.393 32.2839C243.393 32.3541 243.463 32.3541 243.533 32.4243C247.814 31.161 252.236 31.0908 256.587 30.5995C259.324 30.2486 261.991 29.3363 264.799 28.9152C268.167 28.4239 271.466 28.9853 274.764 28.9152C278.344 28.845 282.063 29.0555 285.362 30.9505C285.643 31.161 286.134 31.4417 286.345 30.8101C286.695 29.8977 287.187 28.9853 286.345 28.073C282.835 27.6519 279.396 26.4588 275.677 26.8097C273.15 26.9501 270.624 26.8799 268.167 26.529C262.693 25.9675 257.5 27.7221 252.236 28.7046C251.183 28.9152 250.06 28.9152 248.937 28.7046C247.814 28.4941 246.341 29.617 245.007 30.0381Z" fill="#C0C0BF"/>
<path d="M259.745 23.7217C262.483 24.9849 265.149 24.2831 267.816 24.0024C272.87 23.4409 278.063 23.6515 283.046 24.634C283.958 24.8446 284.941 25.0551 285.853 25.3359C286.345 25.4762 286.766 25.8973 287.046 25.1253C287.257 24.7042 287.046 24.2129 286.695 24.0726C286.625 24.0726 286.625 24.0024 286.555 24.0024C285.292 23.5111 284.309 22.3882 282.906 22.2478C275.045 21.1951 267.325 20.6336 259.745 23.7217Z" fill="#F1F1F1"/>
<path d="M286.485 21.1249L285.432 21.6162C285.783 21.8969 286.134 22.318 286.625 22.0373C287.116 21.7565 286.836 21.4056 286.485 21.1249Z" fill="#9E9E9D"/>
<path d="M258.693 24.634C258.903 24.4937 259.254 24.3533 259.254 24.2129C259.394 23.862 259.184 23.6515 258.763 23.6515C258.342 23.6515 258.061 23.5813 258.061 23.9322C258.061 24.1428 258.482 24.3533 258.693 24.634Z" fill="#A4A4A4"/>
<path d="M279.958 19.23C280.098 18.8791 280.449 18.3878 279.958 18.1773C279.186 17.8965 279.326 18.8089 278.975 19.1598L279.958 19.23Z" fill="#8C8C8C"/>
<path d="M151.664 37.4774C151.032 37.2669 150.401 36.9861 149.839 36.565L151.664 37.4774Z" fill="#010101"/>
<path d="M156.016 40.0742C156.437 40.4251 156.928 40.5655 157.419 40.5655V40.8462C155.805 40.9164 154.121 41.3375 153.77 38.8811C153.77 38.7407 153.7 38.6003 153.559 38.5302C154.472 38.9513 155.244 39.5127 156.016 40.0742Z" fill="#010101"/>
<path d="M181.071 50.6717C180.58 50.1103 179.808 49.7594 179.036 49.7594C179.316 51.0226 180.229 50.7419 181.071 50.6717Z" fill="#5D5D5D"/>
<path d="M51.3734 104.151C54.2509 105.133 56.988 104.431 60.2866 102.887C56.7775 102.677 54.1106 103.589 51.3734 104.151Z" fill="#626262"/>
<path d="M54.1108 101.414C54.1108 101.273 54.1108 101.133 54.1108 100.993L51.0228 101.414C52.4264 102.326 53.2687 101.343 54.1108 101.414Z" fill="#191919"/>
<path d="M145.137 119.661C147.453 119.942 149.559 117.415 151.805 119.1C155.173 121.556 157.138 119.1 159.244 117.134C159.805 116.643 160.297 116.082 160.858 115.59C161.911 114.608 161.7 113.766 160.648 112.994C156.507 110.186 152.366 107.449 148.225 104.712C144.155 102.045 139.944 99.7994 136.224 96.6412C135.592 96.0798 135.522 96.2903 135.031 96.7816C132.855 98.9572 130.539 101.063 127.802 103.589C130.188 103.87 130.61 105.765 132.224 105.905C132.575 106.186 133.136 106.186 133.417 105.835C133.417 105.765 133.487 105.765 133.487 105.695C133.627 104.151 132.855 102.256 134.68 101.273C136.505 100.291 138.119 101.624 139.593 102.537C140.926 103.309 142.19 104.291 143.453 105.133C144.155 105.484 144.506 106.256 144.365 106.958C144.225 107.73 143.453 107.8 142.821 108.011C140.856 108.642 139.031 111.73 139.382 113.625C139.382 114.117 139.803 114.468 140.295 114.397C140.435 114.397 140.575 114.327 140.646 114.327C143.102 113.415 146.19 113.485 146.681 109.906C146.822 108.993 147.664 108.642 148.576 108.923C151.805 109.695 154.05 112.081 156.577 113.976C156.998 114.327 157.138 114.959 156.788 115.38L156.717 115.52C156.296 116.222 155.524 116.713 154.682 116.784C154.05 116.784 153.349 116.573 152.787 116.292C149.769 114.889 147.453 116.222 145.207 117.977C145.067 118.468 144.786 119.029 145.137 119.661Z" fill="#FCAA58"/>
<path d="M145.137 119.661L145.628 118.187C141.909 118.959 138.049 119.1 135.171 122.117C134.048 123.311 133.417 124.504 134.469 125.977C135.171 126.96 135.171 127.732 134.189 128.504C133.206 129.276 132.434 129.487 131.381 128.644C128.925 126.82 126.679 124.855 124.153 123.17C122.679 122.258 123.03 120.995 123.17 119.661C123.1 119.31 122.819 119.029 122.468 118.959L118.538 121.486C119.099 122.679 120.363 123.03 121.275 123.802C124.503 126.469 127.872 129.136 131.101 131.873C132.574 133.136 133.768 133.206 134.961 131.522C135.522 130.82 136.084 130.118 136.715 129.487C139.031 127.03 139.523 127.451 136.435 124.644C138.751 122.117 142.611 122.117 145.137 119.661Z" fill="#FCAA58"/>
<path d="M133.277 105.344L132.154 105.835C133.347 107.52 132.926 109.204 132.154 110.888C131.031 113.555 129.908 116.292 128.785 118.959C128.645 119.521 128.925 119.661 129.346 119.801C131.171 119.591 132.645 118.187 132.996 116.362C133.698 113.696 134.75 111.099 135.522 108.502C136.154 106.537 135.593 105.765 133.277 105.344Z" fill="#FCAA58"/>
<path d="M122.468 119.1L123.03 119.661C124.223 120.012 125.416 120.223 126.609 119.661C126.82 119.521 126.96 119.38 127.03 119.17C126.75 119.029 126.469 118.889 126.188 118.749C124.012 116.643 124.012 116.643 122.468 119.1Z" fill="#FCAA58"/>
<path d="M127.03 119.1L126.398 119.17C125.977 120.363 126.679 120.924 127.662 121.065C128.644 121.205 129.486 120.924 129.416 119.661L128.855 119.1C128.223 119.661 127.592 119.1 127.03 119.1Z" fill="#FCAA58"/>
<path d="M31.8627 164.437C35.793 167.175 40.3548 168.648 44.5658 170.824C44.9869 171.035 46.0396 171.596 46.6011 170.894C47.3029 169.982 46.6011 168.859 46.7414 167.806C46.8818 166.964 45.9694 166.824 45.3378 166.894C40.5654 167.245 37.0562 164.648 33.4769 162.051C32.5646 161.42 31.4416 161.069 30.4591 160.437C28.4238 159.033 28.0027 157.63 29.6169 155.875C31.0907 154.331 31.3013 151.875 33.7577 151.103C32.5646 150.471 31.2311 150.471 30.038 151.033C28.7747 151.594 27.5816 151.875 28.2132 153.98C28.6343 155.454 27.722 157.138 26.8096 158.542C25.8972 159.946 25.406 160.788 27.5816 161.63C28.5642 162.121 29.5467 162.753 30.3889 163.525C30.9504 163.736 31.582 163.876 31.8627 164.437Z" fill="#7C7C7C"/>
<path d="M31.8627 164.437C31.9329 163.244 31.1609 163.385 30.3889 163.455C30.6696 164.087 31.2311 164.437 31.8627 164.437Z" fill="#333333"/>
<path d="M106.747 186.264C107.028 184.72 106.537 184.018 104.993 184.018C98.9572 184.299 92.8514 183.246 87.2368 181.001C86.2542 180.579 85.4822 180.509 85.5524 181.632C85.6226 182.545 83.5171 183.948 85.9735 184.439C89.1317 185.071 92.2197 185.773 95.3779 186.264C96.6412 186.545 97.8343 186.896 99.0274 187.387C101.343 188.159 103.449 187.527 105.695 187.598C106.747 187.598 107.379 187.387 106.747 186.264Z" fill="#7C7C7C"/>
<path d="M163.806 177.281C163.946 181.983 162.121 184.369 156.928 186.054C154.12 186.966 151.173 187.177 148.295 186.685C147.874 186.615 147.523 186.615 147.243 186.264C146.892 185.633 146.19 185.282 145.488 185.282C145.699 186.264 144.716 186.966 144.927 188.019C145.207 189.282 146.12 188.861 146.821 188.931C151.594 189.563 156.507 188.65 160.718 186.264C161.139 185.983 161.56 185.773 162.051 185.773C163.876 185.913 165.63 185.843 166.122 183.738C166.964 180.369 166.192 178.404 163.806 176.86C163.665 176.93 163.595 177.07 163.665 177.211C163.665 177.211 163.735 177.281 163.806 177.281Z" fill="#7B7B7B"/>
<path d="M147.243 180.93C148.225 180.86 148.787 180.65 148.997 179.948C149.067 179.807 148.787 179.386 148.716 179.386C147.874 179.457 147.804 180.229 147.243 180.93Z" fill="#1D1D1D"/>
<path d="M163.806 177.281L163.876 176.719C163.665 176.228 163.034 175.947 162.472 176.228C162.402 176.298 162.332 176.298 162.262 176.368C162.543 176.93 163.104 177.281 163.806 177.281Z" fill="#6A6A6A"/>
<path d="M205.634 156.507C204.301 156.507 204.02 156.928 204.441 158.051C205.213 160.016 204.161 162.683 202.616 163.946C200.441 165.701 198.546 167.806 195.809 168.859C194.826 169.21 195.177 170.192 195.458 170.754C195.809 171.526 196.44 170.964 196.862 170.684C198.265 169.771 199.669 168.719 201.002 167.596C203.038 165.771 205.213 164.016 207.459 162.472C208.863 161.49 208.512 159.946 208.301 158.683C208.021 157.419 206.898 156.437 205.634 156.507Z" fill="#7A7A7A"/>
<path d="M150.05 134.048C151.384 133.627 152.717 133.978 154.542 133.978C152.928 132.364 151.454 132.855 150.05 132.996C149.77 133.206 149.699 133.627 150.05 134.048C149.98 133.978 149.98 133.978 150.05 134.048Z" fill="#676767"/>
<path d="M158.472 138.961C159.103 137.347 158.472 136.154 157.138 134.891C156.858 136.364 157.981 137.277 157.981 138.4C158.121 138.54 158.191 138.891 158.472 138.961Z" fill="#5C5C5C"/>
<path d="M150.752 141.067C150.471 140.435 150.471 139.663 149.418 139.803C149.208 139.944 149.138 140.084 149.138 140.295C149.278 140.926 149.91 141.277 150.541 141.137C150.612 141.137 150.682 141.137 150.752 141.067Z" fill="#6B6B6B"/>
<path d="M150.05 134.048V132.996C149.278 133.347 148.647 133.978 148.296 134.68C148.998 134.82 149.629 134.54 150.05 134.048Z" fill="#3F3F3F"/>
<path d="M158.472 138.961L157.981 138.4C157.981 139.172 157.139 139.803 157.7 140.716C158.753 140.365 158.262 139.523 158.472 138.961Z" fill="#797979"/>
<path d="M152.085 142.119C152.928 143.242 153.419 142.4 154.191 142.33C153.349 141.418 152.787 141.839 152.085 142.119Z" fill="#373737"/>
<path d="M182.053 128.013C182.895 127.662 184.299 128.855 184.439 126.96V127.03C183.106 126.82 181.702 126.96 180.369 127.451C180.86 128.013 181.422 127.943 182.053 128.013Z" fill="#616161"/>
<path d="M182.053 128.013C181.632 127.381 181 127.522 180.439 127.451C180.579 128.785 181.281 128.574 182.053 128.013Z" fill="#747474"/>
<path d="M184.44 127.03C185.141 127.171 185.633 126.82 186.054 126.048C185.071 125.837 184.58 126.118 184.44 127.03Z" fill="#5B5B5B"/>
<path d="M118.257 138.821C119.591 139.102 120.643 140.295 122.188 140.225C121.205 138.61 120.784 138.4 118.257 138.821Z" fill="#5D5D5D"/>
<path d="M114.046 140.716L113.976 139.102C112.923 139.382 113.064 140.084 113.204 140.786C113.485 141.067 113.766 141.067 114.046 140.716Z" fill="#717171"/>
<path d="M114.047 140.716L113.204 140.786C113.204 141.207 113.064 141.979 113.625 141.979C114.468 141.979 114.047 141.207 114.047 140.716Z" fill="#2D2D2D"/>
<path d="M75.9374 133.698C75.9374 134.119 76.0777 134.329 76.4988 134.329C76.7094 134.329 76.9199 134.189 77.0603 134.048C77.2708 133.698 76.9901 133.417 76.7094 133.276C76.4286 133.136 76.0777 133.347 75.9374 133.698Z" fill="#222222"/>
<path d="M78.5342 130.118C78.6745 130.539 78.9553 130.469 79.236 130.469C79.5167 130.469 79.9378 130.469 79.7273 129.978C79.5869 129.767 79.3764 129.697 79.1658 129.627C78.8851 129.557 78.6043 129.767 78.5342 130.048V130.118Z" fill="#323232"/>
<path d="M76.7095 130.75C75.7971 130.469 75.3058 130.399 75.0251 130.89C75.0251 130.96 75.1655 131.241 75.2356 131.241C75.5865 131.171 75.9375 131.031 76.7095 130.75Z" fill="#414141"/>
<path d="M83.4469 135.101C83.6574 135.101 83.868 135.101 84.0083 135.031C84.2189 134.891 84.3593 134.75 84.4294 134.47C84.4996 134.189 84.2189 134.119 84.0083 134.259L83.096 134.68L83.4469 135.101Z" fill="#303030"/>
<path d="M107.239 118.117C107.871 118.749 108.783 119.31 108.292 120.503C108.151 120.854 108.081 121.416 108.643 121.486C109.204 121.556 109.555 121.065 109.625 120.644C109.836 119.451 109.766 118.398 108.292 118.047C107.941 117.836 107.52 117.907 107.239 118.117Z" fill="#636363"/>
<path d="M104.712 116.784C104.01 116.643 103.309 116.433 102.607 116.292C101.063 116.012 100.571 116.713 100.922 118.398C102.115 117.485 103.589 117.696 104.782 117.134L105.133 116.924L104.712 116.784Z" fill="#6A6A6A"/>
<path d="M104.712 116.784C104.712 116.924 104.712 116.994 104.712 117.134C105.484 117.626 106.116 118.468 107.239 118.187L108.292 118.047C107.028 117.696 106.116 116.503 104.712 116.784Z" fill="#282828"/>
<path d="M139.452 87.1666C139.242 89.2721 140.435 91.3775 141.839 91.5881C143.874 91.8688 148.225 89.0615 148.365 87.3771C148.506 85.2717 146.681 83.5873 144.014 83.3066C141.558 83.096 139.733 84.64 139.452 87.1666Z" fill="#7C7C7C"/>
<path d="M109.485 97.343C111.801 97.0623 113.555 95.799 115.45 95.0972C116.152 94.8165 116.222 94.1147 116.082 93.4128C116.082 92.9216 115.661 92.5005 115.169 92.5706C115.029 92.5706 114.959 92.5706 114.818 92.6408C113.345 93.1321 111.73 92.8514 110.257 92.9917C109.485 92.9917 108.783 93.2725 108.221 93.7637C107.59 94.5358 106.467 95.0972 107.098 96.4307C107.66 97.5536 108.783 97.343 109.485 97.343Z" fill="#7A7A7A"/>
<path d="M53.2686 116.924C51.0227 113.976 47.8645 115.52 45.1274 115.24C44.7765 115.24 44.2852 115.871 44.0045 116.363C43.5834 117.135 44.4957 117.275 44.8467 117.626C47.2329 119.521 50.6016 119.591 53.2686 116.924Z" fill="#7A7A7A"/>
<path d="M83.0962 109.765C81.9733 108.572 80.9205 107.941 79.0958 108.713C77.271 109.485 75.3059 109.485 73.411 109.765C72.9197 109.836 72.3583 109.765 72.3583 110.467C72.3583 111.169 72.9197 111.239 73.3408 111.38C75.7972 112.152 80.5696 111.38 83.0962 109.765Z" fill="#797979"/>
<path d="M113.976 69.0595C111.52 70.6035 109.204 71.937 107.87 74.5338C110.748 73.9723 113.766 71.4457 113.976 69.0595Z" fill="#737373"/>
<path d="M84.0786 92.0794L82.8153 93.2023C83.5873 93.6936 84.0084 93.0619 84.5699 92.9917C84.991 92.3601 84.9208 92.0092 84.0786 92.0794Z" fill="#737373"/>
<path d="M84.0786 92.0794C84.4295 92.2197 84.64 92.6408 84.4997 92.9917C85.2015 92.711 85.3419 91.939 85.9033 91.3775C85.2717 91.167 84.4997 91.4477 84.0786 92.0794Z" fill="#4D4D4D"/>
<path d="M250.411 111.309C250.411 110.958 249.92 110.678 250.27 110.327C251.253 109.695 250.481 108.713 250.762 107.941C250.411 107.309 251.604 106.537 250.551 106.046C250.27 104.923 251.042 103.87 250.972 102.817C250.692 101.905 250.621 100.922 250.832 100.01C250.341 98.7467 250.481 97.343 249.849 96.1499C249.288 95.2376 248.586 94.3954 247.954 93.6234L248.025 93.6936C246.34 91.3074 244.656 90.8863 241.849 92.2197L241.638 93.1321C240.655 93.6936 239.954 94.7463 239.813 95.8692C239.041 100.291 239.322 104.853 240.585 109.204C241.427 112.432 244.235 114.327 247.533 114.327C249.218 113.906 249.569 112.292 250.411 111.309Z" fill="black"/>
<path d="M247.955 113.696C244.024 113.625 242.27 111.73 241.217 108.081C240.024 104.01 240.094 100.01 240.515 95.8692C240.656 94.8165 241.007 93.8339 241.638 92.9917C239.813 93.1321 239.112 94.1848 238.62 95.8692C237.287 100.712 238.62 105.344 239.252 110.116C239.463 111.66 240.445 112.994 241.849 113.696C242.691 114.187 243.533 114.327 244.095 115.52C244.656 116.713 246.27 115.941 247.393 115.52C248.025 115.31 248.446 114.538 249.007 114.046C248.937 113.204 248.446 113.485 247.955 113.696Z" fill="#75AAF1"/>
<path d="M241.849 92.0794C244.024 92.0092 246.27 91.5881 248.025 93.5532C248.376 90.8863 245.919 91.0266 244.586 90.3248C243.463 89.8335 242.2 90.6757 241.849 92.0794Z" fill="#75AAF1"/>
<path d="M249.358 96.1499C249.639 97.4132 249.779 98.7467 250.481 99.9398C251.394 99.9398 251.183 99.3783 251.043 98.8169C251.253 97.5536 251.323 96.2903 250.06 95.4481C249.499 95.4481 249.148 95.5183 249.358 96.1499Z" fill="#75AAF1"/>
<path d="M247.954 113.696L248.937 114.117C249.779 113.415 250.341 112.362 250.481 111.239C249.218 111.66 249.007 113.134 247.954 113.696Z" fill="#75AAF1"/>
<path d="M250.972 98.8169L250.411 99.9398C250.271 100.922 250.481 101.905 250.902 102.747C251.043 101.484 251.464 100.15 250.972 98.8169Z" fill="#75AAF1"/>
<path d="M249.358 96.1499L250.06 95.4481C249.218 94.9568 249.078 93.6936 247.955 93.483L249.358 96.1499Z" fill="#75AAF1"/>
<path d="M250.551 107.379C250.481 108.362 250.411 109.344 250.341 110.327C252.306 109.836 250.411 108.221 251.253 107.379C251.043 107.169 250.762 107.098 250.551 107.379C250.551 107.309 250.551 107.309 250.551 107.379Z" fill="#75AAF1"/>
<path d="M250.551 107.379H251.183C251.464 106.677 252.095 105.835 250.551 106.046C251.113 106.467 250.481 106.888 250.551 107.379Z" fill="#75AAF1"/>
<path d="M243.603 32.4945V31.5821C242.901 31.6523 241.919 31.7225 242.129 32.5646C242.27 33.2665 243.112 33.1261 243.603 32.4945Z" fill="#929292"/>
<path d="M129.346 119.591C128.013 121.626 127.101 120.784 126.329 119.1C125.346 119.942 123.942 118.398 122.96 119.591C121.767 121.345 121.977 122.679 123.872 123.942C126.469 125.697 128.785 127.732 131.312 129.627C133.277 131.101 134.259 129.276 135.382 128.223C136.505 127.171 136.014 126.539 134.961 125.697C133.908 124.855 134.049 123.732 135.172 122.679C136.786 120.995 138.961 119.942 141.348 119.661C142.821 119.451 144.225 118.608 145.629 118.117C148.085 116.784 150.471 115.099 153.419 116.994C155.735 118.468 156.998 116.713 157.911 115.169C158.963 113.485 156.647 112.643 156.086 112.362C153.63 111.169 151.945 108.853 149.068 108.151C146.962 107.66 146.05 108.502 145.98 109.976C145.91 112.502 144.085 112.713 142.541 113.064C141.628 113.274 140.646 113.204 139.944 114.187C140.155 112.924 140.435 111.59 140.786 110.327C140.997 109.204 141.769 108.221 143.243 108.642C144.155 108.923 144.716 108.362 145.278 107.73C145.769 107.028 145.629 106.116 144.997 105.554C142.541 103.589 140.084 101.554 137.067 100.361C136.154 100.01 134.891 99.3082 133.768 100.712C132.645 102.115 132.084 103.589 133.347 105.274C135.803 106.748 136.084 107.309 134.259 110.748C133.628 111.941 133.206 113.204 132.996 114.538C132.715 116.784 131.312 118.679 129.346 119.591Z" fill="black"/>
</g>
<defs>
<clipPath id="clip0_128_1219">
<rect width="315.4" height="232.655" fill="white" transform="matrix(-1 0 0 1 315.4 0)"/>
</clipPath>
</defs>
</svg>
